SplineFontDB: 3.2
FontName: ComicbeshSansAF-BETA
FullName: Comicbesh Sans AF
FamilyName: Comicbesh Sans AF
Weight: Beta
Copyright: CC-0 Public Domain
Version: 2
ItalicAngle: 0
UnderlinePosition: -359
UnderlineWidth: 175
Ascent: 1638
Descent: 410
InvalidEm: 0
sfntRevision: 0x00010000
LayerCount: 2
Layer: 0 1 "Back" 1
Layer: 1 1 "Fore" 0
XUID: [1021 178 1911899458 24408]
StyleMap: 0x0040
FSType: 8
OS2Version: 2
OS2_WeightWidthSlopeOnly: 0
OS2_UseTypoMetrics: 0
CreationTime: 4647956631478235727
ModificationTime: 1590297909
PfmFamily: 65
TTFWeight: 400
TTFWidth: 5
LineGap: 0
VLineGap: 0
Panose: 3 15 7 2 3 3 2 2 2 4
OS2TypoAscent: 1638
OS2TypoAOffset: 0
OS2TypoDescent: -597
OS2TypoDOffset: 0
OS2TypoLinegap: 0
OS2WinAscent: 2257
OS2WinAOffset: 0
OS2WinDescent: 597
OS2WinDOffset: 0
HheadAscent: 2257
HheadAOffset: 0
HheadDescent: -597
HheadDOffset: 0
OS2SubXSize: 1434
OS2SubYSize: 1331
OS2SubXOff: 0
OS2SubYOff: 293
OS2SupXSize: 1434
OS2SupYSize: 1331
OS2SupXOff: 0
OS2SupYOff: 928
OS2StrikeYSize: 175
OS2StrikeYPos: 530
OS2FamilyClass: 2568
OS2Vendor: 'AF  '
OS2CodePages: 00000001.00000000
OS2UnicodeRanges: 00000003.00000000.00000000.00000000
MarkAttachClasses: 1
DEI: 91125
TtTable: prep
PUSHW_6
 15
 280
 127
 279
 143
 279
NPUSHB
 13
 3
 127
 160
 143
 160
 159
 160
 175
 160
 191
 160
 5
 0
PUSHW_3
 272
 16
 272
NPUSHB
 9
 127
 130
 143
 130
 159
 130
 175
 130
 160
PUSHW_1
 272
PUSHB_3
 191
 130
 176
PUSHW_3
 272
 9
 -64
NPUSHB
 255
 68
 16
 20
 70
 18
 17
 8
 64
 178
 147
 147
 52
 62
 122
 122
 51
 62
 148
 148
 52
 62
 123
 123
 51
 62
 151
 151
 51
 62
 114
 114
 51
 62
 152
 152
 51
 62
 96
 96
 51
 62
 107
 107
 51
 62
 77
 77
 51
 62
 84
 84
 51
 62
 78
 78
 51
 62
 86
 86
 51
 62
 65
 65
 51
 62
 58
 58
 51
 62
 61
 61
 51
 62
 73
 73
 51
 62
 66
 66
 51
 62
 79
 79
 51
 62
 102
 102
 51
 62
 97
 97
 51
 62
 149
 123
 52
 62
 166
 152
 52
 62
 150
 96
 52
 62
 95
 107
 52
 62
 113
 77
 52
 62
 74
 84
 52
 62
 75
 78
 52
 62
 105
 86
 52
 62
 80
 65
 52
 62
 60
 58

StartChar: .notdef
Encoding: 65536 -1 0
Width: 1024
Flags: W
LayerCount: 2
Fore
SplineSet
128 0 m 1,0,-1
 128 1638 l 1,1,-1
 896 1638 l 1,2,-1
 896 0 l 1,3,-1
 128 0 l 1,0,-1
256 128 m 1,4,-1
 768 128 l 1,5,-1
 768 1510 l 1,6,-1
 256 1510 l 1,7,-1
 256 128 l 1,4,-1
EndSplineSet
Validated: 1
EndChar

StartChar: exclam
Encoding: 33 33 4
Width: 613
Flags: W
LayerCount: 2
Fore
SplineSet
125.966796875 848.8984375 m 0,0,1
 95.240234375 865.658203125 95.240234375 865.658203125 85.34375 901.811523438 c 128,-1,2
 75.447265625 937.96484375 75.447265625 937.96484375 92.2080078125 968.69140625 c 0,3,4
 106.094726562 994.150390625 106.094726562 994.150390625 229 1090 c 0,5,6
 335.783203125 1173.00097656 335.783203125 1173.00097656 386.622070312 1205.64355469 c 0,7,8
 432.431640625 1235.33203125 432.431640625 1235.33203125 470.181640625 1214.74121094 c 0,9,10
 501.786132812 1197.50292969 501.786132812 1197.50292969 511.00390625 1161.14941406 c 128,-1,11
 520.221679688 1124.796875 520.221679688 1124.796875 503.461914062 1094.0703125 c 0,12,13
 491.969726562 1073.00097656 491.969726562 1073.00097656 215.033203125 861.827148438 c 0,14,15
 168.983398438 825.434570312 168.983398438 825.434570312 125.966796875 848.8984375 c 0,0,1
95.966796875 413.8984375 m 0,16,17
 65.240234375 430.658203125 65.240234375 430.658203125 55.34375 466.811523438 c 128,-1,18
 45.447265625 502.96484375 45.447265625 502.96484375 62.2080078125 533.69140625 c 0,19,20
 76.0947265625 559.150390625 76.0947265625 559.150390625 199 655 c 0,21,22
 305.783203125 738.000976562 305.783203125 738.000976562 356.622070312 770.643554688 c 0,23,24
 402.431640625 800.33203125 402.431640625 800.33203125 440.181640625 779.741210938 c 0,25,26
 471.786132812 762.502929688 471.786132812 762.502929688 481.00390625 726.149414062 c 128,-1,27
 490.221679688 689.796875 490.221679688 689.796875 473.461914062 659.0703125 c 0,28,29
 461.969726562 638.000976562 461.969726562 638.000976562 185.033203125 426.827148438 c 0,30,31
 138.983398438 390.434570312 138.983398438 390.434570312 95.966796875 413.8984375 c 0,16,17
EndSplineSet
Validated: 33
EndChar

StartChar: quotedbl
Encoding: 34 34 5
Width: 993
Flags: W
LayerCount: 2
Fore
SplineSet
488.322265625 1251.8203125 m 1,0,1
 530.708984375 1306.77734375 530.708984375 1306.77734375 618.731445312 1386.60253906 c 0,2,3
 722.124023438 1481.04785156 722.124023438 1481.04785156 754.014648438 1516.26269531 c 128,-1,4
 785.904296875 1551.4765625 785.904296875 1551.4765625 822.892578125 1550.55175781 c 256,5,6
 859.881835938 1549.62695312 859.881835938 1549.62695312 887.198242188 1521.93554688 c 128,-1,7
 914.514648438 1494.24414062 914.514648438 1494.24414062 913.614257812 1458.25585938 c 0,8,9
 912.915039062 1430.26367188 912.915039062 1430.26367188 891.221679688 1402.79785156 c 0,10,11
 861.231445312 1363.53515625 861.231445312 1363.53515625 721 1236 c 0,12,13
 613.533203125 1138.65527344 613.533203125 1138.65527344 575.220703125 1046.58398438 c 0,14,15
 545.330078125 971.307617188 545.330078125 971.307617188 490.346679688 972.681640625 c 0,16,17
 440.362304688 973.931640625 440.362304688 973.931640625 409.09765625 1043.73535156 c 0,18,19
 366.435546875 1137.83007812 366.435546875 1137.83007812 252.24609375 1251.71972656 c 0,20,21
 94.1708984375 1410.72070312 94.1708984375 1410.72070312 70.416015625 1440.82324219 c 128,-1,22
 46.66015625 1470.92675781 46.66015625 1470.92675781 47.41015625 1500.91699219 c 0,23,24
 48.3095703125 1536.90625 48.3095703125 1536.90625 76.48828125 1563.70996094 c 128,-1,25
 104.666992188 1590.51367188 104.666992188 1590.51367188 141.65625 1589.58984375 c 0,26,27
 175.645507812 1588.73925781 175.645507812 1588.73925781 204.885742188 1557.99902344 c 0,28,29
 304.455078125 1459.48046875 304.455078125 1459.48046875 488.322265625 1251.8203125 c 1,0,1
EndSplineSet
Validated: 33
EndChar

StartChar: quotesingle
Encoding: 39 39 6
Width: 795
Flags: W
LayerCount: 2
Fore
SplineSet
462 1446 m 0,0,1
 462 1416 462 1416 467 1357 c 128,-1,2
 472 1298 472 1298 472 1268 c 0,3,4
 472 1140 472 1140 382 1140 c 0,5,6
 320 1140 320 1140 303 1184 c 0,7,8
 295 1207 295 1207 295 1279 c 0,9,10
 295 1307 295 1307 289.5 1362.5 c 128,-1,11
 284 1418 284 1418 284 1446 c 0,12,13
 284 1546 284 1546 292 1581 c 0,14,15
 312 1660 312 1660 380 1660 c 0,16,17
 418 1660 418 1660 444 1635.5 c 128,-1,18
 470 1611 470 1611 470 1573 c 0,19,20
 470 1552 470 1552 466 1509.5 c 128,-1,21
 462 1467 462 1467 462 1446 c 0,0,1
EndSplineSet
Validated: 1
EndChar

StartChar: comma
Encoding: 44 44 7
Width: 795
Flags: W
LayerCount: 2
Fore
SplineSet
466 171 m 0,0,1
 466 141 466 141 471 82 c 128,-1,2
 476 23 476 23 476 -7 c 0,3,4
 476 -135 476 -135 386 -135 c 0,5,6
 324 -135 324 -135 307 -91 c 0,7,8
 299 -68 299 -68 299 4 c 0,9,10
 299 32 299 32 293.5 87.5 c 128,-1,11
 288 143 288 143 288 171 c 0,12,13
 288 271 288 271 296 306 c 0,14,15
 316 385 316 385 384 385 c 0,16,17
 422 385 422 385 448 360.5 c 128,-1,18
 474 336 474 336 474 298 c 0,19,20
 474 277 474 277 470 234.5 c 128,-1,21
 466 192 466 192 466 171 c 0,0,1
EndSplineSet
Validated: 1
EndChar

StartChar: hyphen
Encoding: 45 45 8
AltUni2: 002010.ffffffff.0
Width: 853
Flags: W
LayerCount: 2
Fore
SplineSet
672 1000 m 0,0,1
 536 986 536 986 188 986 c 0,2,3
 104 986 104 986 104 1064 c 256,4,5
 104 1142 104 1142 188 1142 c 0,6,7
 267 1142 267 1142 425 1149 c 128,-1,8
 583 1156 583 1156 662 1156 c 0,9,10
 751 1156 751 1156 751 1078 c 0,11,12
 751 1009 751 1009 672 1000 c 0,0,1
EndSplineSet
Validated: 1
EndChar

StartChar: period
Encoding: 46 46 9
Width: 869
Flags: W
LayerCount: 2
Fore
SplineSet
320 139 m 0,0,1
 320 122 320 122 325 89.5 c 128,-1,2
 330 57 330 57 330 41 c 0,3,4
 330 4 330 4 303 -20.5 c 128,-1,5
 276 -45 276 -45 238 -45 c 0,6,7
 142 -45 142 -45 142 126 c 0,8,9
 142 192 142 192 145 324 c 128,-1,10
 148 456 148 456 148 522 c 0,11,12
 148 561 148 561 173 586 c 128,-1,13
 198 611 198 611 237 611 c 256,14,15
 276 611 276 611 301 586 c 128,-1,16
 326 561 326 561 326 522 c 0,17,18
 326 458 326 458 323 330.5 c 128,-1,19
 320 203 320 203 320 139 c 0,0,1
713 518 m 0,20,21
 713 502 713 502 710 473 c 128,-1,22
 707 444 707 444 707 431 c 2,23,-1
 698 41 l 2,24,25
 696 -49 696 -49 609 -49 c 0,26,27
 571 -49 571 -49 545 -24 c 128,-1,28
 519 1 519 1 520 39 c 2,29,-1
 529 436 l 2,30,31
 531 515 531 515 542 547 c 0,32,33
 563 607 563 607 624 607 c 0,34,35
 663 607 663 607 688 581.5 c 128,-1,36
 713 556 713 556 713 518 c 0,20,21
EndSplineSet
Validated: 33
EndChar

StartChar: zero
Encoding: 48 48 10
Width: 1250
Flags: W
LayerCount: 2
Fore
SplineSet
611 -39 m 0,0,1
 307 -39 307 -39 167 239 c 0,2,3
 61 453 61 453 61 796 c 0,4,5
 61 1086 61 1086 199 1302 c 0,6,7
 362 1555 362 1555 642 1555 c 0,8,9
 905 1555 905 1555 1052 1331 c 0,10,11
 1179 1137 1179 1137 1179 858 c 0,12,13
 1179 410 1179 410 1037 185.5 c 128,-1,14
 895 -39 895 -39 611 -39 c 0,0,1
641 1362 m 0,15,16
 455 1362 455 1362 346 1173 c 0,17,18
 255 1015 255 1015 255 812 c 0,19,20
 255 483 255 483 344 318 c 128,-1,21
 433 153 433 153 611 153 c 0,22,23
 823 153 823 153 915 395 c 0,24,25
 979 563 979 563 979 821 c 0,26,27
 979 1092 979 1092 894.5 1227 c 128,-1,28
 810 1362 810 1362 641 1362 c 0,15,16
EndSplineSet
Validated: 1
EndChar

StartChar: one
Encoding: 49 49 11
Width: 922
Flags: W
LayerCount: 2
Fore
SplineSet
704 -1 m 2,0,-1
 505 -1 l 1,1,-1
 307 0 l 2,2,3
 237 0 237 0 209 9 c 0,4,5
 158 27 158 27 158 85 c 0,6,7
 158 186 158 186 315 186 c 2,8,-1
 363 185 l 1,9,-1
 404 183 l 1,10,11
 404 231 404 231 395.5 325 c 128,-1,12
 387 419 387 419 387 466 c 0,13,14
 387 593 387 593 410 852 c 0,15,16
 432 1107 432 1107 431 1239 c 1,17,18
 297 1135 297 1135 260 1135 c 0,19,20
 220 1135 220 1135 190.5 1165 c 128,-1,21
 161 1195 161 1195 161 1234 c 0,22,23
 161 1281 161 1281 247 1348 c 0,24,25
 301 1386 301 1386 400 1470 c 1,26,27
 488 1559 488 1559 568 1559 c 0,28,29
 635 1559 635 1559 635 1482 c 0,30,31
 635 1459 635 1459 629 1413.5 c 128,-1,32
 623 1368 623 1368 623 1345 c 0,33,34
 623 1312 623 1312 626.5 1245 c 128,-1,35
 630 1178 630 1178 630 1145 c 0,36,37
 630 1031 630 1031 606 805 c 128,-1,38
 582 579 582 579 582 466 c 0,39,40
 582 408 582 408 590 325 c 128,-1,41
 598 242 598 242 599 189 c 1,42,-1
 704 191 l 2,43,44
 746 191 746 191 773.5 163.5 c 128,-1,45
 801 136 801 136 801 95 c 0,46,47
 801 53 801 53 773.5 26 c 128,-1,48
 746 -1 746 -1 704 -1 c 2,0,-1
EndSplineSet
Validated: 33
EndChar

StartChar: two
Encoding: 50 50 12
Width: 1250
Flags: W
LayerCount: 2
Fore
SplineSet
1008 -2 m 0,0,1
 983 -2 983 -2 937.5 13.5 c 128,-1,2
 892 29 892 29 868 29 c 0,3,4
 817 29 817 29 715 23 c 128,-1,5
 613 17 613 17 561 17 c 0,6,7
 522 17 522 17 445.5 7 c 128,-1,8
 369 -3 369 -3 330 -3 c 0,9,10
 319 -3 319 -3 298 1 c 128,-1,11
 277 5 277 5 266 5 c 0,12,13
 197 5 197 5 176 72 c 0,14,15
 164 107 164 107 164 192 c 0,16,17
 164 425 164 425 291 567 c 0,18,19
 349 632 349 632 604 807 c 0,20,21
 747 905 747 905 795 960 c 0,22,23
 881 1056 881 1056 881 1185 c 0,24,25
 881 1249 881 1249 798 1299 c 0,26,27
 725 1344 725 1344 655 1344 c 0,28,29
 563 1344 563 1344 480 1291 c 1,30,-1
 337 1179 l 2,31,32
 294 1145 294 1145 268 1145 c 0,33,34
 165 1145 165 1145 165 1227 c 0,35,36
 165 1274 165 1274 203 1308 c 0,37,38
 320 1418 320 1418 406 1467 c 0,39,40
 527 1536 527 1536 655 1536 c 0,41,42
 817 1536 817 1536 944 1448 c 0,43,44
 1086 1349 1086 1349 1086 1194 c 0,45,46
 1086 1092 1086 1092 1057 1006 c 128,-1,47
 1028 920 1028 920 969 849 c 0,48,49
 894 759 894 759 715 648 c 0,50,51
 527 530 527 530 468 469 c 0,52,53
 357 354 357 354 359 190 c 1,54,-1
 565 209 l 1,55,56
 777 221 777 221 868 221 c 0,57,58
 944 221 944 221 1012 195 c 0,59,60
 1102 160 1102 160 1102 98 c 0,61,62
 1102 59 1102 59 1075 28.5 c 128,-1,63
 1048 -2 1048 -2 1008 -2 c 0,0,1
EndSplineSet
Validated: 33
EndChar

StartChar: three
Encoding: 51 51 13
Width: 1250
Flags: W
LayerCount: 2
Fore
SplineSet
605 -46 m 0,0,1
 454 -46 454 -46 334 17 c 0,2,3
 199 90 199 90 152 222 c 0,4,5
 146 240 146 240 146 257 c 0,6,7
 146 297 146 297 176.5 323.5 c 128,-1,8
 207 350 207 350 247 350 c 256,9,10
 287 350 287 350 316 313 c 2,11,-1
 362 244 l 2,12,13
 398 195 398 195 459 170.5 c 128,-1,14
 520 146 520 146 605 146 c 0,15,16
 714 146 714 146 796 214 c 0,17,18
 883 286 883 286 883 390 c 0,19,20
 883 541 883 541 772 631 c 0,21,22
 674 709 674 709 512 726 c 0,23,24
 401 737 401 737 401 816 c 0,25,26
 401 875 401 875 488 906 c 1,27,-1
 727 965 l 1,28,29
 796 990 796 990 831 1032.5 c 128,-1,30
 866 1075 866 1075 867 1136 c 0,31,32
 869 1224 869 1224 799 1278 c 0,33,34
 726 1334 726 1334 594 1334 c 0,35,36
 526 1334 526 1334 462 1301 c 1,37,-1
 349 1230 l 2,38,39
 316 1209 316 1209 296 1209 c 0,40,41
 256 1209 256 1209 227.5 1239.5 c 128,-1,42
 199 1270 199 1270 199 1309 c 0,43,44
 199 1388 199 1388 352 1461 c 0,45,46
 485 1526 485 1526 571 1526 c 0,47,48
 786 1526 786 1526 912 1431 c 0,49,50
 1047 1329 1047 1329 1047 1140 c 0,51,52
 1047 905 1047 905 857 830 c 0,53,54
 840 823 840 823 818 816 c 1,55,56
 951 767 951 767 1017 669.5 c 128,-1,57
 1083 572 1083 572 1083 426 c 0,58,59
 1083 229 1083 229 944 91.5 c 128,-1,60
 805 -46 805 -46 605 -46 c 0,0,1
EndSplineSet
Validated: 33
EndChar

StartChar: four
Encoding: 52 52 14
Width: 1250
Flags: W
LayerCount: 2
Fore
SplineSet
964 437 m 1,0,-1
 964 67 l 2,1,2
 964 -26 964 -26 873 -26 c 0,3,4
 767 -26 767 -26 767 119 c 0,5,6
 767 137 767 137 769 170 c 128,-1,7
 771 203 771 203 771 215 c 2,8,-1
 770 442 l 1,9,-1
 329 453 l 2,10,11
 192 453 192 453 139 462 c 0,12,13
 48 477 48 477 48 533 c 0,14,15
 48 578 48 578 103 647 c 2,16,-1
 189 749 l 1,17,-1
 681 1467 l 2,18,19
 748 1560 748 1560 851 1560 c 0,20,21
 964 1560 964 1560 964 1462 c 2,22,-1
 964 631 l 1,23,24
 981 632 981 632 1005 632 c 0,25,26
 1189 632 1189 632 1189 533 c 0,27,28
 1189 461 1189 461 1113 442 c 0,29,30
 1079 433 1079 433 964 437 c 1,0,-1
770 1283 m 1,31,32
 503 857 503 857 353 645 c 1,33,-1
 770 635 l 1,34,-1
 770 1283 l 1,31,32
EndSplineSet
Validated: 33
EndChar

StartChar: five
Encoding: 53 53 15
Width: 1250
Flags: W
LayerCount: 2
Fore
SplineSet
562 -63 m 0,0,1
 278 -63 278 -63 144 147 c 0,2,3
 126 176 126 176 126 203 c 0,4,5
 126 242 126 242 157 270.5 c 128,-1,6
 188 299 188 299 227 299 c 0,7,8
 268 299 268 299 305 255 c 0,9,10
 358 191 358 191 385 173 c 0,11,12
 450 129 450 129 562 129 c 0,13,14
 735 129 735 129 849 261 c 0,15,16
 958 387 958 387 958 564 c 0,17,18
 958 710 958 710 910 801 c 0,19,20
 848 916 848 916 719 916 c 0,21,22
 612 916 612 916 544 887 c 0,23,24
 490 864 490 864 435 808 c 2,25,-1
 326 689 l 2,26,27
 282 644 282 644 236 644 c 0,28,29
 196 644 196 644 168 672.5 c 128,-1,30
 140 701 140 701 140 741 c 0,31,32
 140 761 140 761 156 919 c 0,33,34
 190 1234 190 1234 190 1333 c 0,35,36
 190 1368 190 1368 172.5 1409.5 c 128,-1,37
 155 1451 155 1451 155 1471 c 0,38,39
 155 1532 155 1532 260 1532 c 0,40,41
 280 1532 280 1532 320.5 1528.5 c 128,-1,42
 361 1525 361 1525 381 1525 c 0,43,44
 439 1525 439 1525 555 1529 c 128,-1,45
 671 1533 671 1533 729 1533 c 0,46,47
 756 1533 756 1533 811 1531 c 128,-1,48
 866 1529 866 1529 893 1529 c 0,49,50
 912 1529 912 1529 948 1536.5 c 128,-1,51
 984 1544 984 1544 1002 1544 c 0,52,53
 1041 1544 1041 1544 1071 1515 c 128,-1,54
 1101 1486 1101 1486 1101 1448 c 0,55,56
 1101 1336 1101 1336 864 1336 c 0,57,58
 833 1336 833 1336 786 1338 c 128,-1,59
 739 1340 739 1340 729 1340 c 2,60,-1
 560 1337 l 1,61,-1
 391 1332 l 1,62,63
 391 1287 391 1287 354 999 c 1,64,65
 491 1108 491 1108 719 1108 c 0,66,67
 939 1108 939 1108 1055 936 c 0,68,69
 1153 790 1153 790 1153 564 c 0,70,71
 1153 294 1153 294 995 119 c 0,72,73
 831 -63 831 -63 562 -63 c 0,0,1
EndSplineSet
Validated: 1
EndChar

StartChar: six
Encoding: 54 54 16
Width: 1250
Flags: W
LayerCount: 2
Fore
SplineSet
597 -72 m 0,0,1
 336 -72 336 -72 213 119 c 0,2,3
 111 276 111 276 111 538 c 0,4,5
 111 1032 111 1032 512 1395 c 1,6,-1
 606 1490 l 2,7,8
 675 1556 675 1556 710 1556 c 0,9,10
 750 1556 750 1556 780 1527.5 c 128,-1,11
 810 1499 810 1499 811 1460 c 0,12,13
 813 1424 813 1424 709 1321 c 2,14,-1
 505 1122 l 2,15,16
 424 1040 424 1040 366 874 c 1,17,18
 453 914 453 914 518 933.5 c 128,-1,19
 583 953 583 953 625 953 c 0,20,21
 859 953 859 953 984 828 c 128,-1,22
 1109 703 1109 703 1109 475 c 0,23,24
 1109 236 1109 236 974 85 c 0,25,26
 833 -72 833 -72 597 -72 c 0,0,1
597 749 m 0,27,28
 511 749 511 749 443 719 c 0,29,30
 417 707 417 707 312 642 c 1,31,32
 306 589 306 589 306 538 c 0,33,34
 306 359 306 359 366 246 c 0,35,36
 442 102 442 102 603 102 c 0,37,38
 754 102 754 102 837 210 c 0,39,40
 914 310 914 310 914 475 c 0,41,42
 914 612 914 612 835 680.5 c 128,-1,43
 756 749 756 749 597 749 c 0,27,28
EndSplineSet
Validated: 33
EndChar

StartChar: seven
Encoding: 55 55 17
Width: 1250
Flags: W
LayerCount: 2
Fore
SplineSet
1154 1306 m 2,0,-1
 1063 1200 l 2,1,2
 933 1048 933 1048 824 832 c 1,3,-1
 642 433 l 2,4,5
 623 389 623 389 558 202 c 0,6,7
 506 54 506 54 461 -19 c 0,8,9
 433 -66 433 -66 381 -66 c 0,10,11
 341 -66 341 -66 310.5 -38 c 128,-1,12
 280 -10 280 -10 280 29 c 0,13,14
 280 67 280 67 344 224 c 2,15,-1
 569 775 l 1,16,17
 718 1102 718 1102 875 1279 c 2,18,-1
 894 1300 l 1,19,-1
 392 1310 l 1,20,-1
 167 1316 l 1,21,22
 70 1325 70 1325 70 1412 c 0,23,24
 70 1454 70 1454 98 1481 c 128,-1,25
 126 1508 126 1508 168 1508 c 0,26,27
 294 1508 294 1508 546.5 1500 c 128,-1,28
 799 1492 799 1492 925 1492 c 2,29,-1
 1108 1492 l 2,30,31
 1214 1492 1214 1492 1214 1429 c 0,32,33
 1214 1382 1214 1382 1154 1306 c 2,0,-1
EndSplineSet
Validated: 1
EndChar

StartChar: eight
Encoding: 56 56 18
Width: 1250
Flags: W
LayerCount: 2
Fore
SplineSet
614 -54 m 0,0,1
 403 -54 403 -54 273 38 c 0,2,3
 125 142 125 142 122 343 c 0,4,5
 118 666 118 666 349 783 c 1,6,7
 171 891 171 891 171 1090 c 0,8,9
 171 1279 171 1279 308 1404 c 0,10,11
 439 1524 439 1524 626 1526 c 0,12,13
 1046 1530 1046 1530 1046 1111 c 0,14,15
 1046 991 1046 991 998 926 c 0,16,17
 959 872 959 872 847 815 c 1,18,19
 996 740 996 740 1056 653 c 0,20,21
 1126 551 1126 551 1126 372 c 0,22,23
 1126 168 1126 168 975 52 c 0,24,25
 835 -54 835 -54 614 -54 c 0,0,1
623 1347 m 0,26,27
 494 1347 494 1347 426 1274 c 0,28,29
 365 1206 365 1206 366 1090 c 0,30,31
 367 950 367 950 596 891 c 1,32,33
 716 926 716 926 768 961 c 0,34,35
 851 1017 851 1017 851 1111 c 0,36,37
 851 1247 851 1247 790 1302 c 0,38,39
 738 1347 738 1347 623 1347 c 0,26,27
605 714 m 1,40,41
 446 640 446 640 393 586 c 0,42,43
 310 503 310 503 315 352 c 0,44,45
 319 227 319 227 430 165 c 0,46,47
 511 121 511 121 614 121 c 0,48,49
 790 121 790 121 860 204 c 0,50,51
 916 270 916 270 916 404 c 0,52,53
 916 535 916 535 814 615 c 0,54,55
 746 670 746 670 605 714 c 1,40,41
EndSplineSet
Validated: 33
EndChar

StartChar: nine
Encoding: 57 57 19
Width: 1250
Flags: W
LayerCount: 2
Fore
SplineSet
784 121 m 0,0,1
 711 67 711 67 550 -9 c 0,2,3
 371 -95 371 -95 301 -95 c 0,4,5
 260 -95 260 -95 233.5 -65 c 128,-1,6
 207 -35 207 -35 207 5 c 0,7,8
 207 64 207 64 275 94 c 1,9,-1
 442 151 l 1,10,11
 597 214 597 214 687 296 c 128,-1,12
 777 378 777 378 851 529 c 2,13,-1
 894 615 l 1,14,15
 838 583 838 583 750 556 c 128,-1,16
 662 529 662 529 607 529 c 0,17,18
 418 529 418 529 280 634 c 0,19,20
 112 762 112 762 112 998 c 0,21,22
 112 1277 112 1277 284 1417 c 0,23,24
 431 1536 431 1536 670 1536 c 0,25,26
 854 1536 854 1536 1000 1386 c 0,27,28
 1154 1227 1154 1227 1155 1002 c 0,29,30
 1156 748 1156 748 1061 509 c 0,31,32
 959 251 959 251 784 121 c 0,0,1
642 1365 m 0,33,34
 474 1365 474 1365 389.5 1278 c 128,-1,35
 305 1191 305 1191 304 1016 c 0,36,37
 304 869 304 869 407 788 c 0,38,39
 498 717 498 717 636 717 c 0,40,41
 716 717 716 717 803 765 c 0,42,43
 843 787 843 787 947 864 c 1,44,45
 960 951 960 951 960 1002 c 0,46,47
 959 1127 959 1127 854.5 1246 c 128,-1,48
 750 1365 750 1365 642 1365 c 0,33,34
EndSplineSet
Validated: 33
EndChar

StartChar: colon
Encoding: 58 58 20
Width: 921
Flags: W
LayerCount: 2
Fore
SplineSet
822.754882812 125.02734375 m 0,0,1
 807.137695312 92.591796875 807.137695312 92.591796875 758.6171875 77.107421875 c 0,2,3
 448.305664062 -18.765625 448.305664062 -18.765625 140.696289062 -56.0068359375 c 0,4,5
 107.66015625 -60.078125 107.66015625 -60.078125 85.134765625 -49.232421875 c 0,6,7
 52.69921875 -33.615234375 52.69921875 -33.615234375 41.1865234375 3.5595703125 c 128,-1,8
 29.6728515625 40.7333984375 29.6728515625 40.7333984375 45.291015625 73.169921875 c 0,9,10
 62.6435546875 109.209960938 62.6435546875 109.209960938 110.796875 119.321289062 c 2,11,-1
 588.794921875 217.697265625 l 1,12,13
 534.201171875 309.465820312 534.201171875 309.465820312 469.094726562 476.217773438 c 0,14,15
 390.44140625 681.6796875 390.44140625 681.6796875 415.602539062 733.9375 c 0,16,17
 431.219726562 766.374023438 431.219726562 766.374023438 468.161132812 778.553710938 c 128,-1,18
 505.1015625 790.734375 505.1015625 790.734375 537.538085938 775.1171875 c 0,19,20
 570.875 759.065429688 570.875 759.065429688 583.155273438 715.416992188 c 0,21,22
 677.9609375 386.751953125 677.9609375 386.751953125 803 220 c 0,23,24
 843.14453125 167.375 843.14453125 167.375 822.754882812 125.02734375 c 0,0,1
EndSplineSet
Validated: 33
EndChar

StartChar: semicolon
Encoding: 59 59 21
Width: 863
Flags: W
LayerCount: 2
Fore
SplineSet
445 1715 m 0,0,1
 531 1715 531 1715 531 1626 c 2,2,-1
 531 -245 l 2,3,4
 529 -362 529 -362 444 -362 c 0,5,6
 385 -362 385 -362 364 -286 c 0,7,8
 353 -246 353 -246 353 25 c 2,9,-1
 353 1626 l 2,10,11
 353 1665 353 1665 379 1690 c 128,-1,12
 405 1715 405 1715 445 1715 c 0,0,1
EndSplineSet
Validated: 1
EndChar

StartChar: question
Encoding: 63 63 22
Width: 1073
Flags: W
LayerCount: 2
Fore
SplineSet
371 308 m 0,0,1
 330 308 330 308 299 339.5 c 128,-1,2
 268 371 268 371 268 411 c 0,3,4
 268 480 268 480 396 581 c 2,5,-1
 635 761 l 1,6,7
 764 872 764 872 764 964 c 0,8,9
 764 1080 764 1080 655 1178 c 0,10,11
 550 1273 550 1273 432 1273 c 0,12,13
 369 1273 369 1273 272 1208.5 c 128,-1,14
 175 1144 175 1144 152 1144 c 0,15,16
 111 1144 111 1144 81.5 1177 c 128,-1,17
 52 1210 52 1210 52 1251 c 0,18,19
 52 1330 52 1330 205 1408 c 0,20,21
 342 1478 342 1478 432 1478 c 0,22,23
 633 1478 633 1478 797 1321 c 128,-1,24
 961 1164 961 1164 961 964 c 0,25,26
 961 818 961 818 867 705 c 0,27,28
 811 637 811 637 659 529 c 0,29,30
 506 418 506 418 446 349 c 0,31,32
 411 308 411 308 371 308 c 0,0,1
EndSplineSet
Validated: 1
EndChar

StartChar: A
Encoding: 65 65 23
Width: 1247
Flags: W
LayerCount: 2
Fore
SplineSet
127.009765625 1106.25 m 0,0,1
 155.388671875 1123.22851562 155.388671875 1123.22851562 179.610351562 1123.79003906 c 0,2,3
 203.791015625 1123.39746094 203.791015625 1123.39746094 230.01953125 1110.66992188 c 0,4,5
 254.240234375 1098.55175781 254.240234375 1098.55175781 268.291015625 1073.43359375 c 0,6,7
 269.1484375 1071.81933594 269.1484375 1071.81933594 269.469726562 1071.20996094 c 0,8,9
 282.506835938 1043.58105469 282.506835938 1043.58105469 282.620117188 961.600585938 c 0,10,11
 282.842773438 878.69140625 282.842773438 878.69140625 294.940429688 854.190429688 c 0,12,13
 307.598632812 830.216796875 307.598632812 830.216796875 327.8203125 811 c 0,14,15
 348.993164062 791.845703125 348.993164062 791.845703125 392.209960938 770.259765625 c 0,16,17
 435.892578125 748.918945312 435.892578125 748.918945312 471.120117188 742.5703125 c 0,18,19
 506.955078125 736.912109375 506.955078125 736.912109375 563.169921875 750.83984375 c 0,20,21
 619.841796875 765.296875 619.841796875 765.296875 658.4296875 788.830078125 c 0,22,23
 696.206054688 812.193359375 696.206054688 812.193359375 712.25 821.299804688 c 0,24,25
 728.169921875 830.65625 728.169921875 830.65625 751.290039062 851.990234375 c 0,26,27
 775.314453125 874.869140625 775.314453125 874.869140625 826.790039062 950.639648438 c 0,28,29
 877.814453125 1026.09667969 877.814453125 1026.09667969 878.790039062 1036.12988281 c 0,30,31
 879.815429688 1045.75 879.815429688 1045.75 900.709960938 1071.20996094 c 0,32,33
 923.412109375 1097.22558594 923.412109375 1097.22558594 955.5 1102.78027344 c 0,34,35
 988.974609375 1107.46777344 988.974609375 1107.46777344 1021.75 1091.8203125 c 0,36,37
 1054.77734375 1074.87011719 1054.77734375 1074.87011719 1067.78027344 1047.08984375 c 0,38,39
 1079.99609375 1018.95996094 1079.99609375 1018.95996094 1080.4296875 1001.06054688 c 0,40,41
 1079.95019531 983.032226562 1079.95019531 983.032226562 1065.70996094 950.639648438 c 0,42,43
 1050.42871094 917.110351562 1050.42871094 917.110351562 1000.65039062 843.23046875 c 0,44,45
 950.416015625 769.099609375 950.416015625 769.099609375 907.969726562 724.030273438 c 0,46,47
 865.853515625 679.846679688 865.853515625 679.846679688 835.129882812 658.270507812 c 0,48,49
 805.083007812 637.534179688 805.083007812 637.534179688 786.91015625 626.8203125 c 0,50,51
 768.196289062 616.03125 768.196289062 616.03125 712.209960938 588.91015625 c 0,52,53
 655.15234375 561.520507812 655.15234375 561.520507812 596.049804688 548.830078125 c 0,54,55
 537.2265625 536.530273438 537.2265625 536.530273438 499.610351562 536.25 c 0,56,57
 461.919921875 536.448242188 461.919921875 536.448242188 400.98046875 552.3203125 c 0,58,59
 339.666992188 568.622070312 339.666992188 568.622070312 287.059570312 594.040039062 c 0,60,61
 234.354492188 620.1484375 234.354492188 620.1484375 181.860351562 672.379882812 c 0,62,63
 130.171875 724.927734375 130.171875 724.927734375 107.599609375 768.83984375 c 0,64,65
 88.73046875 807.020507812 88.73046875 807.020507812 85.1953125 864.556640625 c 0,66,67
 83.83984375 887.25390625 83.83984375 887.25390625 82.6904296875 926.530273438 c 0,68,69
 79.5458984375 1039.79296875 79.5458984375 1039.79296875 88.9501953125 1064.62988281 c 0,70,71
 99.2763671875 1088.51855469 99.2763671875 1088.51855469 127.009765625 1106.25 c 0,0,1
541.25 512.759765625 m 128,-1,73
 576.575195312 515.803710938 576.575195312 515.803710938 642.080078125 517.360351562 c 0,74,75
 707.659179688 518.666992188 707.659179688 518.666992188 760.4296875 505.110351562 c 0,76,77
 813.272460938 491.034179688 813.272460938 491.034179688 882.73046875 454.650390625 c 0,78,79
 951.807617188 417.690429688 951.807617188 417.690429688 997.66015625 374.110351562 c 0,80,81
 1042.69726562 330.04296875 1042.69726562 330.04296875 1072.62011719 277.759765625 c 0,82,83
 1102.19335938 225.10546875 1102.19335938 225.10546875 1120.83984375 163.770507812 c 0,84,85
 1138.90625 102.877929688 1138.90625 102.877929688 1134.83007812 75.9697265625 c 0,86,87
 1129.98144531 49.8173828125 1129.98144531 49.8173828125 1116.33984375 28.7802734375 c 0,88,89
 1101.86425781 8.23046875 1101.86425781 8.23046875 1078.24023438 -4.099609375 c 0,90,91
 1054.05175781 -15.712890625 1054.05175781 -15.712890625 1027.83007812 -16.08984375 c 0,92,93
 1000.90722656 -15.1083984375 1000.90722656 -15.1083984375 970.5 12.400390625 c 0,94,95
 939.49609375 41.9814453125 939.49609375 41.9814453125 930.919921875 84.740234375 c 0,96,97
 921.99609375 128.67578125 921.99609375 128.67578125 894 176 c 0,98,99
 864.864257812 223.568359375 864.864257812 223.568359375 817.419921875 256.540039062 c 0,100,101
 769.091796875 289.374023438 769.091796875 289.374023438 716.599609375 303.240234375 c 0,102,103
 667.002929688 316.043945312 667.002929688 316.043945312 586.3203125 310.389648438 c 0,104,105
 573.515625 309.48046875 573.515625 309.48046875 558.790039062 308.290039062 c 0,106,107
 454.296875 299.72265625 454.296875 299.72265625 414.129882812 287.83984375 c 0,108,109
 374.9609375 275.796875 374.9609375 275.796875 348.379882812 259.860351562 c 0,110,111
 322.701171875 243.883789062 322.701171875 243.883789062 310.969726562 230.040039062 c 0,112,113
 300.245117188 215.5859375 300.245117188 215.5859375 300.009765625 183.389648438 c 0,114,115
 299.874023438 150.16796875 299.874023438 150.16796875 286.040039062 100.08984375 c 0,116,117
 271.703125 50.208984375 271.703125 50.208984375 248.780273438 25.3701171875 c 0,118,119
 228.053710938 3.59765625 228.053710938 3.59765625 200.866210938 1.7001953125 c 0,120,121
 193.14453125 1.2431640625 193.14453125 1.2431640625 183.990234375 1.259765625 c 0,122,123
 145.00390625 1.4345703125 145.00390625 1.4345703125 121.387695312 20.5751953125 c 0,124,125
 117.30078125 23.9736328125 117.30078125 23.9736328125 113.860351562 27.0302734375 c 0,126,127
 89.7080078125 48.7236328125 89.7080078125 48.7236328125 87.076171875 68.548828125 c 0,128,129
 85.9365234375 78.5546875 85.9365234375 78.5546875 86.240234375 94.990234375 c 0,130,131
 87.2275390625 137.90234375 87.2275390625 137.90234375 98.26953125 238.190429688 c 0,132,133
 109.513671875 338.34765625 109.513671875 338.34765625 123.690429688 359.770507812 c 0,134,135
 138.748046875 380.477539062 138.748046875 380.477539062 177.419921875 399.879882812 c 0,136,137
 216.6796875 419.173828125 216.6796875 419.173828125 260.709960938 442.0703125 c 0,138,139
 304.4609375 464.719726562 304.4609375 464.719726562 343.990234375 478.280273438 c 0,140,141
 383.8671875 491.611328125 383.8671875 491.611328125 444.8203125 500.669921875 c 128,-1,72
 505.743164062 509.587890625 505.743164062 509.587890625 541.25 512.759765625 c 128,-1,73
EndSplineSet
Validated: 524321
EndChar

StartChar: B
Encoding: 66 66 24
Width: 1215
Flags: W
LayerCount: 2
Fore
SplineSet
610.012695312 1070.31054688 m 132,-1,1
 666.701171875 1081.42382812 666.701171875 1081.42382812 706.453125 1082.62988281 c 4,2,3
 746.171875 1083.39257812 746.171875 1083.39257812 798.512695312 1070.27050781 c 4,4,5
 851.147460938 1056.67675781 851.147460938 1056.67675781 908.103515625 1028.90039062 c 4,6,7
 964.640625 1000.81542969 964.640625 1000.81542969 998.983398438 965.520507812 c 4,8,9
 1032.62011719 929.9609375 1032.62011719 929.9609375 1053.7734375 888.469726562 c 4,10,11
 1074.17089844 847.23046875 1074.17089844 847.23046875 1074.64355469 822.700195312 c 4,12,13
 1074.06054688 798.407226562 1074.06054688 798.407226562 1057.10351562 770.08984375 c 4,14,15
 1039.31738281 742.293945312 1039.31738281 742.293945312 1015.49316406 732.080078125 c 4,16,17
 991.056640625 722.963867188 991.056640625 722.963867188 956.323242188 727.5703125 c 4,18,19
 921.806640625 732.931640625 921.806640625 732.931640625 905.143554688 748.049804688 c 4,20,21
 888.934570312 764.129882812 888.934570312 764.129882812 870.073242188 797.75 c 4,22,23
 851.517578125 831.254882812 851.517578125 831.254882812 808.19140625 851.153320312 c 4,24,25
 806.146484375 852.081054688 806.146484375 852.081054688 805.083007812 852.560546875 c 4,26,27
 758.262695312 872.955078125 758.262695312 872.955078125 704.262695312 872.969726562 c 4,28,29
 649.33984375 872.59375 649.33984375 872.59375 588.103515625 856.41015625 c 4,30,31
 527.24609375 840.015625 527.24609375 840.015625 496.04296875 825.270507812 c 4,32,33
 465.522460938 810.5625 465.522460938 810.5625 443.443359375 798.620117188 c 4,34,35
 420.91796875 785.99609375 420.91796875 785.99609375 373.302734375 743.849609375 c 132,-1,36
 325.541015625 701.771484375 325.541015625 701.771484375 298.783203125 694.379882812 c 4,37,38
 271.840820312 688.3515625 271.840820312 688.3515625 239.603515625 701.530273438 c 4,39,40
 207.549804688 716.298828125 207.549804688 716.298828125 188.733398438 743.780273438 c 4,41,42
 171.094726562 773.19140625 171.094726562 773.19140625 175.342773438 807.360351562 c 4,43,44
 181.034179688 843.25390625 181.034179688 843.25390625 217.443359375 880.33984375 c 4,45,46
 255.50390625 918.37890625 255.50390625 918.37890625 329.473632812 964.389648438 c 4,47,48
 403.447265625 1010.05859375 403.447265625 1010.05859375 443.443359375 1024.78027344 c 4,49,50
 482.904296875 1038.95996094 482.904296875 1038.95996094 517.962890625 1049.02050781 c 4,51,0
 553.423828125 1059.04296875 553.423828125 1059.04296875 610.012695312 1070.31054688 c 132,-1,1
549.2734375 615.709960938 m 4,52,53
 578.629882812 626.500976562 578.629882812 626.500976562 590.29296875 627.259765625 c 4,54,55
 601.842773438 627.151367188 601.842773438 627.151367188 623.163085938 618.830078125 c 4,56,57
 645.110351562 609.483398438 645.110351562 609.483398438 667.033203125 585.950195312 c 4,58,59
 688.728515625 560.780273438 688.728515625 560.780273438 688.953125 524.5703125 c 4,60,61
 688.421875 487.30078125 688.421875 487.30078125 671.3828125 461 c 4,62,63
 653.10546875 434.993164062 653.10546875 434.993164062 620.973632812 425.129882812 c 4,64,65
 588.40234375 416 588.40234375 416 566.18359375 420.700195312 c 4,66,67
 544.060546875 426.58203125 544.060546875 426.58203125 517.962890625 452.759765625 c 4,68,69
 494.588867188 476.690429688 494.588867188 476.690429688 492.3125 503.28125 c 4,70,71
 491.692382812 511.639648438 491.692382812 511.639648438 491.663085938 522.030273438 c 4,72,73
 492.0390625 563.938476562 492.0390625 563.938476562 505.43359375 584.440429688 c 4,74,75
 519.840820312 604.205078125 519.840820312 604.205078125 549.2734375 615.709960938 c 4,52,53
121.983398438 536.9296875 m 4,76,77
 147.287109375 556.99609375 147.287109375 556.99609375 176.783203125 557.450195312 c 4,78,79
 206.450195312 557.139648438 206.450195312 557.139648438 226.453125 548.080078125 c 4,80,81
 246.078125 538.063476562 246.078125 538.063476562 262.922851562 515.200195312 c 4,82,83
 279.470703125 491.07421875 279.470703125 491.07421875 286.783203125 439.080078125 c 4,84,85
 294.116210938 386.483398438 294.116210938 386.483398438 313.212890625 338.240234375 c 4,86,87
 332.668945312 290.306640625 332.668945312 290.306640625 359.493164062 256.0703125 c 4,88,89
 386.471679688 222.659179688 386.471679688 222.659179688 412.752929688 206.389648438 c 4,90,91
 439.779296875 190.684570312 439.779296875 190.684570312 504.813476562 177.4296875 c 4,92,93
 570.912109375 164.455078125 570.912109375 164.455078125 614.403320312 171.849609375 c 4,94,95
 657.856445312 179.497070312 657.856445312 179.497070312 684.533203125 187.360351562 c 4,96,97
 711.170898438 195.651367188 711.170898438 195.651367188 750.29296875 219.8203125 c 4,98,99
 788.4765625 243.721679688 788.4765625 243.721679688 794.123046875 250.129882812 c 132,-1,100
 799.751953125 256.708984375 799.751953125 256.708984375 832.502929688 281.709960938 c 4,101,102
 866.130859375 307.813476562 866.130859375 307.813476562 886.462890625 342.620117188 c 4,103,104
 906.35546875 378.001953125 906.35546875 378.001953125 922.252929688 430.310546875 c 4,105,106
 937.962890625 482.143554688 937.962890625 482.143554688 948.5234375 500.459960938 c 4,107,108
 959.860351562 517.973632812 959.860351562 517.973632812 992.712890625 534.41015625 c 4,109,110
 1023.984375 549.622070312 1023.984375 549.622070312 1047.90332031 544.078125 c 4,111,112
 1053.49609375 542.7109375 1053.49609375 542.7109375 1059.33300781 540.990234375 c 4,113,114
 1091.9375 530.624023438 1091.9375 530.624023438 1114.12304688 504.83984375 c 4,115,116
 1135.32519531 478.655273438 1135.32519531 478.655273438 1136.04296875 456.610351562 c 4,117,118
 1135.74023438 434.032226562 1135.74023438 434.032226562 1122.73339844 384.270507812 c 4,119,120
 1109.17675781 333.70703125 1109.17675781 333.70703125 1079.05273438 272.469726562 c 4,121,122
 1048.6171875 211.502929688 1048.6171875 211.502929688 1015.65332031 175.310546875 c 4,123,124
 982.388671875 139.548828125 982.388671875 139.548828125 938.783203125 104.58984375 c 4,125,126
 894.9140625 69.779296875 894.9140625 69.779296875 848.922851562 41.7197265625 c 4,127,128
 802.493164062 13.841796875 802.493164062 13.841796875 734.953125 -8.7294921875 c 4,129,130
 667.060546875 -31.0439453125 667.060546875 -31.0439453125 605.6328125 -36.189453125 c 4,131,132
 543.293945312 -40.8125 543.293945312 -40.8125 460.973632812 -22.3896484375 c 4,133,134
 378.389648438 -3.6767578125 378.389648438 -3.6767578125 347.002929688 12.0498046875 c 4,135,136
 316.084960938 27.9853515625 316.084960938 27.9853515625 281.252929688 50.060546875 c 4,137,138
 246.161132812 72.85546875 246.161132812 72.85546875 210.573242188 115.419921875 c 4,139,140
 175.298828125 158.309570312 175.298828125 158.309570312 157.3828125 189.169921875 c 4,141,142
 139.688476562 220.403320312 139.688476562 220.403320312 116.643554688 281.240234375 c 4,143,144
 93.6611328125 342.658203125 93.6611328125 342.658203125 83.603515625 404 c 4,145,146
 73.890625 464.266601562 73.890625 464.266601562 84.4853515625 488.787109375 c 4,147,148
 85.17578125 490.334960938 85.17578125 490.334960938 85.4228515625 490.889648438 c 4,149,150
 97.6396484375 516.267578125 97.6396484375 516.267578125 121.983398438 536.9296875 c 4,76,77
EndSplineSet
Validated: 524321
EndChar

StartChar: C
Encoding: 67 67 25
Width: 1052
Flags: W
LayerCount: 2
Fore
SplineSet
147.90625 1058.609375 m 0,0,1
 170.080078125 1058.03808594 170.080078125 1058.03808594 198.31640625 1041.109375 c 0,2,3
 224.86328125 1024.79492188 224.86328125 1024.79492188 238.077148438 997.180664062 c 0,4,5
 238.774414062 995.643554688 238.774414062 995.643554688 239.016601562 995.109375 c 0,6,7
 250.192382812 969.024414062 250.192382812 969.024414062 247.973632812 748.193359375 c 0,8,9
 247.5 701.563476562 247.5 701.563476562 246.606445312 637.790039062 c 0,10,11
 242.403320312 338.46875 242.403320312 338.46875 234.14453125 304.708984375 c 0,12,13
 230.919921875 292.883789062 230.919921875 292.883789062 225.626953125 284.849609375 c 0,14,15
 208.625976562 261.126953125 208.625976562 261.126953125 176.396484375 251.1796875 c 0,16,17
 143.513671875 241.61328125 143.513671875 241.61328125 121.606445312 246.739257812 c 0,18,19
 99.546875 252.56640625 99.546875 252.56640625 75.1162109375 276.040039062 c 0,20,21
 53.951171875 296.83984375 53.951171875 296.83984375 47.7314453125 332.79296875 c 0,22,23
 45.296875 347.29296875 45.296875 347.29296875 42.7060546875 370.349609375 c 0,24,25
 34.9326171875 441.465820312 34.9326171875 441.465820312 39.99609375 707.939453125 c 0,26,27
 45.2138671875 974.928710938 45.2138671875 974.928710938 57.06640625 999.489257812 c 0,28,29
 69.6650390625 1023.37207031 69.6650390625 1023.37207031 97.49609375 1041.109375 c 0,30,31
 125.795898438 1058.06054688 125.795898438 1058.06054688 147.90625 1058.609375 c 0,0,1
910.646484375 593.359375 m 0,32,33
 935.526367188 593 935.526367188 593 961.056640625 576.379882812 c 0,34,35
 989.526367188 558 989.526367188 558 1003.60644531 530.370117188 c 0,36,37
 1016.89550781 503.200195312 1016.89550781 503.200195312 1013.19628906 436.506835938 c 0,38,39
 1008.52636719 350 1008.52636719 350 1008.30664062 339.66015625 c 0,40,41
 1008.52636719 320 1008.52636719 320 993.526367188 -90 c 0,42,43
 988.526367188 -223 988.526367188 -223 981.42578125 -263.249023438 c 0,44,45
 980.526367188 -268 980.526367188 -268 979.326171875 -271.975585938 c 0,46,47
 963.526367188 -333 963.526367188 -333 938.40625 -378.10546875 c 0,48,49
 919.526367188 -411 919.526367188 -411 867.729492188 -461.83984375 c 0,50,51
 865.526367188 -464 865.526367188 -464 864.936523438 -464.275390625 c 0,52,53
 816.526367188 -506 816.526367188 -506 753.15625 -535.706054688 c 0,54,55
 685.526367188 -567 685.526367188 -567 630.416015625 -575.635742188 c 0,56,57
 571.526367188 -585 571.526367188 -585 514.24609375 -581.3359375 c 0,58,59
 456.526367188 -577 456.526367188 -577 404.65625 -552.435546875 c 0,60,61
 351.526367188 -527 351.526367188 -527 281.146484375 -456.85546875 c 0,62,63
 218.526367188 -395 218.526367188 -395 183.979492188 -331.928710938 c 0,64,65
 178.526367188 -322 178.526367188 -322 173.486328125 -311.42578125 c 0,66,67
 136.526367188 -235 136.526367188 -235 136.99609375 -212.786132812 c 0,68,69
 137.526367188 -189 137.526367188 -189 152.606445312 -162.67578125 c 0,70,71
 169.526367188 -135 169.526367188 -135 194.24609375 -121.956054688 c 0,72,73
 223.526367188 -107 223.526367188 -107 255.616210938 -112.755859375 c 0,74,75
 292.526367188 -120 292.526367188 -120 303.8359375 -130.755859375 c 0,76,77
 317.526367188 -144 317.526367188 -144 349.255859375 -207.60546875 c 0,78,79
 381.526367188 -272 381.526367188 -272 428.15625 -318.366210938 c 0,80,81
 477.526367188 -366 477.526367188 -366 505.4765625 -374.345703125 c 0,82,83
 536.526367188 -384 536.526367188 -384 575.616210938 -379.286132812 c 0,84,85
 615.526367188 -374 615.526367188 -374 658.90625 -354.916015625 c 0,86,87
 702.526367188 -335 702.526367188 -335 726.965820312 -316.725585938 c 0,88,89
 751.526367188 -298 751.526367188 -298 770.3359375 -254.435546875 c 0,90,91
 792.526367188 -205 792.526367188 -205 789.526367188 -144 c 0,92,93
 788.526367188 -120 788.526367188 -120 789.49609375 -68.080078125 c 0,94,95
 796.526367188 221 796.526367188 221 803.116210938 376.189453125 c 0,96,97
 809.526367188 515 809.526367188 515 818.081054688 536.129882812 c 0,98,99
 822.526367188 546 822.526367188 546 830.456054688 555.049804688 c 0,100,101
 853.526367188 580 853.526367188 580 869.90625 585.919921875 c 0,102,103
 888.526367188 593 888.526367188 593 910.646484375 593.359375 c 0,32,33
527.086914062 523.450195312 m 0,104,105
 543.021484375 523.313476562 543.021484375 523.313476562 573.106445312 510.639648438 c 0,106,107
 603.461914062 496.74609375 603.461914062 496.74609375 618.026367188 468.989257812 c 0,108,109
 631.887695312 439.801757812 631.887695312 439.801757812 626.986328125 405.419921875 c 0,110,111
 621.078125 370.309570312 621.078125 370.309570312 597.416992188 346.049804688 c 0,112,113
 575.408203125 324.041015625 575.408203125 324.041015625 546.77734375 322.288085938 c 0,114,115
 539.569335938 321.91796875 539.569335938 321.91796875 531.466796875 321.9296875 c 0,116,117
 491.94921875 322.110351562 491.94921875 322.110351562 468.412109375 341.536132812 c 0,118,119
 465.264648438 344.202148438 465.264648438 344.202148438 462.9765625 346.229492188 c 0,120,121
 436.372070312 371.193359375 436.372070312 371.193359375 431.216796875 405.419921875 c 0,122,123
 426.807617188 440.844726562 426.807617188 440.844726562 440.526367188 468.989257812 c 0,124,125
 453.21875 494.422851562 453.21875 494.422851562 479.881835938 508.642578125 c 0,126,127
 482.076171875 509.743164062 482.076171875 509.743164062 483.24609375 510.299804688 c 0,128,129
 511.258789062 522.65625 511.258789062 522.65625 527.086914062 523.450195312 c 0,104,105
EndSplineSet
Validated: 524321
EndChar

StartChar: D
Encoding: 68 68 26
Width: 1173
Flags: W
LayerCount: 2
Fore
SplineSet
257.685546875 1059.66992188 m 0,0,1
 374.107421875 1064.54492188 374.107421875 1064.54492188 692.975585938 1066.20996094 c 0,2,3
 982.375976562 1067.71386719 982.375976562 1067.71386719 1015.72558594 1060.75292969 c 0,4,5
 1029.72558594 1057.484375 1029.72558594 1057.484375 1041.46582031 1050.36035156 c 0,6,7
 1069.49121094 1032.44726562 1069.49121094 1032.44726562 1084.125 1004.36035156 c 0,8,9
 1097.98339844 974.666015625 1097.98339844 974.666015625 1091.83496094 927.639648438 c 0,10,11
 1084.59375 878.381835938 1084.59375 878.381835938 1041.56542969 809.259765625 c 0,12,13
 997.479492188 738.885742188 997.479492188 738.885742188 926.145507812 647.040039062 c 0,14,15
 855.4140625 556.075195312 855.4140625 556.075195312 841.6953125 536.259765625 c 0,16,17
 828.185546875 516.643554688 828.185546875 516.643554688 774.065429688 442 c 0,18,19
 719.6015625 366.649414062 719.6015625 366.649414062 689.60546875 302.879882812 c 0,20,21
 659.935546875 238.983398438 659.935546875 238.983398438 632.905273438 156 c 0,22,23
 606.115234375 73.341796875 606.115234375 73.341796875 596.815429688 35.4296875 c 0,24,25
 587.424804688 -1.5146484375 587.424804688 -1.5146484375 566.60546875 -25.9501953125 c 0,26,27
 548.477539062 -46.6103515625 548.477539062 -46.6103515625 524.65234375 -49.0556640625 c 0,28,29
 513.9140625 -50.033203125 513.9140625 -50.033203125 496.665039062 -50.0595703125 c 0,30,31
 452.913085938 -50.0595703125 452.913085938 -50.0595703125 435.442382812 -36.4619140625 c 0,32,33
 429.625 -31.7021484375 429.625 -31.7021484375 423.584960938 -25.7294921875 c 0,34,35
 402.71875 -4.8447265625 402.71875 -4.8447265625 400.393554688 20.224609375 c 0,36,37
 399.484375 31.2958984375 399.484375 31.2958984375 399.555664062 48.8095703125 c 0,38,39
 400.095703125 99.0654296875 400.095703125 99.0654296875 415.645507812 151.620117188 c 0,40,41
 431.65234375 204.740234375 431.65234375 204.740234375 457.765625 278.759765625 c 0,42,43
 484.28125 353.477539062 484.28125 353.477539062 508.865234375 401.520507812 c 1,44,-1
 454.065429688 401.599609375 l 2,45,46
 398.734375 401.826171875 398.734375 401.826171875 298.4453125 414.450195312 c 0,47,48
 208.426757812 425.854492188 208.426757812 425.854492188 188.610351562 438.703125 c 0,49,50
 180.946289062 444.020507812 180.946289062 444.020507812 173.215820312 451.639648438 c 0,51,52
 149.103515625 476.75390625 149.103515625 476.75390625 144.385742188 511.129882812 c 0,53,54
 140.40234375 545.971679688 140.40234375 545.971679688 151.255859375 567.740234375 c 0,55,56
 163.34375 589.291015625 163.34375 589.291015625 193.245117188 610.08984375 c 0,57,58
 221.693359375 629.39453125 221.693359375 629.39453125 248.048828125 626.391601562 c 0,59,60
 253.526367188 625.704101562 253.526367188 625.704101562 258.995117188 624.770507812 c 0,61,62
 295.237304688 618.58984375 295.237304688 618.58984375 460.645507812 608.0703125 c 0,63,64
 625.697265625 597.6328125 625.697265625 597.6328125 633.794921875 600.349609375 c 0,65,66
 641.40234375 604.754882812 641.40234375 604.754882812 701.6953125 688.690429688 c 0,67,68
 764.005859375 775.493164062 764.005859375 775.493164062 824.475585938 857.490234375 c 1,69,-1
 491.325195312 857.490234375 l 2,70,71
 186.55078125 857.490234375 186.55078125 857.490234375 151.301757812 865.502929688 c 0,72,73
 140.012695312 868.3515625 140.012695312 868.3515625 132.185546875 872.830078125 c 0,74,75
 106.669921875 888.563476562 106.669921875 888.563476562 92.7353515625 912.290039062 c 0,76,77
 79.783203125 936.157226562 79.783203125 936.157226562 79.275390625 953.940429688 c 0,78,79
 79.7578125 971.783203125 79.7578125 971.783203125 91.505859375 995.58984375 c 0,80,81
 104.0625 1019.50585938 104.0625 1019.50585938 123.075195312 1037.24023438 c 0,82,83
 139.599609375 1052.23730469 139.599609375 1052.23730469 194.010742188 1056.27441406 c 0,84,85
 216.883789062 1057.93164062 216.883789062 1057.93164062 257.685546875 1059.66992188 c 0,0,1
EndSplineSet
Validated: 524321
EndChar

StartChar: E
Encoding: 69 69 27
Width: 1268
Flags: W
LayerCount: 2
Fore
SplineSet
816.995117188 1119.62988281 m 0,0,1
 879.3984375 1135.5625 879.3984375 1135.5625 970.415039062 1132.91015625 c 0,2,3
 1062.61230469 1129.82617188 1062.61230469 1129.82617188 1093.15527344 1113 c 0,4,5
 1123.60644531 1095.11621094 1123.60644531 1095.11621094 1140.40527344 1061.01953125 c 0,6,7
 1155.65820312 1028.93652344 1155.65820312 1028.93652344 1150.33398438 1005.65234375 c 0,8,9
 1148.89746094 999.720703125 1148.89746094 999.720703125 1146.97558594 993.309570312 c 0,10,11
 1135.71484375 959.903320312 1135.71484375 959.903320312 1096.79492188 929.739257812 c 1,12,-1
 1099.67578125 587.759765625 l 2,13,14
 1102.56933594 247.091796875 1102.56933594 247.091796875 1111.515625 206.330078125 c 0,15,16
 1120.76171875 167.022460938 1120.76171875 167.022460938 1141.88574219 133.989257812 c 0,17,18
 1162.94335938 100.657226562 1162.94335938 100.657226562 1163.29492188 66.029296875 c 0,19,20
 1162.796875 31.0185546875 1162.796875 31.0185546875 1145.75585938 4.6494140625 c 0,21,22
 1127.47265625 -21.3486328125 1127.47265625 -21.3486328125 1095.34570312 -31.2099609375 c 0,23,24
 1062.78417969 -40.34765625 1062.78417969 -40.34765625 1040.55566406 -35.91015625 c 0,25,26
 1018.39550781 -30.181640625 1018.39550781 -30.181640625 990.145507812 -0.0400390625 c 0,27,28
 961.7890625 31.2939453125 961.7890625 31.2939453125 940.015625 76.9892578125 c 0,29,30
 918.590820312 123.076171875 918.590820312 123.076171875 909.235351562 171.259765625 c 0,31,32
 900.166992188 220.391601562 900.166992188 220.391601562 900.1953125 412.389648438 c 0,33,34
 900.24609375 606.497070312 900.24609375 606.497070312 887.125 926.729492188 c 1,35,-1
 860.825195312 921.389648438 l 2,36,37
 834.306640625 915.743164062 834.306640625 915.743164062 803.845703125 900.969726562 c 0,38,39
 772.633789062 884.375 772.633789062 884.375 746.315429688 833.279296875 c 0,40,41
 719.39453125 780.3046875 719.39453125 780.3046875 683.485351562 688.599609375 c 0,42,43
 647.495117188 596.001953125 647.495117188 596.001953125 620.595703125 465 c 0,44,45
 593.672851562 333.65234375 593.672851562 333.65234375 565.155273438 228.25 c 0,46,47
 536.420898438 123.086914062 536.420898438 123.086914062 504.834960938 70.419921875 c 0,48,49
 474.731445312 20.6064453125 474.731445312 20.6064453125 430.536132812 -17.341796875 c 0,50,51
 428.77734375 -18.828125 428.77734375 -18.828125 428.025390625 -19.4599609375 c 0,52,53
 382.487304688 -56.4140625 382.487304688 -56.4140625 352.334960938 -56.73046875 c 0,54,55
 321.8203125 -56.3232421875 321.8203125 -56.3232421875 297.53515625 -43.16015625 c 0,56,57
 273.387695312 -28.7783203125 273.387695312 -28.7783203125 249.315429688 9.4501953125 c 0,58,59
 225.405273438 48.68359375 225.405273438 48.68359375 211.505859375 98.919921875 c 0,60,61
 197.734375 149.830078125 197.734375 149.830078125 180.955078125 232.639648438 c 0,62,63
 164.174804688 315.962890625 164.174804688 315.962890625 154.665039062 403.620117188 c 0,64,65
 145.318359375 490.193359375 145.318359375 490.193359375 141.315429688 508.849609375 c 128,-1,66
 137.2890625 527.383789062 137.2890625 527.383789062 123.965820312 627.219726562 c 0,67,68
 110.612304688 728.166992188 110.612304688 728.166992188 105.9453125 842.049804688 c 0,69,70
 101.525390625 955.997070312 101.525390625 955.997070312 112.865234375 999.580078125 c 0,71,72
 123.821289062 1040.94824219 123.821289062 1040.94824219 149.765625 1059.73242188 c 0,73,74
 152.83203125 1061.89257812 152.83203125 1061.89257812 155.075195312 1063.39941406 c 0,75,76
 185.598632812 1083.08789062 185.598632812 1083.08789062 209.865234375 1083.4296875 c 0,77,78
 234.067382812 1082.77246094 234.067382812 1082.77246094 260.275390625 1070.04003906 c 0,79,80
 285.939453125 1056.56054688 285.939453125 1056.56054688 297.28515625 1037.14941406 c 0,81,82
 307.911132812 1015.89648438 307.911132812 1015.89648438 309.10546875 885.899414062 c 0,83,84
 310.397460938 753.63671875 310.397460938 753.63671875 332.915039062 605.299804688 c 128,-1,85
 355.49609375 456.8515625 355.49609375 456.8515625 362.735351562 396.049804688 c 0,86,87
 369.852539062 337.301757812 369.852539062 337.301757812 376.4453125 332.479492188 c 0,88,89
 378.908203125 331.2109375 378.908203125 331.2109375 382.805664062 338.4375 c 0,90,91
 387.586914062 347.961914062 387.586914062 347.961914062 391.185546875 361.969726562 c 0,92,93
 399.432617188 395.506835938 399.432617188 395.506835938 413.67578125 473.76953125 c 0,94,95
 428.024414062 552.489257812 428.024414062 552.489257812 444.165039062 614.069335938 c 0,96,97
 460.115234375 674.514648438 460.115234375 674.514648438 466.495117188 692.989257812 c 0,98,99
 473.178710938 711.767578125 473.178710938 711.767578125 517.315429688 820.129882812 c 0,100,101
 561.787109375 929.038085938 561.787109375 929.038085938 590.845703125 975.76953125 c 0,102,103
 620.193359375 1021.1015625 620.193359375 1021.1015625 656.995117188 1049.16015625 c 0,104,105
 694.120117188 1076.19335938 694.120117188 1076.19335938 724.935546875 1090.04980469 c 0,106,107
 756.297851562 1103.67480469 756.297851562 1103.67480469 816.995117188 1119.62988281 c 0,0,1
EndSplineSet
Validated: 524321
EndChar

StartChar: F
Encoding: 70 70 28
Width: 1214
Flags: W
LayerCount: 2
Fore
SplineSet
693.436523438 1546.62011719 m 0,0,1
 722.482421875 1546.30664062 722.482421875 1546.30664062 742.506835938 1537.25 c 0,2,3
 762.176757812 1527.24511719 762.176757812 1527.24511719 779.766601562 1504.37011719 c 0,4,5
 794.28515625 1484.89648438 794.28515625 1484.89648438 794.817382812 1447.94433594 c 0,6,7
 795.0546875 1426.31640625 795.0546875 1426.31640625 792.9765625 1375.62988281 c 0,8,9
 788.666992188 1269.28320312 788.666992188 1269.28320312 788.536132812 1051.19042969 c 1,10,-1
 810.456054688 1048.41015625 l 2,11,12
 833.250976562 1045.38183594 833.250976562 1045.38183594 920.046875 1024.33984375 c 128,-1,13
 1006.75097656 1003.12109375 1006.75097656 1003.12109375 1029.63671875 986.870117188 c 0,14,15
 1051.26367188 970.079101562 1051.26367188 970.079101562 1063.96679688 936.41015625 c 0,16,17
 1074.984375 905.978515625 1074.984375 905.978515625 1068.5 887.5703125 c 0,18,19
 1065.49804688 879.473632812 1065.49804688 879.473632812 1059.57617188 867.05078125 c 0,20,21
 1041.66601562 831.896484375 1041.66601562 831.896484375 1007.71679688 815.48046875 c 0,22,23
 979.205078125 802.072265625 979.205078125 802.072265625 959.705078125 804.575195312 c 0,24,25
 943.393554688 806.8828125 943.393554688 806.8828125 887.166015625 822.060546875 c 0,26,27
 802.87890625 844.752929688 802.87890625 844.752929688 788.536132812 845.129882812 c 0,28,29
 778.368164062 845.129882812 778.368164062 845.129882812 776.697265625 762.670898438 c 0,30,31
 775.64453125 709.21875 775.64453125 709.21875 775.896484375 571.110351562 c 0,32,33
 776.416015625 298.385742188 776.416015625 298.385742188 782.466796875 262.760742188 c 0,34,35
 788.666992188 229.713867188 788.666992188 229.713867188 797.306640625 225.169921875 c 0,36,37
 807.377929688 223.360351562 807.377929688 223.360351562 880.596679688 291 c 0,38,39
 954.182617188 359.076171875 954.182617188 359.076171875 974.836914062 370.240234375 c 0,40,41
 994.7109375 380.016601562 994.7109375 380.016601562 1016.48632812 380.400390625 c 0,42,43
 1038.58398438 379.952148438 1038.58398438 379.952148438 1064.70605469 367.240234375 c 0,44,45
 1088.89648438 355.145507812 1088.89648438 355.145507812 1102.9765625 330.00390625 c 0,46,47
 1103.83496094 328.389648438 1103.83496094 328.389648438 1104.15625 327.780273438 c 0,48,49
 1116.875 301.596679688 1116.875 301.596679688 1117.30664062 279.560546875 c 0,50,51
 1116.87695312 257.548828125 1116.87695312 257.548828125 1105.25683594 233.520507812 c 0,52,53
 1092.16601562 208.669921875 1092.16601562 208.669921875 1028.02636719 148.030273438 c 0,54,55
 963.07421875 87.044921875 963.07421875 87.044921875 915.146484375 55.220703125 c 0,56,57
 867.663085938 24.1259765625 867.663085938 24.1259765625 830.186523438 9.1806640625 c 0,58,59
 792.745117188 -5.1337890625 792.745117188 -5.1337890625 746.896484375 -5.609375 c 0,60,61
 700.79296875 -6.3759765625 700.79296875 -6.3759765625 683.336914062 -23.0400390625 c 0,62,63
 664.743164062 -40.2099609375 664.743164062 -40.2099609375 611.006835938 -49.16015625 c 0,64,65
 556.079101562 -57.7548828125 556.079101562 -57.7548828125 518.946289062 -49.8095703125 c 0,66,67
 481.3125 -41.37109375 481.3125 -41.37109375 424.706054688 -21.1396484375 c 0,68,69
 367.802734375 -0.3994140625 367.802734375 -0.3994140625 315.116210938 39.490234375 c 0,70,71
 262.819335938 79.814453125 262.819335938 79.814453125 226.846679688 127 c 0,72,73
 191.514648438 174.096679688 191.514648438 174.096679688 172.206054688 209.41015625 c 0,74,75
 153.166992188 244.794921875 153.166992188 244.794921875 134.796875 288.330078125 c 0,76,77
 116.4765625 332.411132812 116.4765625 332.411132812 103.956054688 395.740234375 c 0,78,79
 91.7548828125 458.250976562 91.7548828125 458.250976562 100.053710938 550.810546875 c 0,80,81
 100.416015625 554.821289062 100.416015625 554.821289062 100.706054688 557.959960938 c 0,82,83
 109.916015625 656.125976562 109.916015625 656.125976562 122.99609375 709.220703125 c 0,84,85
 136.279296875 761.767578125 136.279296875 761.767578125 158.436523438 810.060546875 c 0,86,87
 180.661132812 857.73046875 180.661132812 857.73046875 198.106445312 880.200195312 c 0,88,89
 215.950195312 902.518554688 215.950195312 902.518554688 252.13671875 940.490234375 c 0,90,91
 289.02734375 978.668945312 289.02734375 978.668945312 337.026367188 1007.06054688 c 0,92,93
 385.3671875 1035.0546875 385.3671875 1035.0546875 435.65625 1049.80078125 c 0,94,95
 485.665039062 1064.05859375 485.665039062 1064.05859375 514.56640625 1064.45996094 c 0,96,97
 542.731445312 1064.75097656 542.731445312 1064.75097656 560.596679688 1069.27050781 c 0,98,99
 572.176757812 1072.36621094 572.176757812 1072.36621094 575.6484375 1094.34082031 c 0,100,101
 579.80078125 1121.96679688 579.80078125 1121.96679688 584.706054688 1262.06054688 c 0,102,103
 591.34765625 1449.44726562 591.34765625 1449.44726562 602.875976562 1478.66015625 c 0,104,105
 614.953125 1506.91503906 614.953125 1506.91503906 639.286132812 1526.890625 c 0,106,107
 664.088867188 1546.62011719 664.088867188 1546.62011719 693.436523438 1546.62011719 c 0,0,1
443.88671875 833.169921875 m 0,108,109
 406.399414062 814.095703125 406.399414062 814.095703125 381.756835938 783.75 c 0,110,111
 357.779296875 753.290039062 357.779296875 753.290039062 345.956054688 731.140625 c 0,112,113
 334.467773438 708.708007812 334.467773438 708.708007812 322.426757812 669.760742188 c 0,114,115
 310.423828125 629.561523438 310.423828125 629.561523438 304.966796875 529.459960938 c 0,116,117
 300.221679688 440.751953125 300.221679688 440.751953125 308.338867188 410.913085938 c 0,118,119
 312.620117188 395.739257812 312.620117188 395.739257812 323.896484375 367.240234375 c 0,120,121
 348.276367188 306.250976562 348.276367188 306.250976562 376.596679688 266.400390625 c 0,122,123
 405.057617188 227.327148438 405.057617188 227.327148438 434.56640625 204.41015625 c 0,124,125
 464.341796875 182.055664062 464.341796875 182.055664062 501.416015625 167.140625 c 128,-1,126
 538.677734375 152.409179688 538.677734375 152.409179688 567.166015625 152.5 c 2,127,-1
 595.65625 152.58984375 l 1,128,129
 574.474609375 280.700195312 574.474609375 280.700195312 574.086914062 571.110351562 c 2,130,-1
 573.74609375 862.669921875 l 1,131,132
 508.387695312 861.192382812 508.387695312 861.192382812 494.836914062 856.58984375 c 0,133,134
 480.879882812 851.442382812 480.879882812 851.442382812 443.88671875 833.169921875 c 0,108,109
EndSplineSet
Validated: 524321
EndChar

StartChar: G
Encoding: 71 71 29
Width: 1256
Flags: W
LayerCount: 2
Fore
SplineSet
721.26953125 1142.49023438 m 0,0,1
 766.393554688 1163.34082031 766.393554688 1163.34082031 780.439453125 1164.52050781 c 0,2,3
 794.7265625 1164.64257812 794.7265625 1164.64257812 859.349609375 1142.77050781 c 0,4,5
 925.071289062 1120.20800781 925.071289062 1120.20800781 986.469726562 1082.15039062 c 0,6,7
 1047.53808594 1043.79589844 1047.53808594 1043.79589844 1087.98925781 1001.37011719 c 0,8,9
 1127.59863281 959.115234375 1127.59863281 959.115234375 1143.96972656 928.16015625 c 0,10,11
 1159.71777344 897.18359375 1159.71777344 897.18359375 1171.76953125 851.440429688 c 0,12,13
 1183.55859375 805.09375 1183.55859375 805.09375 1183.70996094 737.450195312 c 0,14,15
 1183.56445312 669.25390625 1183.56445312 669.25390625 1174.04980469 590.5703125 c 0,16,17
 1164.29492188 511.765625 1164.29492188 511.765625 1142.36914062 441.509765625 c 0,18,19
 1120.24707031 371.658203125 1120.24707031 371.658203125 1093.65917969 323.129882812 c 0,20,21
 1066.96386719 274.95703125 1066.96386719 274.95703125 1047.75976562 244.219726562 c 0,22,23
 1027.828125 213.139648438 1027.828125 213.139648438 976.6796875 165.299804688 c 0,24,25
 925.077148438 117.474609375 925.077148438 117.474609375 885.509765625 90.2001953125 c 0,26,27
 845.970703125 63.357421875 845.970703125 63.357421875 789.209960938 36.3603515625 c 0,28,29
 732.221679688 9.5810546875 732.221679688 9.5810546875 675.239257812 -4.6201171875 c 0,30,31
 617.8359375 -18.59375 617.8359375 -18.59375 521.809570312 -28.509765625 c 0,32,33
 425.518554688 -38.2275390625 425.518554688 -38.2275390625 355.239257812 -33.2001953125 c 0,34,35
 285.688476562 -27.9404296875 285.688476562 -27.9404296875 254.419921875 -18.349609375 c 0,36,37
 223.334960938 -8.3564453125 223.334960938 -8.3564453125 176.359375 14.740234375 c 0,38,39
 129.456054688 38.2900390625 129.456054688 38.2900390625 104.029296875 66.650390625 c 0,40,41
 79.6298828125 95.1787109375 79.6298828125 95.1787109375 74.2392578125 123.650390625 c 0,42,43
 69.451171875 153.548828125 69.451171875 153.548828125 76.4296875 596.240234375 c 0,44,45
 82.787109375 997.845703125 82.787109375 997.845703125 90.2216796875 1035.87207031 c 0,46,47
 93.7578125 1051.68554688 93.7578125 1051.68554688 100.989257812 1059.99023438 c 0,48,49
 118.955078125 1079.43847656 118.955078125 1079.43847656 146.209960938 1092.08984375 c 0,50,51
 173.84765625 1104.00878906 173.84765625 1104.00878906 198.809570312 1099.91015625 c 0,52,53
 239.575195312 1092.328125 239.575195312 1092.328125 255.67578125 1076.38085938 c 0,54,55
 275.448242188 1055.39648438 275.448242188 1055.39648438 276.369140625 1020.99023438 c 2,56,-1
 276.329101562 188.520507812 l 1,57,-1
 302.639648438 180.41015625 l 2,58,59
 329.926757812 172.419921875 329.926757812 172.419921875 429.759765625 172.73046875 c 0,60,61
 530.375976562 173.2890625 530.375976562 173.2890625 600.719726562 187.629882812 c 0,62,63
 670.216796875 202.142578125 670.216796875 202.142578125 701.540039062 218.870117188 c 0,64,65
 731.870117188 235.481445312 731.870117188 235.481445312 749.719726562 246.5 c 0,66,67
 767.86328125 257.904296875 767.86328125 257.904296875 802.329101562 283.540039062 c 128,-1,68
 836.6171875 309.271484375 836.6171875 309.271484375 848.83984375 323 c 0,69,70
 860.791015625 337.237304688 860.791015625 337.237304688 891.9296875 384.509765625 c 0,71,72
 923.4765625 433.002929688 923.4765625 433.002929688 944.359375 494.120117188 c 0,73,74
 964.966796875 555.763671875 964.966796875 555.763671875 974.239257812 643.190429688 c 0,75,76
 983.196289062 730.375 983.196289062 730.375 978.349609375 776.91015625 c 0,77,78
 973.745117188 819.07421875 973.745117188 819.07421875 950.912109375 846.877929688 c 0,79,80
 945.845703125 852.930664062 945.845703125 852.930664062 940.439453125 858.879882812 c 0,81,82
 907.265625 894.671875 907.265625 894.671875 860.939453125 922.450195312 c 0,83,84
 817.409179688 948.247070312 817.409179688 948.247070312 807.201171875 941.45703125 c 0,85,86
 805.07421875 939.676757812 805.07421875 939.676757812 803.94921875 938.580078125 c 0,87,88
 793.66015625 925.791992188 793.66015625 925.791992188 787.76953125 842.129882812 c 0,89,90
 782.776367188 769.209960938 782.776367188 769.209960938 773.806640625 753.922851562 c 0,91,92
 767.369140625 743.993164062 767.369140625 743.993164062 750.509765625 728.6796875 c 0,93,94
 714.568359375 701.385742188 714.568359375 701.385742188 684.009765625 700.1796875 c 0,95,96
 650.870117188 700.1796875 650.870117188 700.1796875 625.456054688 722.862304688 c 0,97,98
 621.92578125 726.07421875 621.92578125 726.07421875 619.1796875 728.6796875 c 0,99,100
 590.065429688 757.14453125 590.065429688 757.14453125 582.609375 783.48046875 c 0,101,102
 576.061523438 810.662109375 576.061523438 810.662109375 585.919921875 888.709960938 c 0,103,104
 596.107421875 967.088867188 596.107421875 967.088867188 611.649414062 1007.08007812 c 0,105,106
 627.4140625 1046.44824219 627.4140625 1046.44824219 651.25 1083.81054688 c 0,107,108
 676.333007812 1121.27539062 676.333007812 1121.27539062 721.26953125 1142.49023438 c 0,0,1
EndSplineSet
Validated: 524321
EndChar

StartChar: H
Encoding: 72 72 30
Width: 1364
Flags: W
LayerCount: 2
Fore
SplineSet
791.458984375 1144.20019531 m 0,0,1
 922.595703125 1149.86035156 922.595703125 1149.86035156 1015.01953125 1147.20996094 c 0,2,3
 1106.01660156 1144.48828125 1106.01660156 1144.48828125 1124.609375 1141.13964844 c 0,4,5
 1142.265625 1137.20117188 1142.265625 1137.20117188 1161.06933594 1121.91992188 c 0,6,7
 1179.67675781 1105.625 1179.67675781 1105.625 1190.14941406 1079.75 c 0,8,9
 1199.859375 1053.43066406 1199.859375 1053.43066406 1195.61914062 1027.13964844 c 0,10,11
 1190.51855469 1001.08691406 1190.51855469 1001.08691406 1175.29882812 982.479492188 c 0,12,13
 1159.45800781 964.477539062 1159.45800781 964.477539062 1139.94921875 953.990234375 c 0,14,15
 1118.77441406 943.918945312 1118.77441406 943.918945312 990.909179688 943.870117188 c 0,16,17
 860.716796875 943.8359375 860.716796875 943.8359375 554.749023438 930.059570312 c 0,18,19
 249.188476562 916.319335938 249.188476562 916.319335938 217.208984375 922.26953125 c 0,20,21
 186.67578125 928.913085938 186.67578125 928.913085938 162.418945312 953.620117188 c 0,22,23
 140.439453125 976.669921875 140.439453125 976.669921875 138.686523438 1007.28710938 c 0,24,25
 138.331054688 1014.58691406 138.331054688 1014.58691406 138.309570312 1022.75976562 c 0,26,27
 138.309570312 1062.05761719 138.309570312 1062.05761719 153.365234375 1080.66015625 c 0,28,29
 158.389648438 1086.62109375 158.389648438 1086.62109375 164.609375 1092.91015625 c 0,30,31
 191.063476562 1118.61425781 191.063476562 1118.61425781 219.409179688 1123.20996094 c 0,32,33
 249.25390625 1127.23632812 249.25390625 1127.23632812 453.928710938 1132.83984375 c 0,34,35
 659.803710938 1138.48242188 659.803710938 1138.48242188 791.458984375 1144.20019531 c 0,0,1
492.088867188 672.759765625 m 0,36,37
 512.223632812 679.612304688 512.223632812 679.612304688 679.678710938 680.229492188 c 0,38,39
 848.205078125 680.47265625 848.205078125 680.47265625 879.12890625 667.629882812 c 0,40,41
 909.474609375 653.741210938 909.474609375 653.741210938 924.048828125 625.979492188 c 0,42,43
 937.904296875 596.801757812 937.904296875 596.801757812 933.119140625 562.41015625 c 0,44,45
 926.598632812 526.321289062 926.598632812 526.321289062 879.12890625 478.9296875 c 1,46,-1
 690.638671875 477.099609375 l 2,47,48
 516.65625 475.4140625 516.65625 475.4140625 490.62890625 484.322265625 c 0,49,50
 483.610351562 486.970703125 483.610351562 486.970703125 478.0390625 490.33984375 c 0,51,52
 454.268554688 505.940429688 454.268554688 505.940429688 439.729492188 533.91015625 c 0,53,54
 425.954101562 562.966796875 425.954101562 562.966796875 431.01953125 593.099609375 c 0,55,56
 436.924804688 623.513671875 436.924804688 623.513671875 454.888671875 644.819335938 c 0,57,58
 473.34375 665.27734375 473.34375 665.27734375 492.088867188 672.759765625 c 0,36,37
482.418945312 214.620117188 m 0,59,60
 704.166992188 221.920898438 704.166992188 221.920898438 925.159179688 219 c 0,61,62
 1142.06054688 216.107421875 1142.06054688 216.107421875 1170.4375 204.00390625 c 0,63,64
 1172.13574219 203.223632812 1172.13574219 203.223632812 1172.82910156 202.899414062 c 0,65,66
 1198.65234375 189.43359375 1198.65234375 189.43359375 1212.34863281 170.009765625 c 0,67,68
 1225.20996094 149.725585938 1225.20996094 149.725585938 1225.68945312 110.830078125 c 0,69,70
 1225.85742188 49.837890625 1225.85742188 49.837890625 1174.1640625 29.1474609375 c 0,71,72
 1159.24121094 23.5166015625 1159.24121094 23.5166015625 1142.17871094 21.7001953125 c 0,73,74
 1115.90332031 19.11328125 1115.90332031 19.11328125 1025.34375 16.9931640625 c 128,-1,75
 934.784179688 14.873046875 934.784179688 14.873046875 857.361328125 14.046875 c 2,76,-1
 779.939453125 13.2197265625 l 2,77,78
 389.38671875 7.6884765625 389.38671875 7.6884765625 322.418945312 1.0498046875 c 0,79,80
 256.120117188 -4.8427734375 256.120117188 -4.8427734375 230.359375 7.859375 c 0,81,82
 204.423828125 21.4609375 204.423828125 21.4609375 188.598632812 37.5693359375 c 0,83,84
 173.462890625 54.435546875 173.462890625 54.435546875 168.409179688 88.8994140625 c 0,85,86
 164.372070312 124.606445312 164.372070312 124.606445312 181.678710938 152.479492188 c 0,87,88
 198.50390625 179.110351562 198.50390625 179.110351562 228.255859375 193.180664062 c 0,89,90
 229.809570312 193.881835938 229.809570312 193.881835938 230.359375 194.129882812 c 0,91,92
 262.939453125 207.313476562 262.939453125 207.313476562 482.418945312 214.620117188 c 0,59,60
EndSplineSet
Validated: 524321
EndChar

StartChar: I
Encoding: 73 73 31
Width: 794
Flags: W
LayerCount: 2
Fore
SplineSet
415.709960938 1152.71972656 m 0,0,1
 519.887695312 1193.97460938 519.887695312 1193.97460938 542.830078125 1195.33007812 c 0,2,3
 564.786132812 1195.57421875 564.786132812 1195.57421875 586.669921875 1181.18945312 c 0,4,5
 608.208984375 1166.05859375 608.208984375 1166.05859375 621.740234375 1148.23925781 c 0,6,7
 634.81640625 1129.82910156 634.81640625 1129.82910156 645.629882812 1099.58007812 c 0,8,9
 656.349609375 1068.25 656.349609375 1068.25 665.349609375 1005.30957031 c 0,10,11
 674.250976562 941.250976562 674.250976562 941.250976562 674.259765625 825.559570312 c 0,12,13
 674.127929688 709.509765625 674.127929688 709.509765625 665.629882812 591 c 0,14,15
 657.16796875 472.055664062 657.16796875 472.055664062 665.459960938 327.939453125 c 0,16,17
 667.313476562 295.953125 667.313476562 295.953125 668.396484375 260.622070312 c 0,18,19
 670.2421875 202.327148438 670.2421875 202.327148438 675.629882812 118.359375 c 0,20,21
 678.116210938 76.044921875 678.116210938 76.044921875 677.104492188 47.7744140625 c 128,-1,22
 676.091796875 19.5048828125 676.091796875 19.5048828125 672.654296875 3.2861328125 c 128,-1,23
 669.215820312 -12.9326171875 669.215820312 -12.9326171875 665.495117188 -21.087890625 c 128,-1,24
 661.774414062 -29.2421875 661.774414062 -29.2421875 658.841796875 -31.326171875 c 2,25,-1
 655.91015625 -33.41015625 l 1,26,27
 628.905273438 -62.9013671875 628.905273438 -62.9013671875 604.936523438 -65.634765625 c 0,28,29
 599.12890625 -66.1884765625 599.12890625 -66.1884765625 593.240234375 -66.2900390625 c 0,30,31
 560.543945312 -66.21484375 560.543945312 -66.21484375 534.370117188 -51.2998046875 c 0,32,33
 508.921875 -35.6416015625 508.921875 -35.6416015625 496.080078125 -14.0302734375 c 0,34,35
 483.767578125 9.2236328125 483.767578125 9.2236328125 472.8203125 143.799804688 c 0,36,37
 461.920898438 279.67578125 461.920898438 279.67578125 460.700195312 424.399414062 c 128,-1,38
 459.5859375 569.094726562 459.5859375 569.094726562 468.309570312 759.819335938 c 128,-1,39
 477.084960938 950.559570312 477.084960938 950.559570312 468.309570312 950.75 c 0,40,41
 458.581054688 950.420898438 458.581054688 950.420898438 424.469726562 937.059570312 c 0,42,43
 388.723632812 922.803710938 388.723632812 922.803710938 317.080078125 888.609375 c 0,44,45
 245.484375 854.623046875 245.484375 854.623046875 218.450195312 854.059570312 c 0,46,47
 192.102539062 854.538085938 192.102539062 854.538085938 165.690429688 869.399414062 c 0,48,49
 141.143554688 883.638671875 141.143554688 883.638671875 127.283203125 911.0703125 c 0,50,51
 126.51953125 912.657226562 126.51953125 912.657226562 126.240234375 913.239257812 c 0,52,53
 113.763671875 941.640625 113.763671875 941.640625 117.440429688 965.859375 c 0,54,55
 122.125 990.012695312 122.125 990.012695312 139.360351562 1014.08007812 c 0,56,57
 158.224609375 1038.51367188 158.224609375 1038.51367188 233.790039062 1074.56933594 c 0,58,59
 310.614257812 1110.93359375 310.614257812 1110.93359375 415.709960938 1152.71972656 c 0,0,1
EndSplineSet
Validated: 524321
EndChar

StartChar: J
Encoding: 74 74 32
Width: 1250
Flags: W
LayerCount: 2
Fore
SplineSet
890.911132812 1035.83984375 m 0,0,1
 1008.14257812 1048.14550781 1008.14257812 1048.14550781 1031.18066406 1049.43945312 c 0,2,3
 1053.33496094 1049.99511719 1053.33496094 1049.99511719 1081.59082031 1033.08984375 c 0,4,5
 1110.05957031 1014.67675781 1110.05957031 1014.67675781 1128.52050781 973.939453125 c 0,6,7
 1146.8671875 931.856445312 1146.8671875 931.856445312 1160.18066406 857.759765625 c 0,8,9
 1173.32519531 781.833007812 1173.32519531 781.833007812 1168.9609375 621 c 0,10,11
 1164.35058594 458.477539062 1164.35058594 458.477539062 1146.05078125 388.639648438 c 0,12,13
 1127.62402344 319.09765625 1127.62402344 319.09765625 1112.31054688 287.799804688 c 0,14,15
 1096.71875 256.728515625 1096.71875 256.728515625 1066.75097656 208.879882812 c 128,-1,16
 1036.66015625 161.116210938 1036.66015625 161.116210938 1015.31054688 134.349609375 c 0,17,18
 993.595703125 107.794921875 993.595703125 107.794921875 949.110351562 70.58984375 c 0,19,20
 904.22265625 33.537109375 904.22265625 33.537109375 868.991210938 15.9697265625 c 0,21,22
 833.646484375 -1.1279296875 833.646484375 -1.1279296875 785.701171875 -13.810546875 c 0,23,24
 737.02734375 -26.3984375 737.02734375 -26.3984375 649.810546875 -37.150390625 c 0,25,26
 568.948242188 -47.046875 568.948242188 -47.046875 509.288085938 -38.650390625 c 0,27,28
 494.271484375 -36.5068359375 494.271484375 -36.5068359375 474.470703125 -33.2001953125 c 0,29,30
 386.823242188 -18.3037109375 386.823242188 -18.3037109375 325.430664062 9.5595703125 c 0,31,32
 264.677734375 37.4345703125 264.677734375 37.4345703125 233.37109375 57.69921875 c 0,33,34
 202.583007812 78.2470703125 202.583007812 78.2470703125 169.701171875 114.829101562 c 0,35,36
 137.3984375 151.633789062 137.3984375 151.633789062 131.520507812 178.189453125 c 0,37,38
 126.904296875 204.861328125 126.904296875 204.861328125 140.400390625 232.989257812 c 0,39,40
 154.846679688 261.155273438 154.846679688 261.155273438 178.581054688 279.329101562 c 0,41,42
 202.869140625 296.629882812 202.869140625 296.629882812 231.180664062 296.869140625 c 0,43,44
 259.430664062 296.22265625 259.430664062 296.22265625 279.400390625 286.369140625 c 0,45,46
 299.234375 275.611328125 299.234375 275.611328125 321.041015625 251.629882812 c 0,47,48
 343.754882812 226.97265625 343.754882812 226.97265625 404.331054688 198.25 c 0,49,50
 455.0234375 174.439453125 455.0234375 174.439453125 488.346679688 171.421875 c 0,51,52
 511.817382812 169.424804688 511.817382812 169.424804688 579.670898438 169.419921875 c 0,53,54
 693.796875 169.624023438 693.796875 169.624023438 744.060546875 184.76953125 c 0,55,56
 794.884765625 200.859375 794.884765625 200.859375 831.9609375 237.379882812 c 0,57,58
 869.38671875 274.986328125 869.38671875 274.986328125 901.53125 327.259765625 c 0,59,60
 933.342773438 379.877929688 933.342773438 379.877929688 947.220703125 432.479492188 c 0,61,62
 960.740234375 485.65234375 960.740234375 485.65234375 966.510742188 590.309570312 c 0,63,64
 972.051757812 696.37109375 972.051757812 696.37109375 959.220703125 835.829101562 c 1,65,-1
 830.8203125 827.069335938 l 2,66,67
 701.969726562 818.33203125 701.969726562 818.33203125 470.081054688 818.889648438 c 128,-1,68
 238.377929688 819.557617188 238.377929688 819.557617188 185.150390625 829.979492188 c 0,69,70
 132.3203125 841.1015625 132.3203125 841.1015625 106.250976562 866.819335938 c 0,71,72
 83.0791015625 890.0234375 83.0791015625 890.0234375 80.6923828125 915.715820312 c 0,73,74
 79.9814453125 924.504882812 79.9814453125 924.504882812 79.951171875 935.919921875 c 0,75,76
 80.548828125 978.794921875 80.548828125 978.794921875 97.48046875 998.0390625 c 0,77,78
 115.297851562 1017.19726562 115.297851562 1017.19726562 138.53125 1030.30957031 c 0,79,80
 159.690429688 1041.9140625 159.690429688 1041.9140625 197.185546875 1036.45117188 c 0,81,82
 209.037109375 1034.68359375 209.037109375 1034.68359375 226.201171875 1031.58984375 c 0,83,84
 291.849609375 1020.01953125 291.849609375 1020.01953125 531.451171875 1021.68945312 c 0,85,86
 771.907226562 1023.44140625 771.907226562 1023.44140625 890.911132812 1035.83984375 c 0,0,1
EndSplineSet
Validated: 524321
EndChar

StartChar: K
Encoding: 75 75 33
Width: 1202
Flags: W
LayerCount: 2
Fore
SplineSet
560.497070312 1072.13964844 m 0,0,1
 971.45703125 1076.71289062 971.45703125 1076.71289062 990.487304688 1078.75976562 c 0,2,3
 1008.54882812 1080.00097656 1008.54882812 1080.00097656 1040.89746094 1058.8203125 c 0,4,5
 1073.59179688 1035.96191406 1073.59179688 1035.96191406 1082.50683594 1003.96972656 c 0,6,7
 1091.24609375 969.802734375 1091.24609375 969.802734375 1100.00683594 729.950195312 c 0,8,9
 1108.82519531 488.129882812 1108.82519531 488.129882812 1119.77734375 273 c 0,10,11
 1129.95117188 73.1953125 1129.95117188 73.1953125 1122.63183594 45.4609375 c 0,12,13
 1120.48828125 38.2158203125 1120.48828125 38.2158203125 1117.60742188 32.6298828125 c 0,14,15
 1103.90722656 8.3701171875 1103.90722656 8.3701171875 1078.15722656 -8 c 0,16,17
 1052.0625 -23.5234375 1052.0625 -23.5234375 1032.12695312 -24.1103515625 c 0,18,19
 1012.07421875 -23.724609375 1012.07421875 -23.724609375 983.916992188 -11.83984375 c 0,20,21
 954.237304688 0.501953125 954.237304688 0.501953125 806.376953125 15.830078125 c 0,22,23
 661.2265625 30.8017578125 661.2265625 30.8017578125 473.717773438 26.099609375 c 0,24,25
 461.97265625 25.8056640625 461.97265625 25.8056640625 449.1171875 25.4501953125 c 0,26,27
 252.86328125 20.0263671875 252.86328125 20.0263671875 220.373046875 29.2578125 c 0,28,29
 214.654296875 31.0107421875 214.654296875 31.0107421875 210.216796875 32.849609375 c 0,30,31
 180.23046875 47.109375 180.23046875 47.109375 161.537109375 74.5 c 0,32,33
 143.895507812 103.908203125 143.895507812 103.908203125 148.086914062 138.080078125 c 0,34,35
 152.786132812 174.3828125 152.786132812 174.3828125 159.115234375 185.657226562 c 0,36,37
 181.9453125 223.119140625 181.9453125 223.119140625 250.796875 224.3203125 c 2,38,-1
 475.586914062 225.759765625 l 2,39,40
 745.186523438 225.690429688 745.186523438 225.690429688 915.966796875 212.609375 c 1,41,-1
 915.966796875 291.530273438 l 2,42,43
 915.881835938 370.543945312 915.881835938 370.543945312 907.497070312 455.939453125 c 0,44,45
 898.98046875 543.071289062 898.98046875 543.071289062 887.9375 865.870117188 c 1,46,47
 887.9375 865.870117188 887.9375 865.870117188 203.0625 864.236328125 c 0,48,49
 188.754882812 864.514648438 188.754882812 864.514648438 184.577148438 864.849609375 c 0,50,51
 155.075195312 867.631835938 155.075195312 867.631835938 136.373046875 874.461914062 c 128,-1,52
 117.669921875 881.291992188 117.669921875 881.291992188 113.71875 886.73046875 c 2,53,-1
 109.767578125 892.169921875 l 1,54,55
 83.20703125 918.751953125 83.20703125 918.751953125 77.4873046875 949.169921875 c 0,56,57
 72.8447265625 980.239257812 72.8447265625 980.239257812 86.45703125 1008.359375 c 0,58,59
 100.999023438 1036.40039062 100.999023438 1036.40039062 124.336914062 1052.20019531 c 0,60,61
 142.7734375 1064.12988281 142.7734375 1064.12988281 252.454101562 1067.3359375 c 0,62,63
 329.5078125 1069.5625 329.5078125 1069.5625 560.497070312 1072.13964844 c 0,0,1
EndSplineSet
Validated: 524321
EndChar

StartChar: L
Encoding: 76 76 34
Width: 842
Flags: W
LayerCount: 2
Fore
SplineSet
581.0859375 1174.16992188 m 4,0,1
 604.342773438 1191.70019531 604.342773438 1191.70019531 633.685546875 1191.70019531 c 4,2,3
 662.774414062 1191.35546875 662.774414062 1191.35546875 682.765625 1181.41992188 c 4,4,5
 702.092773438 1171.01367188 702.092773438 1171.01367188 713.4453125 1159.5 c 4,6,7
 724.306640625 1147.35742188 724.306640625 1147.35742188 733.17578125 1125.94042969 c 4,8,9
 741.823242188 1102.31738281 741.823242188 1102.31738281 733.706054688 895.760742188 c 4,10,11
 725.48828125 687.09375 725.48828125 687.09375 723.416015625 328 c 132,-1,12
 721.28125 -31.109375 721.28125 -31.109375 709.725585938 -60.009765625 c 4,13,14
 698.90234375 -86.568359375 698.90234375 -86.568359375 671.663085938 -104.693359375 c 4,15,16
 670.1328125 -105.672851562 670.1328125 -105.672851562 669.60546875 -106.009765625 c 4,17,18
 641.301757812 -122.956054688 641.301757812 -122.956054688 619.1953125 -123.259765625 c 4,19,20
 596.986328125 -122.518554688 596.986328125 -122.518554688 566.595703125 -107.169921875 c 4,21,22
 535.954101562 -91.3779296875 535.954101562 -91.3779296875 502.025390625 -74.580078125 c 4,23,24
 470.911132812 -59.1884765625 470.911132812 -59.1884765625 376.985351562 36.337890625 c 4,25,26
 372.134765625 41.28515625 372.134765625 41.28515625 368.326171875 45.2099609375 c 4,27,28
 272.87890625 143.750976562 272.87890625 143.750976562 222.532226562 177.46875 c 4,29,30
 220.91015625 178.530273438 220.91015625 178.530273438 220.295898438 178.930664062 c 4,31,32
 173.27734375 208.7265625 173.27734375 208.7265625 165.505859375 209.440429688 c 4,33,34
 157.958984375 210.541015625 157.958984375 210.541015625 134.625976562 233.549804688 c 4,35,36
 110.637695312 258.471679688 110.637695312 258.471679688 105.375976562 292.919921875 c 4,37,38
 100.604492188 326.809570312 100.604492188 326.809570312 118.340820312 354.370117188 c 4,39,40
 120.055664062 356.98828125 120.055664062 356.98828125 121.1953125 358.690429688 c 4,41,42
 142.71484375 389.178710938 142.71484375 389.178710938 177.985351562 402.530273438 c 4,43,44
 208.262695312 413.586914062 208.262695312 413.586914062 224.037109375 408.397460938 c 4,45,46
 234.994140625 404.517578125 234.994140625 404.517578125 260.985351562 390.73046875 c 4,47,48
 307.940429688 365.674804688 307.940429688 365.674804688 351.805664062 336.640625 c 4,49,50
 395.86328125 307.04296875 395.86328125 307.04296875 452.625976562 249.870117188 c 4,51,52
 508.825195312 193.532226562 508.825195312 193.532226562 515.10546875 203.120117188 c 4,53,54
 520.610351562 215.581054688 520.610351562 215.581054688 524.795898438 656.8203125 c 4,55,56
 528.66796875 1066.30664062 528.66796875 1066.30664062 537.625976562 1110.22070312 c 4,57,58
 540.110351562 1121.33300781 540.110351562 1121.33300781 543.40625 1128.12988281 c 4,59,60
 558.159179688 1156.26953125 558.159179688 1156.26953125 581.0859375 1174.16992188 c 4,0,1
EndSplineSet
Validated: 524321
EndChar

StartChar: M
Encoding: 77 77 35
Width: 1196
Flags: W
LayerCount: 2
Fore
SplineSet
716.615234375 1100.89941406 m 0,0,1
 769.345703125 1111.35449219 769.345703125 1111.35449219 834.96484375 1112.44921875 c 0,2,3
 900.322265625 1113.1953125 900.322265625 1113.1953125 940.174804688 1101.51953125 c 0,4,5
 979.608398438 1089.49121094 979.608398438 1089.49121094 1016.88476562 1070.91992188 c 0,6,7
 1053.40820312 1052.15136719 1053.40820312 1052.15136719 1067.36523438 1032.47949219 c 0,8,9
 1080.22558594 1012.19433594 1080.22558594 1012.19433594 1080.70507812 973.290039062 c 0,10,11
 1080.81054688 936.311523438 1080.81054688 936.311523438 1062.40332031 915.709960938 c 0,12,13
 1059.18847656 912.224609375 1059.18847656 912.224609375 1056.52539062 909.51953125 c 0,14,15
 1031.66015625 885.559570312 1031.66015625 885.559570312 997.165039062 879.939453125 c 0,16,17
 961.853515625 875.171875 961.853515625 875.171875 935.794921875 887.689453125 c 0,18,19
 909.171875 900.513671875 909.171875 900.513671875 872.224609375 906.309570312 c 0,20,21
 834.313476562 911.638671875 834.313476562 911.638671875 753.875 898.330078125 c 0,22,23
 672.185546875 884.326171875 672.185546875 884.326171875 598.254882812 848.479492188 c 0,24,25
 528.7109375 814.647460938 528.7109375 814.647460938 477.677734375 764.440429688 c 0,26,27
 470.458984375 757.291992188 470.458984375 757.291992188 463.625 750.26953125 c 0,28,29
 403.770507812 688.150390625 403.770507812 688.150390625 378.625 635.69921875 c 0,30,31
 353.892578125 583.000976562 353.892578125 583.000976562 338.405273438 521.709960938 c 0,32,33
 323.133789062 459.1328125 323.133789062 459.1328125 322.584960938 331.729492188 c 0,34,35
 322.155273438 204.64453125 322.155273438 204.64453125 326.474609375 199.26953125 c 0,36,37
 332.458007812 195.469726562 332.458007812 195.469726562 589.485351562 201.299804688 c 128,-1,38
 846.70703125 207.114257812 846.70703125 207.114257812 867.844726562 200.040039062 c 0,39,40
 887.71875 192.185546875 887.71875 192.185546875 909.514648438 168.76953125 c 0,41,42
 931.209960938 143.600585938 931.209960938 143.600585938 931.434570312 107.389648438 c 0,43,44
 930.98046875 70.4287109375 930.98046875 70.4287109375 916.065429688 46.7294921875 c 0,45,46
 900.198242188 23.724609375 900.198242188 23.724609375 872.224609375 11.6494140625 c 0,47,48
 842.045898438 0.0322265625 842.045898438 0.0322265625 674.96484375 0 c 0,49,50
 506.575195312 -0.0234375 506.575195312 -0.0234375 392.224609375 -10.060546875 c 0,51,52
 289.368164062 -19.16015625 289.368164062 -19.16015625 255.055664062 -12.048828125 c 0,53,54
 241.961914062 -9.23046875 241.961914062 -9.23046875 222.825195312 -3.5107421875 c 0,55,56
 217.462890625 -1.9013671875 217.462890625 -1.9013671875 205.73828125 1.0517578125 c 0,57,58
 151.45703125 14.724609375 151.45703125 14.724609375 132.861328125 39.0693359375 c 0,59,60
 124.983398438 50.01171875 124.983398438 50.01171875 120.4453125 62.5693359375 c 0,61,62
 115.267578125 85.20703125 115.267578125 85.20703125 115.293945312 131.3515625 c 128,-1,63
 115.321289062 177.49609375 115.321289062 177.49609375 117.943359375 223.857421875 c 2,64,-1
 120.565429688 270.219726562 l 1,65,66
 120.671875 470.223632812 120.671875 470.223632812 133.930664062 535.741210938 c 0,67,68
 135.272460938 542.255859375 135.272460938 542.255859375 136.565429688 548.009765625 c 0,69,70
 152.420898438 617.720703125 152.420898438 617.720703125 168.334960938 662.009765625 c 0,71,72
 184.377929688 705.875976562 184.377929688 705.875976562 208.485351562 749.689453125 c 0,73,74
 232.994140625 793.659179688 232.994140625 793.659179688 269.525390625 841.759765625 c 0,75,76
 306.463867188 889.875976562 306.463867188 889.875976562 353.64453125 932.719726562 c 0,77,78
 400.2421875 974.571289062 400.2421875 974.571289062 418.53515625 983.359375 c 0,79,80
 437.000976562 991.844726562 437.000976562 991.844726562 488.665039062 1021.43945312 c 0,81,82
 541.439453125 1051.47363281 541.439453125 1051.47363281 602.634765625 1070.95996094 c 0,83,84
 664.033203125 1090.22363281 664.033203125 1090.22363281 716.615234375 1100.89941406 c 0,0,1
EndSplineSet
Validated: 524321
EndChar

StartChar: N
Encoding: 78 78 36
Width: 1418
Flags: W
LayerCount: 2
Fore
SplineSet
493.737304688 1110.70019531 m 0,0,1
 507.361328125 1115.20996094 507.361328125 1115.20996094 528.807617188 1116.04003906 c 0,2,3
 550.959960938 1116.10449219 550.959960938 1116.10449219 579.216796875 1099.20019531 c 0,4,5
 605.868164062 1082.82226562 605.868164062 1082.82226562 621.064453125 1052.23535156 c 0,6,7
 621.815429688 1050.66113281 621.815429688 1050.66113281 622.086914062 1050.08984375 c 0,8,9
 636.01171875 1017.98144531 636.01171875 1017.98144531 629.637695312 990.91015625 c 0,10,11
 620.93359375 961 620.93359375 961 533.997070312 871.25 c 0,12,13
 429.396484375 763.44921875 429.396484375 763.44921875 401.213867188 707.706054688 c 0,14,15
 400.200195312 705.67578125 400.200195312 705.67578125 399.6875 704.640625 c 0,16,17
 397.81640625 700.827148438 397.81640625 700.827148438 392.109375 689.92578125 c 0,18,19
 319.41015625 549.969726562 319.41015625 549.969726562 308.1875 439.900390625 c 0,20,21
 302.4140625 380.635742188 302.4140625 380.635742188 320.95703125 301.290039062 c 0,22,23
 326.7421875 279.171875 326.7421875 279.171875 348.216796875 253.060546875 c 0,24,25
 370.286132812 226.755859375 370.286132812 226.755859375 373.287109375 231.140625 c 0,26,27
 377.0078125 236.948242188 377.0078125 236.948242188 405.70703125 292.520507812 c 0,28,29
 435.420898438 349.997070312 435.420898438 349.997070312 494.237304688 454.740234375 c 0,30,31
 553.303710938 559.673828125 553.303710938 559.673828125 605.216796875 630.110351562 c 0,32,33
 657.19140625 700.260742188 657.19140625 700.260742188 724.317382812 779.180664062 c 128,-1,34
 791.575195312 858.125976562 791.575195312 858.125976562 882.09765625 963.3203125 c 0,35,36
 961.234375 1055.27441406 961.234375 1055.27441406 988.678710938 1070.46386719 c 0,37,38
 997.384765625 1075.00292969 997.384765625 1075.00292969 1005.6171875 1077.31054688 c 0,39,40
 1036.25585938 1085.46191406 1036.25585938 1085.46191406 1060.29882812 1073.86035156 c 0,41,42
 1065.44921875 1071.30664062 1065.44921875 1071.30664062 1070.53710938 1068.54003906 c 0,43,44
 1102.21972656 1050.55371094 1102.21972656 1050.55371094 1123.47753906 1020.31054688 c 0,45,46
 1139.96191406 996.1875 1139.96191406 996.1875 1141.40625 970.0625 c 0,47,48
 1142.49414062 947.563476562 1142.49414062 947.563476562 1138.74707031 866.860351562 c 0,49,50
 1133.20019531 743.45703125 1133.20019531 743.45703125 1147.10742188 625.73046875 c 0,51,52
 1161.15917969 507.576171875 1161.15917969 507.576171875 1178.14746094 410.900390625 c 0,53,54
 1195.13867188 315.021484375 1195.13867188 315.021484375 1210.46679688 272.060546875 c 0,55,56
 1226.13769531 229.7109375 1226.13769531 229.7109375 1258.50683594 188.760742188 c 0,57,58
 1290.6484375 148.284179688 1290.6484375 148.284179688 1300.85742188 125.919921875 c 0,59,60
 1310.04296875 103.694335938 1310.04296875 103.694335938 1305.3671875 73.310546875 c 0,61,62
 1299.66894531 42.787109375 1299.66894531 42.787109375 1276.16699219 18.2998046875 c 0,63,64
 1251.85742188 -5.46484375 1251.85742188 -5.46484375 1221.40722656 -11 c 0,65,66
 1190.95703125 -15.5556640625 1190.95703125 -15.5556640625 1168.80761719 -6.599609375 c 0,67,68
 1146.59570312 3.6650390625 1146.59570312 3.6650390625 1116.19726562 39.73046875 c 0,69,70
 1085.65039062 76.6552734375 1085.65039062 76.6552734375 1061.4375 112.25 c 0,71,72
 1037.39550781 148.337890625 1037.39550781 148.337890625 1015.81738281 213.600585938 c 0,73,74
 994.3046875 279.776367188 994.3046875 279.776367188 976.327148438 388.98046875 c 0,75,76
 958.6953125 496.556640625 958.6953125 496.556640625 949.70703125 551.190429688 c 0,77,78
 941.194335938 603.420898438 941.194335938 603.420898438 940.336914062 638.879882812 c 0,79,80
 939.458007812 673.38671875 939.458007812 673.38671875 933.666992188 689.900390625 c 0,81,82
 928.909179688 702.645507812 928.909179688 702.645507812 920.87890625 696.506835938 c 0,83,84
 914.837890625 691.427734375 914.837890625 691.427734375 903.59765625 678.940429688 c 0,85,86
 878.755859375 651.01171875 878.755859375 651.01171875 801.557617188 549 c 0,87,88
 723.80078125 446.018554688 723.80078125 446.018554688 671.357421875 353.900390625 c 128,-1,89
 619.075195312 261.739257812 619.075195312 261.739257812 564.287109375 156.610351562 c 0,90,91
 510.161132812 52.748046875 510.161132812 52.748046875 502.647460938 42.6201171875 c 0,92,93
 494.592773438 33.36328125 494.592773438 33.36328125 450.926757812 9.73046875 c 0,94,95
 406.40625 -13.8505859375 406.40625 -13.8505859375 377.567382812 -14.1796875 c 0,96,97
 348.708984375 -13.3330078125 348.708984375 -13.3330078125 309.626953125 11.5205078125 c 0,98,99
 270.140625 37.3740234375 270.140625 37.3740234375 230.3671875 79.2705078125 c 0,100,101
 190.80078125 121.48046875 190.80078125 121.48046875 162.997070312 160.990234375 c 0,102,103
 135.842773438 200.388671875 135.842773438 200.388671875 126.84765625 235.530273438 c 0,104,105
 118.296875 271.172851562 118.296875 271.172851562 112.6171875 345.129882812 c 0,106,107
 107.196289062 420.30078125 107.196289062 420.30078125 120.59765625 502.970703125 c 0,108,109
 134.32421875 586.137695312 134.32421875 586.137695312 157.756835938 656.419921875 c 0,110,111
 181.455078125 726.564453125 181.455078125 726.564453125 215.987304688 792.330078125 c 0,112,113
 250.626953125 857.71484375 250.626953125 857.71484375 283.70703125 901.940429688 c 0,114,115
 316.6796875 945.243164062 316.6796875 945.243164062 389.897460938 1017.12988281 c 0,116,117
 479.366210938 1104.69433594 479.366210938 1104.69433594 493.737304688 1110.70019531 c 0,0,1
EndSplineSet
Validated: 524321
EndChar

StartChar: O
Encoding: 79 79 37
Width: 1172
Flags: W
LayerCount: 2
Fore
SplineSet
434.047851562 1165.9296875 m 0,0,1
 482.626953125 1161.6484375 482.626953125 1161.6484375 613.768554688 1152.71972656 c 0,2,3
 743.767578125 1143.85351562 743.767578125 1143.85351562 749.658203125 1140.13964844 c 0,4,5
 755.196289062 1137.41699219 755.196289062 1137.41699219 778.158203125 1149.36914062 c 0,6,7
 802.235351562 1161.80761719 802.235351562 1161.80761719 824.178710938 1162.24902344 c 0,8,9
 846.291992188 1161.80078125 846.291992188 1161.80078125 872.3984375 1149.08886719 c 0,10,11
 898.12109375 1135.45800781 898.12109375 1135.45800781 910.638671875 1111.82910156 c 0,12,13
 922.54296875 1086.37109375 922.54296875 1086.37109375 928.138671875 964.94921875 c 0,14,15
 933.791992188 841.938476562 933.791992188 841.938476562 951.297851562 684.359375 c 0,16,17
 968.525390625 529.741210938 968.525390625 529.741210938 978.528320312 443.219726562 c 0,18,19
 988.3828125 359.897460938 988.3828125 359.897460938 1013.80859375 289.76953125 c 0,20,21
 1039.39355469 220.184570312 1039.39355469 220.184570312 1061.12792969 186.739257812 c 0,22,23
 1082.25683594 153.935546875 1082.25683594 153.935546875 1082.6484375 125.359375 c 0,24,25
 1081.62402344 95.9111328125 1081.62402344 95.9111328125 1045.38867188 40.9091796875 c 0,26,27
 1009.04296875 -12.150390625 1009.04296875 -12.150390625 984.178710938 -27.041015625 c 0,28,29
 960.737304688 -38.7236328125 960.737304688 -38.7236328125 700.13671875 -39.11328125 c 0,30,31
 684.518554688 -39.134765625 684.518554688 -39.134765625 668.568359375 -39.140625 c 0,32,33
 377.018554688 -39.1435546875 377.018554688 -39.1435546875 298.158203125 -25.400390625 c 0,34,35
 219.704101562 -11.4697265625 219.704101562 -11.4697265625 175.41796875 9.1796875 c 0,36,37
 132.369140625 29.8017578125 132.369140625 29.8017578125 116.797851562 45.859375 c 0,38,39
 102.15625 62.5380859375 102.15625 62.5380859375 92.6884765625 103.439453125 c 0,40,41
 84.4501953125 140.234375 84.4501953125 140.234375 96.5498046875 197.892578125 c 0,42,43
 100.936523438 218.63671875 100.936523438 218.63671875 109.018554688 252.508789062 c 0,44,45
 134.588867188 359.674804688 134.588867188 359.674804688 148.478515625 430.069335938 c 0,46,47
 162.427734375 501.056640625 162.427734375 501.056640625 197.98828125 710.659179688 c 0,48,49
 233.5859375 920.54296875 233.5859375 920.54296875 246.008789062 1008.79882812 c 0,50,51
 257.740234375 1092.26855469 257.740234375 1092.26855469 274.43359375 1111.69433594 c 0,52,53
 276.751953125 1114.21972656 276.751953125 1114.21972656 278.23828125 1115.71972656 c 0,54,55
 298.821289062 1134.95019531 298.821289062 1134.95019531 341.98828125 1152.57910156 c 0,56,57
 386.655273438 1169.97851562 386.655273438 1169.97851562 434.047851562 1165.9296875 c 0,0,1
436.3984375 906.219726562 m 2,58,59
 426.154296875 849.224609375 426.154296875 849.224609375 408.05859375 741.349609375 c 0,60,61
 390.338867188 635.717773438 390.338867188 635.717773438 372.388671875 530.909179688 c 0,62,63
 355.013671875 429.766601562 355.013671875 429.766601562 329.91796875 307.309570312 c 0,64,65
 305.109375 186.052734375 305.109375 186.052734375 308.73828125 180.168945312 c 0,66,67
 314.3359375 175.784179688 314.3359375 175.784179688 575.038085938 173.588867188 c 2,68,-1
 837.328125 171.399414062 l 1,69,70
 795.8203125 289.986328125 795.8203125 289.986328125 782.127929688 373.069335938 c 128,-1,71
 768.58203125 456.250976562 768.58203125 456.250976562 762.96875 530.909179688 c 128,-1,72
 757.388671875 605.600585938 757.388671875 605.600585938 745.198242188 710.659179688 c 128,-1,73
 733.000976562 815.622070312 733.000976562 815.622070312 728.158203125 879.458984375 c 2,74,-1
 723.358398438 943.029296875 l 1,75,76
 535.069335938 952.275390625 535.069335938 952.275390625 490.608398438 956.87890625 c 2,77,-1
 446.337890625 961.489257812 l 1,78,-1
 436.3984375 906.219726562 l 2,58,59
EndSplineSet
Validated: 524321
EndChar

StartChar: P
Encoding: 80 80 38
Width: 1178
Flags: W
LayerCount: 2
Fore
SplineSet
409.205078125 1136.89941406 m 0,0,1
 412.505859375 1138.27539062 412.505859375 1138.27539062 421.434570312 1142.78320312 c 0,2,3
 487.456054688 1176.11914062 487.456054688 1176.11914062 553.865234375 1176.59960938 c 0,4,5
 576.290039062 1176.12304688 576.290039062 1176.12304688 606.46484375 1156.54003906 c 0,6,7
 636.448242188 1136.09082031 636.448242188 1136.09082031 648.235351562 1114.64941406 c 0,8,9
 659.036132812 1092.01367188 659.036132812 1092.01367188 654.205078125 1040.5 c 0,10,11
 649.056640625 987.26171875 649.056640625 987.26171875 642.115234375 878.279296875 c 0,12,13
 636.060546875 782.993164062 636.060546875 782.993164062 627.825195312 767.046875 c 0,14,15
 622.077148438 757.243164062 622.077148438 757.243164062 607.655273438 744.559570312 c 0,16,17
 581.79296875 721.875 581.79296875 721.875 548.012695312 720.721679688 c 0,18,19
 543.049804688 720.58984375 543.049804688 720.58984375 538.525390625 720.58984375 c 0,20,21
 501.21484375 720.706054688 501.21484375 720.706054688 481.388671875 736.993164062 c 0,22,23
 475.0859375 742.348632812 475.0859375 742.348632812 468.225585938 749.080078125 c 0,24,25
 439.90234375 778.208007812 439.90234375 778.208007812 438.6953125 808.129882812 c 0,26,27
 437.526367188 839.818359375 437.526367188 839.818359375 426.745117188 890.94921875 c 1,28,-1
 394.78515625 847.349609375 l 2,29,30
 362.952148438 803.508789062 362.952148438 803.508789062 339.85546875 746.75 c 0,31,32
 317.122070312 689.969726562 317.122070312 689.969726562 308.165039062 641.529296875 c 0,33,34
 299.551757812 592.80078125 299.551757812 592.80078125 298.895507812 501.229492188 c 0,35,36
 298.55859375 409.112304688 298.55859375 409.112304688 312.71484375 369.709960938 c 0,37,38
 327.461914062 330.1484375 327.461914062 330.1484375 359.385742188 287.279296875 c 0,39,40
 391.443359375 245.041992188 391.443359375 245.041992188 413.595703125 229.229492188 c 0,41,42
 436.157226562 214.15234375 436.157226562 214.15234375 488.115234375 198.879882812 c 0,43,44
 541.1015625 183.7890625 541.1015625 183.7890625 615.235351562 183.109375 c 0,45,46
 665.739257812 182.770507812 665.739257812 182.770507812 722.939453125 199.908203125 c 0,47,48
 737.751953125 204.32421875 737.751953125 204.32421875 746.745117188 206.83984375 c 0,49,50
 752.12890625 208.338867188 752.12890625 208.338867188 765.4296875 211.352539062 c 0,51,52
 830.990234375 226.208007812 830.990234375 226.208007812 840.125976562 247.94140625 c 0,53,54
 842.709960938 255.526367188 842.709960938 255.526367188 841.915039062 263.069335938 c 0,55,56
 836.231445312 304.935546875 836.231445312 304.935546875 821.475585938 540.689453125 c 0,57,58
 806.762695312 777.176757812 806.762695312 777.176757812 809.595703125 941.169921875 c 0,59,60
 812.169921875 1086.41210938 812.169921875 1086.41210938 819.416015625 1106.24414062 c 0,61,62
 823.83984375 1116.76367188 823.83984375 1116.76367188 834.415039062 1127.93945312 c 0,63,64
 856.607421875 1150.57910156 856.607421875 1150.57910156 887.015625 1160.38964844 c 0,65,66
 916.645507812 1169.4609375 916.645507812 1169.4609375 943.717773438 1157.41601562 c 0,67,68
 946.491210938 1156.15527344 946.491210938 1156.15527344 948.385742188 1155.26953125 c 0,69,70
 978.510742188 1140.56933594 978.510742188 1140.56933594 993.485351562 1121.31933594 c 0,71,72
 1006.36132812 1103.94726562 1006.36132812 1103.94726562 1008.85644531 1006.47949219 c 0,73,74
 1009.53613281 979.404296875 1009.53613281 979.404296875 1010.07519531 939.659179688 c 0,75,76
 1012.27832031 777.5546875 1012.27832031 777.5546875 1024.14550781 567 c 0,77,78
 1036.05664062 357.302734375 1036.05664062 357.302734375 1048.89550781 273.25 c 0,79,80
 1061.76855469 190.607421875 1061.76855469 190.607421875 1075.98535156 154.879882812 c 0,81,82
 1089.75683594 119.90625 1089.75683594 119.90625 1085.34570312 93.4892578125 c 0,83,84
 1080.04882812 67.4345703125 1080.04882812 67.4345703125 1064.83496094 48.83984375 c 0,85,86
 1048.97851562 30.8203125 1048.97851562 30.8203125 1029.48535156 20.33984375 c 0,87,88
 1009.74902344 10.189453125 1009.74902344 10.189453125 979.075195312 10.189453125 c 0,89,90
 947.787109375 11.0791015625 947.787109375 11.0791015625 917.705078125 36.5 c 0,91,92
 890.759765625 59.595703125 890.759765625 59.595703125 883.21875 55.6708984375 c 0,93,94
 880.223632812 54.111328125 880.223632812 54.111328125 876.055664062 48.779296875 c 0,95,96
 864.40625 34.8203125 864.40625 34.8203125 838.794921875 22.830078125 c 0,97,98
 812.159179688 10.845703125 812.159179688 10.845703125 768.665039062 -4.6904296875 c 0,99,100
 723.362304688 -20.224609375 723.362304688 -20.224609375 615.235351562 -19.990234375 c 0,101,102
 505.420898438 -19.490234375 505.420898438 -19.490234375 448.665039062 -3.4404296875 c 0,103,104
 391.890625 12.8671875 391.890625 12.8671875 343.455078125 35.2294921875 c 0,105,106
 295.4921875 57.8359375 295.4921875 57.8359375 261.325195312 88.7197265625 c 0,107,108
 227.3359375 120.26171875 227.3359375 120.26171875 190.975585938 172.409179688 c 0,109,110
 154.685546875 225.127929688 154.685546875 225.127929688 130.635742188 279.830078125 c 0,111,112
 106.838867188 335.170898438 106.838867188 335.170898438 97.4453125 411.359375 c 0,113,114
 88.318359375 487.970703125 88.318359375 487.970703125 93.4052734375 553.849609375 c 0,115,116
 98.7119140625 619.48828125 98.7119140625 619.48828125 107.915039062 676.609375 c 0,117,118
 117.296875 733.470703125 117.296875 733.470703125 134.42578125 781.830078125 c 0,119,120
 151.967773438 830.443359375 151.967773438 830.443359375 184.015625 895.6796875 c 0,121,122
 215.723632812 960.078125 215.723632812 960.078125 290.448242188 1036.89746094 c 0,123,124
 293.307617188 1039.83007812 293.307617188 1039.83007812 295.235351562 1041.79980469 c 0,125,126
 373.803710938 1121.62207031 373.803710938 1121.62207031 409.205078125 1136.89941406 c 0,0,1
EndSplineSet
Validated: 524321
EndChar

StartChar: Q
Encoding: 81 81 39
Width: 1136
Flags: W
LayerCount: 2
Fore
SplineSet
458.165039062 1171 m 0,0,1
 594.024414062 1180.33007812 594.024414062 1180.33007812 667.759765625 1180.99414062 c 0,2,3
 725.299804688 1181.48828125 725.299804688 1181.48828125 797.614257812 1180.64941406 c 0,4,5
 838.547851562 1180.16992188 838.547851562 1180.16992188 866.563476562 1173.0703125 c 128,-1,6
 894.578125 1165.96972656 894.578125 1165.96972656 902.125976562 1159.11035156 c 2,7,-1
 909.674804688 1152.25 l 1,8,9
 953.5234375 1122.02929688 953.5234375 1122.02929688 976.89453125 1079.5703125 c 0,10,11
 1000.14550781 1036.01074219 1000.14550781 1036.01074219 1013.83496094 970.58984375 c 0,12,13
 1027.25878906 904.6953125 1027.25878906 904.6953125 1029.89453125 832.709960938 c 0,14,15
 1032.07714844 770.365234375 1032.07714844 770.365234375 1024.50097656 756.3046875 c 0,16,17
 1019.04101562 747.213867188 1019.04101562 747.213867188 1003.75488281 731.870117188 c 0,18,19
 978.940429688 707.004882812 978.940429688 707.004882812 955.662109375 704.229492188 c 0,20,21
 945.6875 703.181640625 945.6875 703.181640625 930.704101562 703.149414062 c 0,22,23
 891.91015625 703.149414062 891.91015625 703.149414062 876.0625 716.3046875 c 0,24,25
 869.15234375 722.353515625 869.15234375 722.353515625 860.734375 731.649414062 c 0,26,27
 835.749023438 760.1796875 835.749023438 760.1796875 831.364257812 788.649414062 c 0,28,29
 828.25390625 812.060546875 828.25390625 812.060546875 806.424804688 974.979492188 c 1,30,-1
 568.734375 968.58984375 l 2,31,32
 332.143554688 962.153320312 332.143554688 962.153320312 322.274414062 952.870117188 c 0,33,34
 313.639648438 941.669921875 313.639648438 941.669921875 324.57421875 713.740234375 c 0,35,36
 335.592773438 484.498046875 335.592773438 484.498046875 335.534179688 358.990234375 c 0,37,38
 335.444335938 247.919921875 335.444335938 247.919921875 341.889648438 237.0859375 c 0,39,40
 346.258789062 231.711914062 346.258789062 231.711914062 355.154296875 229.639648438 c 0,41,42
 375.877929688 225.208007812 375.877929688 225.208007812 453.784179688 219.040039062 c 0,43,44
 532.703125 212.505859375 532.703125 212.505859375 558.984375 194.649414062 c 0,45,46
 583.749023438 177.525390625 583.749023438 177.525390625 596.87890625 143.88671875 c 0,47,48
 597.48046875 142.28125 597.48046875 142.28125 597.704101562 141.6796875 c 0,49,50
 608.734375 110.76171875 608.734375 110.76171875 602.225585938 92.400390625 c 0,51,52
 599.224609375 84.359375 599.224609375 84.359375 593.32421875 72.0595703125 c 0,53,54
 575.842773438 38.3251953125 575.842773438 38.3251953125 550.224609375 21.5498046875 c 0,55,56
 527.849609375 8.2119140625 527.849609375 8.2119140625 489.348632812 10.0791015625 c 0,57,58
 469.564453125 11.1015625 469.564453125 11.1015625 427.484375 15.1396484375 c 0,59,60
 331.774414062 24.4443359375 331.774414062 24.4443359375 295.974609375 34.41015625 c 0,61,62
 260.821289062 44.7529296875 260.821289062 44.7529296875 223.64453125 69.0703125 c 0,63,64
 194.47265625 88.388671875 194.47265625 88.388671875 158.12890625 132.47265625 c 0,65,66
 138.845703125 156.413085938 138.845703125 156.413085938 135.994140625 168.649414062 c 0,67,68
 126.8515625 215.368164062 126.8515625 215.368164062 112.93359375 553.956054688 c 0,69,70
 98.37109375 910.5234375 98.37109375 910.5234375 112.794921875 996.349609375 c 0,71,72
 115.0703125 1009.66992188 115.0703125 1009.66992188 120.727539062 1028.43945312 c 128,-1,73
 126.385742188 1047.20996094 126.385742188 1047.20996094 130.905273438 1059.3203125 c 2,74,-1
 135.424804688 1071.4296875 l 1,75,76
 158.047851562 1114.5546875 158.047851562 1114.5546875 178.8046875 1131.12011719 c 0,77,78
 200.79296875 1146.94628906 200.79296875 1146.94628906 274.0546875 1155.20996094 c 0,79,80
 348.654296875 1163.43164062 348.654296875 1163.43164062 458.165039062 1171 c 0,0,1
EndSplineSet
Validated: 524321
EndChar

StartChar: R
Encoding: 82 82 40
Width: 1052
Flags: W
LayerCount: 2
Fore
SplineSet
555.09375 1154.0703125 m 0,0,1
 808.185546875 1160.06933594 808.185546875 1160.06933594 857.553710938 1156.12011719 c 0,2,3
 905.249023438 1151.93457031 905.249023438 1151.93457031 929.883789062 1140.08007812 c 0,4,5
 953.580078125 1127.40332031 953.580078125 1127.40332031 967.143554688 1101.74023438 c 0,6,7
 979.896484375 1075.390625 979.896484375 1075.390625 980.29296875 1049.12988281 c 0,8,9
 979.91015625 1022.43554688 979.91015625 1022.43554688 964.473632812 981.169921875 c 0,10,11
 948.263671875 939.276367188 948.263671875 939.276367188 909.393554688 882.530273438 c 0,12,13
 870.228515625 825.71875 870.228515625 825.71875 828.013671875 768.540039062 c 128,-1,14
 785.948242188 711.296875 785.948242188 711.296875 747.553710938 632.620117188 c 0,15,16
 709.482421875 554.11328125 709.482421875 554.11328125 689.853515625 501.099609375 c 0,17,18
 673.46875 456.584960938 673.46875 456.584960938 670.404296875 377.828125 c 0,19,20
 668.883789062 337.913085938 668.883789062 337.913085938 667.583007812 249 c 0,21,22
 664.629882812 50.861328125 664.629882812 50.861328125 655.913085938 31.9794921875 c 0,23,24
 646.268554688 14.41015625 646.268554688 14.41015625 618.653320312 -3.0703125 c 0,25,26
 590.419921875 -19.9921875 590.419921875 -19.9921875 570.43359375 -20.599609375 c 0,27,28
 550.4375 -20.166015625 550.4375 -20.166015625 524.403320312 -7.48046875 c 0,29,30
 498.374023438 6.2763671875 498.374023438 6.2763671875 480.603515625 34.169921875 c 0,31,32
 466.275390625 57.505859375 466.275390625 57.505859375 464.310546875 112.546875 c 0,33,34
 463.176757812 145.690429688 463.176757812 145.690429688 463.243164062 229.26953125 c 0,35,36
 463.452148438 395.212890625 463.452148438 395.212890625 472.303710938 457.25 c 0,37,38
 481.392578125 518.639648438 481.392578125 518.639648438 503.502929688 580.009765625 c 0,39,40
 525.720703125 641.032226562 525.720703125 641.032226562 546.493164062 685.240234375 c 0,41,42
 566.9453125 728.530273438 566.9453125 728.530273438 576.873046875 751 c 0,43,44
 586.588867188 772.783203125 586.588867188 772.783203125 597.213867188 790.459960938 c 0,45,46
 608.18359375 808.376953125 608.18359375 808.376953125 625.033203125 834.299804688 c 0,47,48
 642.340820312 860.78125 642.340820312 860.78125 671.223632812 900.0703125 c 0,49,50
 699.336914062 938.53125 699.336914062 938.53125 700.04296875 948.290039062 c 0,51,52
 697.80078125 956.970703125 697.80078125 956.970703125 425.79296875 949.259765625 c 0,53,54
 177.866210938 942.200195312 177.866210938 942.200195312 147.307617188 948.526367188 c 0,55,56
 134.61328125 951.486328125 134.61328125 951.486328125 123.153320312 958.030273438 c 0,57,58
 97.3232421875 972.969726562 97.3232421875 972.969726562 82.05078125 1002.02636719 c 0,59,60
 80.98046875 1004.16992188 80.98046875 1004.16992188 80.443359375 1005.29003906 c 0,61,62
 67.060546875 1034.47167969 67.060546875 1034.47167969 74.1796875 1061.64941406 c 0,63,64
 75.2412109375 1065.56445312 75.2412109375 1065.56445312 76.2138671875 1068.86035156 c 0,65,66
 86.5546875 1101.4609375 86.5546875 1101.4609375 112.353515625 1123.66015625 c 0,67,68
 134.46484375 1142.09375 134.46484375 1142.09375 166.869140625 1144.86425781 c 0,69,70
 184.168945312 1146.25292969 184.168945312 1146.25292969 219.743164062 1146.79980469 c 0,71,72
 299.904296875 1148.01464844 299.904296875 1148.01464844 555.09375 1154.0703125 c 0,0,1
EndSplineSet
Validated: 524321
EndChar

StartChar: S
Encoding: 83 83 41
Width: 1112
Flags: W
LayerCount: 2
Fore
SplineSet
814.163085938 1073.96972656 m 0,0,1
 838.314453125 1086.3671875 838.314453125 1086.3671875 862.383789062 1087.12011719 c 0,2,3
 886.5859375 1087.04296875 886.5859375 1087.04296875 912.793945312 1074.3203125 c 0,4,5
 937.006835938 1062.21289062 937.006835938 1062.21289062 951.064453125 1037.08398438 c 0,6,7
 951.921875 1035.46972656 951.921875 1035.46972656 952.243164062 1034.86035156 c 0,8,9
 964.02734375 1011.28320312 964.02734375 1011.28320312 965.150390625 834.821289062 c 0,10,11
 965.444335938 787.5625 965.444335938 787.5625 965.463867188 717 c 0,12,13
 965.575195312 426.440429688 965.575195312 426.440429688 974.233398438 348.719726562 c 0,14,15
 983.026367188 272.11328125 983.026367188 272.11328125 999.883789062 208.419921875 c 0,16,17
 1016.66992188 145.630859375 1016.66992188 145.630859375 1026.46386719 118.549804688 c 0,18,19
 1035.65332031 91.9306640625 1035.65332031 91.9306640625 1029.24316406 62.419921875 c 0,20,21
 1021.70703125 32.66796875 1021.70703125 32.66796875 993.883789062 7.6103515625 c 0,22,23
 964.478515625 -17.099609375 964.478515625 -17.099609375 930.323242188 -17.3701171875 c 0,24,25
 897.538085938 -17.3701171875 897.538085938 -17.3701171875 873.278320312 4.3447265625 c 0,26,27
 869.318359375 7.966796875 869.318359375 7.966796875 866.043945312 11.1298828125 c 0,28,29
 837.192382812 39.91015625 837.192382812 39.91015625 822.983398438 79.08984375 c 0,30,31
 809.12109375 119.01953125 809.12109375 119.01953125 795.103515625 184.310546875 c 0,32,33
 781.10546875 250.177734375 781.10546875 250.177734375 772.583007812 311.459960938 c 128,-1,34
 764.216796875 372.567382812 764.216796875 372.567382812 763.923828125 414.490234375 c 0,35,36
 763.772460938 450.603515625 763.772460938 450.603515625 754.583007812 456.374023438 c 0,37,38
 749.2109375 459.21484375 749.2109375 459.21484375 739.643554688 461.349609375 c 0,39,40
 714.9140625 466.759765625 714.9140625 466.759765625 649.7734375 484.190429688 c 0,41,42
 583.923828125 502.03125 583.923828125 502.03125 509.50390625 539.91015625 c 0,43,44
 435.139648438 578.126953125 435.139648438 578.126953125 377.993164062 621.009765625 c 0,45,46
 320.9765625 664.274414062 320.9765625 664.274414062 264.0234375 724.629882812 c 0,47,48
 207.19921875 785.784179688 207.19921875 785.784179688 160.243164062 864.030273438 c 0,49,50
 114.135742188 941.861328125 114.135742188 941.861328125 108.853515625 964.709960938 c 0,51,52
 104.874023438 986.88671875 104.874023438 986.88671875 118.393554688 1015.12988281 c 0,53,54
 132.892578125 1043.29882812 132.892578125 1043.29882812 156.623046875 1061.46972656 c 0,55,56
 180.912109375 1078.77050781 180.912109375 1078.77050781 209.223632812 1079.00976562 c 0,57,58
 237.475585938 1078.36035156 237.475585938 1078.36035156 257.443359375 1068.41992188 c 0,59,60
 276.611328125 1058.16113281 276.611328125 1058.16113281 285.993164062 1048.69042969 c 0,61,62
 295.487304688 1038.00683594 295.487304688 1038.00683594 338.59375 966.020507812 c 0,63,64
 382.834960938 892.645507812 382.834960938 892.645507812 443.743164062 834.169921875 c 0,65,66
 505.025390625 775.922851562 505.025390625 775.922851562 557.723632812 744.349609375 c 0,67,68
 610.536132812 713.229492188 610.536132812 713.229492188 673.883789062 689.870117188 c 0,69,70
 736.40234375 667.06640625 736.40234375 667.06640625 750.59375 666.580078125 c 0,71,72
 760.997070312 666.580078125 760.997070312 666.580078125 762.755859375 725.653320312 c 0,73,74
 763.737304688 759.9296875 763.737304688 759.9296875 763.743164062 837.5703125 c 0,75,76
 764.666992188 1007.58984375 764.666992188 1007.58984375 776.903320312 1034.86035156 c 0,77,78
 790.534179688 1060.64941406 790.534179688 1060.64941406 814.163085938 1073.96972656 c 0,0,1
134.703125 407.5703125 m 0,79,80
 162.77734375 419.9296875 162.77734375 419.9296875 178.543945312 420.719726562 c 0,81,82
 194.40625 420.619140625 194.40625 420.619140625 222.383789062 409.490234375 c 0,83,84
 251.1484375 396.681640625 251.1484375 396.681640625 274.983398438 356.879882812 c 0,85,86
 299.887695312 315.674804688 299.887695312 315.674804688 349.50390625 280.389648438 c 0,87,88
 399.806640625 245.342773438 399.806640625 245.342773438 443.743164062 232.440429688 c 0,89,90
 487.28125 220.114257812 487.28125 220.114257812 518.2734375 215.58984375 c 0,91,92
 548.776367188 210.852539062 548.776367188 210.852539062 573.063476562 193.400390625 c 0,93,94
 596.735351562 175.04296875 596.735351562 175.04296875 607.163085938 142.66015625 c 0,95,96
 616.354492188 112.376953125 616.354492188 112.376953125 606.401367188 87.966796875 c 0,97,98
 603.8046875 81.77734375 603.8046875 81.77734375 600.583007812 74.9501953125 c 0,99,100
 583.40234375 40.4228515625 583.40234375 40.4228515625 553.333007812 22.8798828125 c 0,101,102
 527.544921875 8.390625 527.544921875 8.390625 505.448242188 10.4130859375 c 0,103,104
 490.881835938 11.892578125 490.881835938 11.892578125 452.513671875 19.419921875 c 0,105,106
 382.30859375 33.4375 382.30859375 33.4375 307.853515625 68.599609375 c 0,107,108
 232.776367188 104.780273438 232.776367188 104.780273438 176.353515625 160.580078125 c 0,109,110
 119.981445312 216.869140625 119.981445312 216.869140625 99.853515625 255.530273438 c 0,111,112
 80.8330078125 293.571289062 80.8330078125 293.571289062 80.123046875 318.030273438 c 0,113,114
 80.359375 342.255859375 80.359375 342.255859375 93.0634765625 368.450195312 c 0,115,116
 104.745117188 391.827148438 104.745117188 391.827148438 131.2734375 405.887695312 c 0,117,118
 133.500976562 407.000976562 133.500976562 407.000976562 134.703125 407.5703125 c 0,79,80
EndSplineSet
Validated: 524289
EndChar

StartChar: T
Encoding: 84 84 42
Width: 920
Flags: W
LayerCount: 2
Fore
SplineSet
470.666015625 1116.47070312 m 0,0,1
 489.603515625 1123.13671875 489.603515625 1123.13671875 511.405273438 1123.91015625 c 0,2,3
 533.568359375 1123.85058594 533.568359375 1123.85058594 561.815429688 1106.93066406 c 0,4,5
 588.44140625 1090.56738281 588.44140625 1090.56738281 602.498046875 1060.85546875 c 0,6,7
 603.204101562 1059.29101562 603.204101562 1059.29101562 603.456054688 1058.73046875 c 0,8,9
 614.668945312 1032.57226562 614.668945312 1032.57226562 609.249023438 990.135742188 c 0,10,11
 606.404296875 968.303710938 606.404296875 968.303710938 598.275390625 920.630859375 c 0,12,13
 580.053710938 812.356445312 580.053710938 812.356445312 584.666015625 712.380859375 c 0,14,15
 589.436523438 611.663085938 589.436523438 611.663085938 598.255859375 537 c 128,-1,16
 607.051757812 462.252929688 607.051757812 462.252929688 609.67578125 367.370117188 c 0,17,18
 612.290039062 273.7578125 612.290039062 273.7578125 618.805664062 268.720703125 c 0,19,20
 624.4375 265.678710938 624.4375 265.678710938 645.747070312 295.336914062 c 0,21,22
 647.978515625 298.494140625 647.978515625 298.494140625 649.485351562 300.690429688 c 0,23,24
 673.974609375 334.936523438 673.974609375 334.936523438 702.0859375 348.919921875 c 0,25,26
 730.580078125 361.630859375 730.580078125 361.630859375 743.735351562 361.630859375 c 0,27,28
 757.556640625 361.137695312 757.556640625 361.137695312 787.565429688 348.48046875 c 0,29,30
 817.911132812 334.591796875 817.911132812 334.591796875 832.485351562 306.830078125 c 0,31,32
 846.288085938 278.01171875 846.288085938 278.01171875 842.60546875 247.640625 c 0,33,34
 837.461914062 215.795898438 837.461914062 215.795898438 776.865234375 133.650390625 c 0,35,36
 715.725585938 51.1826171875 715.725585938 51.1826171875 685.645507812 22.0107421875 c 0,37,38
 655.522460938 -6.46875 655.522460938 -6.46875 599.076171875 -41.5595703125 c 0,39,40
 542.014648438 -76.39453125 542.014648438 -76.39453125 511.405273438 -76.8193359375 c 0,41,42
 482.6953125 -76.84375 482.6953125 -76.84375 405.862304688 -25.3505859375 c 0,43,44
 395.376953125 -18.306640625 395.376953125 -18.306640625 384.275390625 -10.69921875 c 0,45,46
 288.159179688 55.248046875 288.159179688 55.248046875 226.475585938 99.5908203125 c 0,47,48
 165.415039062 143.461914062 165.415039062 143.461914062 134.416015625 163.470703125 c 0,49,50
 105.603515625 182.000976562 105.603515625 182.000976562 89.4140625 213.349609375 c 0,51,52
 88.650390625 214.885742188 88.650390625 214.885742188 88.3857421875 215.419921875 c 0,53,54
 73.595703125 247.500976562 73.595703125 247.500976562 77.3955078125 271.75 c 0,55,56
 82.4755859375 296.025390625 82.4755859375 296.025390625 110.265625 324.620117188 c 0,57,58
 138.62890625 352.62890625 138.62890625 352.62890625 160.715820312 357.91015625 c 0,59,60
 182.7421875 361.969726562 182.7421875 361.969726562 206.74609375 353.270507812 c 0,61,62
 231.69140625 343.401367188 231.69140625 343.401367188 303.185546875 294.959960938 c 0,63,64
 374.474609375 246.487304688 374.474609375 246.487304688 390.85546875 233.580078125 c 0,65,66
 405.186523438 222.928710938 405.186523438 222.928710938 408.935546875 227.91015625 c 0,67,68
 411.579101562 235.994140625 411.579101562 235.994140625 405.4453125 370.400390625 c 0,69,70
 399.189453125 505.766601562 399.189453125 505.766601562 388.185546875 576.459960938 c 0,71,72
 377.25390625 647.580078125 377.25390625 647.580078125 382.525390625 773.760742188 c 0,73,74
 387.952148438 900.528320312 387.952148438 900.528320312 401.405273438 984.200195312 c 0,75,76
 415.193359375 1067.25 415.193359375 1067.25 433.385742188 1088.53027344 c 0,77,78
 451.91015625 1108.98632812 451.91015625 1108.98632812 470.666015625 1116.47070312 c 0,0,1
EndSplineSet
Validated: 524321
EndChar

StartChar: U
Encoding: 85 85 43
Width: 1142
Flags: W
LayerCount: 2
Fore
SplineSet
769.732421875 1103.27929688 m 0,0,1
 784.172851562 1108.72363281 784.172851562 1108.72363281 844.453125 1109.01953125 c 0,2,3
 905.328125 1108.95410156 905.328125 1108.95410156 929.932617188 1096.88964844 c 0,4,5
 953.541992188 1084.02929688 953.541992188 1084.02929688 966.182617188 1060.45996094 c 0,6,7
 978.192382812 1036.62011719 978.192382812 1036.62011719 982.875 718.15234375 c 0,8,9
 982.991210938 710.259765625 982.991210938 710.259765625 983.092773438 703.139648438 c 0,10,11
 987.5625 390.31640625 987.5625 390.31640625 999.860351562 311.338867188 c 0,12,13
 1002.15527344 296.856445312 1002.15527344 296.856445312 1004.99316406 282.25 c 0,14,15
 1022.17871094 194.95703125 1022.17871094 194.95703125 1045.203125 137.569335938 c 0,16,17
 1067.79492188 81.248046875 1067.79492188 81.248046875 1068.10253906 58.6494140625 c 0,18,19
 1067.390625 36.5068359375 1067.390625 36.5068359375 1050.44238281 8.2294921875 c 0,20,21
 1032.65527344 -19.5693359375 1032.65527344 -19.5693359375 1008.83300781 -29.7802734375 c 0,22,23
 984.396484375 -38.8955078125 984.396484375 -38.8955078125 949.65234375 -34.2900390625 c 0,24,25
 915.129882812 -28.9287109375 915.129882812 -28.9287109375 898.243164062 -13.810546875 c 0,26,27
 882.271484375 1.8525390625 882.271484375 1.8525390625 874.1328125 21.3798828125 c 0,28,29
 868.043945312 36.8603515625 868.043945312 36.8603515625 861.303710938 36.4716796875 c 0,30,31
 855.215820312 35.5029296875 855.215820312 35.5029296875 842.262695312 29.099609375 c 0,32,33
 817.475585938 16.9375 817.475585938 16.9375 765.54296875 -0.9599609375 c 0,34,35
 712.517578125 -19.001953125 712.517578125 -19.001953125 638.422851562 -33.830078125 c 0,36,37
 563.236328125 -48.5224609375 563.236328125 -48.5224609375 480.612304688 -44.2802734375 c 0,38,39
 396.8046875 -39.5712890625 396.8046875 -39.5712890625 331.572265625 -15.970703125 c 0,40,41
 266.353515625 7.990234375 266.353515625 7.990234375 235.442382812 31.1201171875 c 0,42,43
 205.181640625 54.380859375 205.181640625 54.380859375 179.79296875 80.5693359375 c 0,44,45
 154.59375 107.329101562 154.59375 107.329101562 133.962890625 150.719726562 c 0,46,47
 113.607421875 194.759765625 113.607421875 194.759765625 104.15234375 251.559570312 c 0,48,49
 94.8837890625 309.66796875 94.8837890625 309.66796875 84.9228515625 624.219726562 c 0,50,51
 75.00390625 937.916015625 75.00390625 937.916015625 73.9423828125 976.979492188 c 0,52,53
 73.0244140625 1011.16503906 73.0244140625 1011.16503906 91.162109375 1032.14746094 c 0,54,55
 95.2255859375 1036.71191406 95.2255859375 1036.71191406 99.2431640625 1040.84960938 c 0,56,57
 126.294921875 1067.375 126.294921875 1067.375 160.612304688 1072.1796875 c 0,58,59
 196.286132812 1076.05273438 196.286132812 1076.05273438 224.172851562 1058.72949219 c 0,60,61
 250.732421875 1041.9609375 250.732421875 1041.9609375 264.157226562 1014.28027344 c 0,62,63
 264.861328125 1012.75390625 264.861328125 1012.75390625 265.102539062 1012.22949219 c 0,64,65
 277.447265625 982.751953125 277.447265625 982.751953125 283.282226562 878.509765625 c 0,66,67
 289.026367188 772.705078125 289.026367188 772.705078125 295.642578125 519 c 0,68,69
 301.880859375 279.28125 301.880859375 279.28125 312.983398438 245.708007812 c 0,70,71
 314.9765625 240.141601562 314.9765625 240.141601562 316.913085938 236.209960938 c 0,72,73
 332.995117188 207.325195312 332.995117188 207.325195312 381.982421875 183.819335938 c 0,74,75
 425.881835938 163.0078125 425.881835938 163.0078125 467.836914062 161.27734375 c 0,76,77
 486.366210938 160.578125 486.366210938 160.578125 520.0625 160.969726562 c 0,78,79
 608.125 162.291015625 608.125 162.291015625 669.112304688 180.689453125 c 0,80,81
 730.124023438 199.4296875 730.124023438 199.4296875 767.743164062 221.080078125 c 0,82,83
 771.534179688 223.2890625 771.534179688 223.2890625 775.221679688 225.483398438 c 128,-1,84
 778.909179688 227.678710938 778.909179688 227.678710938 782.20703125 229.684570312 c 128,-1,85
 785.505859375 231.690429688 785.505859375 231.690429688 788.522460938 233.5703125 c 128,-1,86
 791.5390625 235.450195312 791.5390625 235.450195312 794.04296875 237.05859375 c 128,-1,87
 796.545898438 238.666992188 796.545898438 238.666992188 798.586914062 240.036132812 c 128,-1,88
 800.627929688 241.405273438 800.627929688 241.405273438 802.032226562 242.419921875 c 128,-1,89
 803.436523438 243.434570312 803.436523438 243.434570312 804.196289062 244.095703125 c 128,-1,90
 804.95703125 244.756835938 804.95703125 244.756835938 804.953125 244.979492188 c 0,91,92
 804.609375 248.747070312 804.609375 248.747070312 795.272460938 299.790039062 c 0,93,94
 785.674804688 352.27734375 785.674804688 352.27734375 774.359375 861.84375 c 0,95,96
 774.325195312 863.396484375 774.325195312 863.396484375 774.3125 863.94921875 c 1,97,-1
 647.192382812 768.139648438 l 2,98,99
 521.21484375 673.31640625 521.21484375 673.31640625 498.15234375 667.399414062 c 0,100,101
 475.892578125 663.03125 475.892578125 663.03125 443.352539062 676.229492188 c 0,102,103
 411.275390625 691.05859375 411.275390625 691.05859375 392.97265625 718.489257812 c 0,104,105
 376.021484375 746.81640625 376.021484375 746.81640625 375.47265625 768.91015625 c 0,106,107
 376.01171875 790.981445312 376.01171875 790.981445312 391.302734375 817.129882812 c 0,108,109
 406.409179688 842.2265625 406.409179688 842.2265625 490.068359375 906.024414062 c 0,110,111
 492.6640625 907.997070312 492.6640625 907.997070312 494.252929688 909.19921875 c 0,112,113
 580.776367188 974.500976562 580.776367188 974.500976562 620.852539062 1003.109375 c 0,114,115
 661.192382812 1031.84179688 661.192382812 1031.84179688 708.362304688 1064.48925781 c 128,-1,116
 755.4921875 1097.00097656 755.4921875 1097.00097656 769.732421875 1103.27929688 c 0,0,1
EndSplineSet
Validated: 524321
EndChar

StartChar: V
Encoding: 86 86 44
Width: 1106
Flags: W
LayerCount: 2
Fore
SplineSet
124.625976562 1056.06054688 m 0,0,1
 154.5 1075.57324219 154.5 1075.57324219 177.2265625 1076.25 c 0,2,3
 199.791015625 1075.74902344 199.791015625 1075.74902344 221.666015625 1061.34082031 c 0,4,5
 243.196289062 1046.21875 243.196289062 1046.21875 256.545898438 1028.390625 c 0,6,7
 270.038085938 1009.08789062 270.038085938 1009.08789062 338.576171875 852.580078125 c 0,8,9
 407.262695312 695.598632812 407.262695312 695.598632812 424.255859375 653.100585938 c 0,10,11
 440.994140625 611.22265625 440.994140625 611.22265625 474.326171875 539.100585938 c 0,12,13
 507.555664062 467.247070312 507.555664062 467.247070312 529.125976562 416.810546875 c 0,14,15
 549.942382812 368.696289062 549.942382812 368.696289062 557.016601562 370.770507812 c 0,16,17
 562.844726562 375.379882812 562.844726562 375.379882812 563.5859375 383.459960938 c 0,18,19
 564.184570312 393.24609375 564.184570312 393.24609375 580.356445312 429.5 c 0,20,21
 597.188476562 467.03125 597.188476562 467.03125 618.606445312 523.760742188 c 0,22,23
 640.208007812 580.922851562 640.208007812 580.922851562 668.106445312 642.140625 c 128,-1,24
 696.092773438 703.28515625 696.092773438 703.28515625 719.375976562 747.360351562 c 0,25,26
 742.385742188 790.760742188 742.385742188 790.760742188 792.67578125 887.66015625 c 0,27,28
 842.291015625 983.026367188 842.291015625 983.026367188 863.15625 1004.140625 c 0,29,30
 883.838867188 1023.66210938 883.838867188 1023.66210938 909.885742188 1028.95019531 c 0,31,32
 936.130859375 1033.41210938 936.130859375 1033.41210938 960.295898438 1028.65039062 c 0,33,34
 984.6796875 1022.4765625 984.6796875 1022.4765625 1010.71582031 988.490234375 c 0,35,36
 1034.43945312 956.845703125 1034.43945312 956.845703125 1033.18164062 934.844726562 c 0,37,38
 1032.67773438 928.17578125 1032.67773438 928.17578125 1031.41601562 920.540039062 c 0,39,40
 1025.77050781 888.5703125 1025.77050781 888.5703125 1019.18652344 878.890625 c 0,41,42
 1011.83496094 868.676757812 1011.83496094 868.676757812 949.15625 747.360351562 c 128,-1,43
 886.458984375 625.973632812 886.458984375 625.973632812 879.266601562 615.830078125 c 128,-1,44
 872.19921875 605.575195312 872.19921875 605.575195312 789.196289062 401 c 0,45,46
 706.01953125 195.829101562 706.01953125 195.829101562 689.40625 144.180664062 c 0,47,48
 675.05859375 99.306640625 675.05859375 99.306640625 679.240234375 81.5185546875 c 0,49,50
 681.578125 72.427734375 681.578125 72.427734375 687.916015625 56.490234375 c 0,51,52
 702.899414062 19.037109375 702.899414062 19.037109375 739.15625 -63.7392578125 c 0,53,54
 775.693359375 -147.083007812 775.693359375 -147.083007812 791.40625 -182.109375 c 0,55,56
 807.349609375 -217.6875 807.349609375 -217.6875 834.916015625 -282.94921875 c 128,-1,57
 862.62890625 -348.364257812 862.62890625 -348.364257812 884.366210938 -388.169921875 c 0,58,59
 905.587890625 -427.641601562 905.587890625 -427.641601562 905.766601562 -460.509765625 c 0,60,61
 905.067382812 -493.143554688 905.067382812 -493.143554688 890.166015625 -516.469726562 c 0,62,63
 874.436523438 -539.12890625 874.436523438 -539.12890625 850.715820312 -551.549804688 c 0,64,65
 826.591796875 -563.158203125 826.591796875 -563.158203125 802.49609375 -563.849609375 c 0,66,67
 778.278320312 -563.469726562 778.278320312 -563.469726562 752.755859375 -544.120117188 c 0,68,69
 727.328125 -523.7265625 727.328125 -523.7265625 708.375976562 -493.399414062 c 0,70,71
 689.848632812 -462.766601562 689.848632812 -462.766601562 677.715820312 -432.01953125 c 0,72,73
 665.473632812 -400.634765625 665.473632812 -400.634765625 627.166015625 -313.639648438 c 0,74,75
 588.473632812 -225.899414062 588.473632812 -225.899414062 562.90625 -171.149414062 c 0,76,77
 537.975585938 -117.697265625 537.975585938 -117.697265625 537.286132812 -111.959960938 c 128,-1,78
 536.56640625 -106.14453125 536.56640625 -106.14453125 506.606445312 -41.8095703125 c 128,-1,79
 476.614257812 22.5595703125 476.614257812 22.5595703125 475.916015625 28.330078125 c 128,-1,80
 475.2109375 34.1591796875 475.2109375 34.1591796875 449.616210938 89.7099609375 c 128,-1,81
 424 145.330078125 424 145.330078125 423.31640625 151.100585938 c 128,-1,82
 422.6015625 156.887695312 422.6015625 156.887695312 395.696289062 214.669921875 c 0,83,84
 368.146484375 273.7890625 368.146484375 273.7890625 344.2265625 330.850585938 c 0,85,86
 319.818359375 389.053710938 319.818359375 389.053710938 248.236328125 550.0703125 c 0,87,88
 176.190429688 712.145507812 176.190429688 712.145507812 147.456054688 782.430664062 c 0,89,90
 118.908203125 852.166992188 118.908203125 852.166992188 95.7158203125 898.620117188 c 0,91,92
 73.158203125 944.16796875 73.158203125 944.16796875 72.755859375 968.760742188 c 0,93,94
 73.2685546875 992.794921875 73.2685546875 992.794921875 83.7158203125 1014.41015625 c 0,95,96
 95.32421875 1035.92675781 95.32421875 1035.92675781 124.625976562 1056.06054688 c 0,0,1
EndSplineSet
Validated: 524289
EndChar

StartChar: W
Encoding: 87 87 45
Width: 1514
Flags: W
LayerCount: 2
Fore
SplineSet
1034.05566406 1162.21972656 m 0,0,1
 1204.86132812 1160.69628906 1204.86132812 1160.69628906 1244.38378906 1150.89453125 c 0,2,3
 1258.28027344 1147.32128906 1258.28027344 1147.32128906 1275.15527344 1141.12988281 c 0,4,5
 1327.31542969 1121.72070312 1327.31542969 1121.72070312 1358.4453125 1101.74023438 c 0,6,7
 1389.1953125 1080.87890625 1389.1953125 1080.87890625 1413.33496094 1034.0703125 c 0,8,9
 1432.14746094 997.029296875 1432.14746094 997.029296875 1434.99511719 964.133789062 c 0,10,11
 1437.5234375 933.317382812 1437.5234375 933.317382812 1437.4453125 804.4296875 c 0,12,13
 1437.39648438 622.341796875 1437.39648438 622.341796875 1446.82519531 423 c 0,14,15
 1456.20605469 223.419921875 1456.20605469 223.419921875 1446.49511719 153.359375 c 0,16,17
 1436.38964844 83.1923828125 1436.38964844 83.1923828125 1412.90527344 39.3701171875 c 0,18,19
 1388.58789062 -4.1728515625 1388.58789062 -4.1728515625 1358.4453125 -20.5302734375 c 0,20,21
 1333.11132812 -33.787109375 1333.11132812 -33.787109375 1275.30566406 -33.7021484375 c 0,22,23
 1241.45605469 -33.6064453125 1241.45605469 -33.6064453125 1156.79492188 -30.6904296875 c 0,24,25
 985.473632812 -24.787109375 985.473632812 -24.787109375 617.615234375 -18.0400390625 c 0,26,27
 279.541015625 -11.833984375 279.541015625 -11.833984375 230.06640625 -2.1650390625 c 0,28,29
 215.592773438 0.806640625 215.592773438 0.806640625 202.875 5.26953125 c 0,30,31
 157.62890625 21.3818359375 157.62890625 21.3818359375 85.7626953125 94.5556640625 c 0,32,33
 82.27734375 98.115234375 82.27734375 98.115234375 79.71484375 100.75 c 2,34,-1
 69.095703125 223.509765625 l 2,35,36
 58.5341796875 347.505859375 58.5341796875 347.505859375 65.0556640625 631.25 c 128,-1,37
 71.59765625 914.970703125 71.59765625 914.970703125 70.6552734375 949.109375 c 0,38,39
 69.66015625 981.946289062 69.66015625 981.946289062 67.4853515625 1030.04980469 c 0,40,41
 65.556640625 1072.15917969 65.556640625 1072.15917969 76.705078125 1087.5 c 0,42,43
 82.2294921875 1094.6484375 82.2294921875 1094.6484375 91.595703125 1103.89941406 c 0,44,45
 112.110351562 1124.02734375 112.110351562 1124.02734375 139.329101562 1129.4375 c 0,46,47
 161.525390625 1133.69042969 161.525390625 1133.69042969 231.865234375 1140.14941406 c 0,48,49
 346.708007812 1150.59277344 346.708007812 1150.59277344 595.705078125 1157.24023438 c 0,50,51
 845.313476562 1163.86132812 845.313476562 1163.86132812 1034.05566406 1162.21972656 c 0,0,1
657.075195312 952.030273438 m 0,52,53
 373.2734375 946.522460938 373.2734375 946.522460938 328.305664062 941.689453125 c 2,54,-1
 284.46484375 936.859375 l 1,55,56
 271.146484375 819.127929688 271.146484375 819.127929688 265.615234375 670.709960938 c 0,57,58
 260.1484375 521.5234375 260.1484375 521.5234375 266.334960938 368.189453125 c 0,59,60
 272.58984375 216.086914062 272.58984375 216.086914062 280.384765625 201.58984375 c 0,61,62
 287.069335938 190.350585938 287.069335938 190.350585938 388.666015625 188.212890625 c 0,63,64
 427.828125 187.405273438 427.828125 187.405273438 496.745117188 186.889648438 c 0,65,66
 705.041992188 185.331054688 705.041992188 185.331054688 893.78515625 180.16015625 c 0,67,68
 1081.79785156 174.947265625 1081.79785156 174.947265625 1162.38476562 168.549804688 c 2,69,-1
 1242.48535156 162.129882812 l 1,70,71
 1250.47851562 250.489257812 1250.47851562 250.489257812 1243.28515625 390.109375 c 0,72,73
 1236.01953125 530.779296875 1236.01953125 530.779296875 1230.77539062 736.469726562 c 2,74,-1
 1225.54492188 942.530273438 l 1,75,76
 1125.73046875 964.506835938 1125.73046875 964.506835938 1037.70507812 964.530273438 c 0,77,78
 950.79296875 964.397460938 950.79296875 964.397460938 945.655273438 961 c 128,-1,79
 940.38671875 957.526367188 940.38671875 957.526367188 657.075195312 952.030273438 c 0,52,53
EndSplineSet
Validated: 524321
EndChar

StartChar: X
Encoding: 88 88 46
Width: 1202
Flags: W
LayerCount: 2
Fore
SplineSet
672.466796875 1176.62011719 m 0,0,1
 720.440429688 1173.74707031 720.440429688 1173.74707031 741.76953125 1154.45703125 c 0,2,3
 743.715820312 1152.64160156 743.715820312 1152.64160156 744.676757812 1151.72949219 c 0,4,5
 767.18359375 1128.94042969 767.18359375 1128.94042969 781.2265625 1077.18945312 c 0,6,7
 795.254882812 1024.88574219 795.254882812 1024.88574219 811.157226562 989.509765625 c 0,8,9
 827.7265625 953.0703125 827.7265625 953.0703125 861.987304688 875.51953125 c 0,10,11
 896.848632812 796.372070312 896.848632812 796.372070312 927.936523438 700.139648438 c 128,-1,12
 958.946289062 603.709960938 958.946289062 603.709960938 989.936523438 476.549804688 c 0,13,14
 1020.64648438 350.392578125 1020.64648438 350.392578125 1033.43652344 314.330078125 c 0,15,16
 1045.89941406 279.129882812 1045.89941406 279.129882812 1051.85742188 239.790039062 c 0,17,18
 1058.10058594 200.569335938 1058.10058594 200.569335938 1079.43652344 174.029296875 c 0,19,20
 1100.6953125 147.6953125 1100.6953125 147.6953125 1106.08691406 121.419921875 c 0,21,22
 1110.46484375 94.78125 1110.46484375 94.78125 1097.046875 62.2294921875 c 0,23,24
 1082.36621094 29.6181640625 1082.36621094 29.6181640625 1054.62695312 14.7294921875 c 0,25,26
 1031.63964844 2.9375 1031.63964844 2.9375 896.387695312 1.0615234375 c 0,27,28
 816.171875 -0.033203125 816.171875 -0.033203125 609.686523438 -0.1806640625 c 0,29,30
 232.174804688 -0.447265625 232.174804688 -0.447265625 189.452148438 6.7314453125 c 0,31,32
 172.341796875 9.8759765625 172.341796875 9.8759765625 158.426757812 16.6298828125 c 0,33,34
 123.948242188 34.330078125 123.948242188 34.330078125 106.787109375 64.419921875 c 0,35,36
 90.39453125 95.8779296875 90.39453125 95.8779296875 96.4873046875 125.799804688 c 0,37,38
 103.79296875 156.70703125 103.79296875 156.70703125 134.9765625 186.899414062 c 0,39,40
 167.028320312 218.235351562 167.028320312 218.235351562 187.407226562 274.58984375 c 0,41,42
 207.692382812 331.448242188 207.692382812 331.448242188 221.157226562 375.709960938 c 128,-1,43
 234.62890625 419.96484375 234.62890625 419.96484375 260.666992188 489.700195312 c 128,-1,44
 286.849609375 559.5859375 286.849609375 559.5859375 303.63671875 597.109375 c 0,45,46
 305.341796875 600.903320312 305.341796875 600.903320312 306.999023438 604.682617188 c 128,-1,47
 308.65625 608.461914062 308.65625 608.461914062 310.139648438 611.9296875 c 128,-1,48
 311.623046875 615.397460938 311.623046875 615.397460938 312.979492188 618.658203125 c 128,-1,49
 314.3359375 621.91796875 314.3359375 621.91796875 315.461914062 624.721679688 c 128,-1,50
 316.588867188 627.524414062 316.588867188 627.524414062 317.506835938 629.924804688 c 128,-1,51
 318.42578125 632.32421875 318.42578125 632.32421875 319.057617188 634.12109375 c 128,-1,52
 319.690429688 635.91796875 319.690429688 635.91796875 320.034179688 637.116210938 c 128,-1,53
 320.376953125 638.313476562 320.376953125 638.313476562 320.376953125 638.759765625 c 0,54,55
 321.076171875 644.538085938 321.076171875 644.538085938 343.666992188 693.569335938 c 0,56,57
 367.671875 745.3984375 367.671875 745.3984375 464.6171875 941.279296875 c 0,58,59
 552.609375 1119.08886719 552.609375 1119.08886719 579.026367188 1147.359375 c 0,60,61
 586.110351562 1154.5625 586.110351562 1154.5625 592.546875 1159.08007812 c 0,62,63
 620.60546875 1178.06835938 620.60546875 1178.06835938 657.078125 1177.28417969 c 0,64,65
 664.455078125 1177.08496094 664.455078125 1177.08496094 672.466796875 1176.62011719 c 0,0,1
514.626953125 573 m 0,66,67
 478.736328125 489.013671875 478.736328125 489.013671875 430.336914062 353.790039062 c 0,68,69
 382.26953125 219.326171875 382.26953125 219.326171875 381.737304688 211.299804688 c 0,70,71
 383.385742188 204.765625 383.385742188 204.765625 614.077148438 204.719726562 c 0,72,73
 845.295898438 204.791992188 845.295898438 204.791992188 846.407226562 213.489257812 c 0,74,75
 845.977539062 223.56640625 845.977539062 223.56640625 824.1171875 298.979492188 c 0,76,77
 801.92578125 375.639648438 801.92578125 375.639648438 789.216796875 437.08984375 c 0,78,79
 776.413085938 498.84765625 776.413085938 498.84765625 751.556640625 581.76953125 c 0,80,81
 726.359375 665.275390625 726.359375 665.275390625 693.407226562 748.370117188 c 0,82,83
 660.7578125 830.393554688 660.7578125 830.393554688 654.4765625 839.370117188 c 0,84,85
 649.653320312 845.747070312 649.653320312 845.747070312 608.623046875 769.07421875 c 0,86,87
 603.793945312 760.014648438 603.793945312 760.014648438 599.487304688 751.6796875 c 0,88,89
 550.380859375 656.278320312 550.380859375 656.278320312 514.626953125 573 c 0,66,67
EndSplineSet
Validated: 524321
EndChar

StartChar: Y
Encoding: 89 89 47
Width: 1196
Flags: W
LayerCount: 2
Fore
SplineSet
399.931640625 1155.13964844 m 0,0,1
 447.75390625 1165.86425781 447.75390625 1165.86425781 478.840820312 1166.70996094 c 0,2,3
 510.059570312 1166.73535156 510.059570312 1166.73535156 553.361328125 1142.35058594 c 0,4,5
 597.118164062 1116.6953125 597.118164062 1116.6953125 620.670898438 1079.04003906 c 0,6,7
 643.983398438 1040.39257812 643.983398438 1040.39257812 657.801757812 983.740234375 c 0,8,9
 671.338867188 926.086914062 671.338867188 926.086914062 671.551757812 825.900390625 c 0,10,11
 671.637695312 732.487304688 671.637695312 732.487304688 660.1953125 707.708984375 c 0,12,13
 657.350585938 701.868164062 657.350585938 701.868164062 654.151367188 696.560546875 c 0,14,15
 636.356445312 668.775390625 636.356445312 668.775390625 612.541015625 658.549804688 c 0,16,17
 588.108398438 649.432617188 588.108398438 649.432617188 553.361328125 653.879882812 c 0,18,19
 518.37109375 659.328125 518.37109375 659.328125 496.37109375 681.139648438 c 0,20,21
 479.21484375 698.6875 479.21484375 698.6875 475.529296875 727.233398438 c 0,22,23
 472.73828125 749.915039062 472.73828125 749.915039062 470.071289062 821.25 c 0,24,25
 465.631835938 937.583007812 465.631835938 937.583007812 456.920898438 948.700195312 c 0,26,27
 446.3359375 957.810546875 446.3359375 957.810546875 384.590820312 940.400390625 c 0,28,29
 322.461914062 922.630859375 322.461914062 922.630859375 317.821289062 915.780273438 c 0,30,31
 314.9921875 907.893554688 314.9921875 907.893554688 326.391601562 852.209960938 c 0,32,33
 338.204101562 795.456054688 338.204101562 795.456054688 352.250976562 751.370117188 c 0,34,35
 366.725585938 706.734375 366.725585938 706.734375 419.250976562 584.770507812 c 128,-1,36
 471.883789062 462.673828125 471.883789062 462.673828125 493.03125 415.969726562 c 0,37,38
 513.256835938 371.219726562 513.256835938 371.219726562 513.911132812 365.549804688 c 0,39,40
 513.911132812 361.211914062 513.911132812 361.211914062 575.626953125 227.491210938 c 2,41,-1
 576.086914062 226.494140625 l 1,42,-1
 576.661132812 225.25 l 1,43,-1
 602.87109375 251.560546875 l 2,44,45
 629.098632812 278.354492188 629.098632812 278.354492188 656.431640625 326.08984375 c 0,46,47
 684.032226562 375.275390625 684.032226562 375.275390625 737.951171875 532.150390625 c 0,48,49
 792.114257812 689.973632812 792.114257812 689.973632812 815.201171875 755.75 c 0,50,51
 838.716796875 822.78515625 838.716796875 822.78515625 880.840820312 944.280273438 c 0,52,53
 918.135742188 1051.85644531 918.135742188 1051.85644531 935.490234375 1071.890625 c 0,54,55
 943.090820312 1080.1171875 943.090820312 1080.1171875 953.170898438 1087.00976562 c 0,56,57
 982.81640625 1106.3984375 982.81640625 1106.3984375 1007.06152344 1106.74023438 c 0,58,59
 1031.26269531 1106.08203125 1031.26269531 1106.08203125 1057.47167969 1093.33984375 c 0,60,61
 1081.68457031 1081.234375 1081.68457031 1081.234375 1095.7421875 1056.10351562 c 0,62,63
 1096.59960938 1054.48925781 1096.59960938 1054.48925781 1096.92089844 1053.87988281 c 0,64,65
 1109.63964844 1027.69628906 1109.63964844 1027.69628906 1110.07128906 1005.66015625 c 0,66,67
 1109.58007812 982.516601562 1109.58007812 982.516601562 1062.3515625 845.629882812 c 0,68,69
 1014.04199219 705.78125 1014.04199219 705.78125 949.750976562 519 c 0,70,71
 885.232421875 331.580078125 885.232421875 331.580078125 867.6015625 291.020507812 c 0,72,73
 849.94921875 251.185546875 849.94921875 251.185546875 810.401367188 190.1796875 c 0,74,75
 770.178710938 128.77734375 770.178710938 128.77734375 709.551757812 67.419921875 c 0,76,77
 649.185546875 6.7607421875 649.185546875 6.7607421875 620.721679688 -13.689453125 c 0,78,79
 592.127929688 -33.1064453125 592.127929688 -33.1064453125 555.551757812 -33.5400390625 c 0,80,81
 523.547851562 -33.6484375 523.547851562 -33.6484375 503.838867188 -17.150390625 c 0,82,83
 494.830078125 -9.3828125 494.830078125 -9.3828125 482.090820312 3.7197265625 c 0,84,85
 445.880859375 41.6162109375 445.880859375 41.6162109375 408.630859375 111.259765625 c 0,86,87
 371.43359375 181.458007812 371.43359375 181.458007812 345.451171875 242.790039062 c 0,88,89
 318.676757812 306.185546875 318.676757812 306.185546875 290.151367188 374.3203125 c 0,90,91
 260.842773438 444.18359375 260.842773438 444.18359375 238.301757812 490.5 c 0,92,93
 216.525390625 535.252929688 216.525390625 535.252929688 215.821289062 540.919921875 c 128,-1,94
 215.153320312 546.755859375 215.153320312 546.755859375 188.231445312 608.879882812 c 0,95,96
 160.87109375 672.217773438 160.87109375 672.217773438 148.071289062 720.6796875 c 0,97,98
 135.556640625 768.9140625 135.556640625 768.9140625 124.061523438 825.900390625 c 0,99,100
 112.668945312 882.450195312 112.668945312 882.450195312 101.9609375 922.360351562 c 0,101,102
 91.4345703125 961.668945312 91.4345703125 961.668945312 86.7412109375 992.5 c 0,103,104
 82.8388671875 1018.80664062 82.8388671875 1018.80664062 97.6953125 1037.82128906 c 0,105,106
 104.971679688 1046.86230469 104.971679688 1046.86230469 117.991210938 1060.45996094 c 0,107,108
 153.803710938 1097.73339844 153.803710938 1097.73339844 178.241210938 1097.79003906 c 0,109,110
 203.569335938 1098.24804688 203.569335938 1098.24804688 277.19140625 1121.03027344 c 0,111,112
 351.412109375 1144.04492188 351.412109375 1144.04492188 399.931640625 1155.13964844 c 0,0,1
EndSplineSet
Validated: 524321
EndChar

StartChar: Z
Encoding: 90 90 48
Width: 1046
Flags: W
LayerCount: 2
Fore
SplineSet
793.8671875 1009.16992188 m 0,0,1
 817.177734375 1024.828125 817.177734375 1024.828125 839.09765625 1025.69042969 c 0,2,3
 861.305664062 1025.33886719 861.305664062 1025.33886719 891.697265625 1005.69042969 c 0,4,5
 921.747070312 985.1640625 921.747070312 985.1640625 934.287109375 959.41015625 c 0,6,7
 945.54296875 934.818359375 945.54296875 934.818359375 938.184570312 873.392578125 c 0,8,9
 937.086914062 864.338867188 937.086914062 864.338867188 935.797851562 854.510742188 c 0,10,11
 925.407226562 775.731445312 925.407226562 775.731445312 913.137695312 701.060546875 c 0,12,13
 900.96875 627.202148438 900.96875 627.202148438 878.34765625 495 c 128,-1,14
 855.900390625 362.762695312 855.900390625 362.762695312 854.217773438 227.560546875 c 0,15,16
 852.743164062 104.424804688 852.743164062 104.424804688 863.134765625 63.435546875 c 0,17,18
 866.799804688 49.333984375 866.799804688 49.333984375 873.16796875 30.2705078125 c 0,19,20
 891.43359375 -24.1923828125 891.43359375 -24.1923828125 887.81640625 -41.07421875 c 0,21,22
 885.704101562 -49.7177734375 885.704101562 -49.7177734375 879.577148438 -64 c 0,23,24
 864.395507812 -96.0341796875 864.395507812 -96.0341796875 836.907226562 -114.379882812 c 0,25,26
 808.576171875 -131.340820312 808.576171875 -131.340820312 786.487304688 -131.889648438 c 0,27,28
 764.329101562 -131.318359375 764.329101562 -131.318359375 736.077148438 -114.379882812 c 0,29,30
 708.267578125 -96.7080078125 708.267578125 -96.7080078125 696.627929688 -75.779296875 c 0,31,32
 688.454101562 -60.044921875 688.454101562 -60.044921875 680.619140625 -58.9912109375 c 0,33,34
 671.033203125 -58.3359375 671.033203125 -58.3359375 633.067382812 -67.779296875 c 0,35,36
 579.336914062 -80.748046875 579.336914062 -80.748046875 475.2578125 -76.9697265625 c 0,37,38
 381.606445312 -73.5 381.606445312 -73.5 337.694335938 -59.078125 c 0,39,40
 320.904296875 -53.4833984375 320.904296875 -53.4833984375 295.537109375 -43.3994140625 c 0,41,42
 221.497070312 -13.765625 221.497070312 -13.765625 181.797851562 12.650390625 c 0,43,44
 143.057617188 39.1689453125 143.057617188 39.1689453125 121.857421875 69.720703125 c 0,45,46
 101.857421875 99.3544921875 101.857421875 99.3544921875 105.456054688 130.578125 c 0,47,48
 105.813476562 133.475585938 105.813476562 133.475585938 106.087890625 135.490234375 c 0,49,50
 111.70703125 170.639648438 111.70703125 170.639648438 135.337890625 194.879882812 c 0,51,52
 159.864257812 218.646484375 159.864257812 218.646484375 190.327148438 224.390625 c 0,53,54
 221.387695312 228.998046875 221.387695312 228.998046875 247.317382812 215.220703125 c 0,55,56
 273.787109375 200.610351562 273.787109375 200.610351562 304.297851562 178.940429688 c 0,57,58
 335.385742188 157.150390625 335.385742188 157.150390625 383.20703125 141.879882812 c 0,59,60
 432.354492188 126.845703125 432.354492188 126.845703125 514.70703125 127.620117188 c 0,61,62
 597.084960938 128.65234375 597.084960938 128.65234375 622.107421875 138.580078125 c 0,63,64
 639.603515625 145.8828125 639.603515625 145.8828125 642.80859375 156.7734375 c 0,65,66
 646.2109375 170.022460938 646.2109375 170.022460938 646.20703125 229.75 c 0,67,68
 646.307617188 310.801757812 646.307617188 310.801757812 657.16796875 382.720703125 c 0,69,70
 667.755859375 453.288085938 667.755859375 453.288085938 660.797851562 461.640625 c 0,71,72
 652.026367188 468.633789062 652.026367188 468.633789062 551.20703125 471.709960938 c 0,73,74
 448.571289062 474.525390625 448.571289062 474.525390625 374.4375 459.91015625 c 128,-1,75
 300.361328125 445.256835938 300.361328125 445.256835938 256.077148438 440.459960938 c 0,76,77
 217.520507812 436.369140625 217.520507812 436.369140625 200.534179688 447.33984375 c 0,78,79
 193.037109375 452.426757812 193.037109375 452.426757812 183.0078125 461.020507812 c 0,80,81
 155.994140625 484.313476562 155.994140625 484.313476562 151.059570312 514.91015625 c 0,82,83
 150.229492188 520.415039062 150.229492188 520.415039062 149.657226562 525.690429688 c 0,84,85
 146.125976562 565.611328125 146.125976562 565.611328125 162.447265625 592.700195312 c 0,86,87
 178.443359375 618.74609375 178.443359375 618.74609375 225.19921875 635.44140625 c 0,88,89
 230.487304688 637.307617188 230.487304688 637.307617188 235.2578125 638.91015625 c 0,90,91
 291.743164062 657.53125 291.743164062 657.53125 400.737304688 670.850585938 c 0,92,93
 510.547851562 683.993164062 510.547851562 683.993164062 584.84765625 678.299804688 c 0,94,95
 658.390625 672.454101562 658.390625 672.454101562 679.09765625 664.850585938 c 0,96,97
 695.201171875 658.619140625 695.201171875 658.619140625 699.005859375 667.838867188 c 0,98,99
 701.393554688 674.516601562 701.393554688 674.516601562 703.77734375 690.100585938 c 0,100,101
 708.747070312 722.895507812 708.747070312 722.895507812 716.387695312 762.440429688 c 0,102,103
 724.077148438 802.453125 724.077148438 802.453125 734.077148438 880.8203125 c 0,104,105
 744.173828125 958.692382812 744.173828125 958.692382812 757.337890625 976.33984375 c 0,106,107
 771.049804688 992.975585938 771.049804688 992.975585938 793.8671875 1009.16992188 c 0,0,1
EndSplineSet
Validated: 524321
EndChar

StartChar: underscore
Encoding: 95 95 49
Width: 1284
Flags: W
LayerCount: 2
Fore
SplineSet
971 -345 m 2,0,1
 900 -345 900 -345 758 -340 c 128,-1,2
 616 -335 616 -335 545 -335 c 2,3,-1
 100 -335 l 2,4,5
 77 -335 77 -335 31 -340 c 128,-1,6
 -15 -345 -15 -345 -37 -345 c 1,7,-1
 -37 -160 l 1,8,9
 63 -160 63 -160 263 -158.5 c 128,-1,10
 463 -157 463 -157 563 -157 c 0,11,12
 634 -157 634 -157 774.5 -162.5 c 128,-1,13
 915 -168 915 -168 986 -168 c 2,14,-1
 1321 -160 l 1,15,-1
 1321 -345 l 1,16,-1
 971 -345 l 2,0,1
EndSplineSet
Validated: 1
EndChar

StartChar: a
Encoding: 97 97 50
Width: 1247
Flags: W
LayerCount: 2
Fore
SplineSet
127.009765625 1106.25 m 0,0,1
 155.388671875 1123.22851562 155.388671875 1123.22851562 179.610351562 1123.79003906 c 0,2,3
 203.791015625 1123.39746094 203.791015625 1123.39746094 230.01953125 1110.66992188 c 0,4,5
 254.240234375 1098.55175781 254.240234375 1098.55175781 268.291015625 1073.43359375 c 0,6,7
 269.1484375 1071.81933594 269.1484375 1071.81933594 269.469726562 1071.20996094 c 0,8,9
 282.506835938 1043.58105469 282.506835938 1043.58105469 282.620117188 961.600585938 c 0,10,11
 282.842773438 878.69140625 282.842773438 878.69140625 294.940429688 854.190429688 c 0,12,13
 307.598632812 830.216796875 307.598632812 830.216796875 327.8203125 811 c 0,14,15
 348.993164062 791.845703125 348.993164062 791.845703125 392.209960938 770.259765625 c 0,16,17
 435.892578125 748.918945312 435.892578125 748.918945312 471.120117188 742.5703125 c 0,18,19
 506.955078125 736.912109375 506.955078125 736.912109375 563.169921875 750.83984375 c 0,20,21
 619.841796875 765.296875 619.841796875 765.296875 658.4296875 788.830078125 c 0,22,23
 696.206054688 812.193359375 696.206054688 812.193359375 712.25 821.299804688 c 0,24,25
 728.169921875 830.65625 728.169921875 830.65625 751.290039062 851.990234375 c 0,26,27
 775.314453125 874.869140625 775.314453125 874.869140625 826.790039062 950.639648438 c 0,28,29
 877.814453125 1026.09667969 877.814453125 1026.09667969 878.790039062 1036.12988281 c 0,30,31
 879.815429688 1045.75 879.815429688 1045.75 900.709960938 1071.20996094 c 0,32,33
 923.412109375 1097.22558594 923.412109375 1097.22558594 955.5 1102.78027344 c 0,34,35
 988.974609375 1107.46777344 988.974609375 1107.46777344 1021.75 1091.8203125 c 0,36,37
 1054.77734375 1074.87011719 1054.77734375 1074.87011719 1067.78027344 1047.08984375 c 0,38,39
 1079.99609375 1018.95996094 1079.99609375 1018.95996094 1080.4296875 1001.06054688 c 0,40,41
 1079.95019531 983.032226562 1079.95019531 983.032226562 1065.70996094 950.639648438 c 0,42,43
 1050.42871094 917.110351562 1050.42871094 917.110351562 1000.65039062 843.23046875 c 0,44,45
 950.416015625 769.099609375 950.416015625 769.099609375 907.969726562 724.030273438 c 0,46,47
 865.853515625 679.846679688 865.853515625 679.846679688 835.129882812 658.270507812 c 0,48,49
 805.083007812 637.534179688 805.083007812 637.534179688 786.91015625 626.8203125 c 0,50,51
 768.196289062 616.03125 768.196289062 616.03125 712.209960938 588.91015625 c 0,52,53
 655.15234375 561.520507812 655.15234375 561.520507812 596.049804688 548.830078125 c 0,54,55
 537.2265625 536.530273438 537.2265625 536.530273438 499.610351562 536.25 c 0,56,57
 461.919921875 536.448242188 461.919921875 536.448242188 400.98046875 552.3203125 c 0,58,59
 339.666992188 568.622070312 339.666992188 568.622070312 287.059570312 594.040039062 c 0,60,61
 234.354492188 620.1484375 234.354492188 620.1484375 181.860351562 672.379882812 c 0,62,63
 130.171875 724.927734375 130.171875 724.927734375 107.599609375 768.83984375 c 0,64,65
 88.73046875 807.020507812 88.73046875 807.020507812 85.1953125 864.556640625 c 0,66,67
 83.83984375 887.25390625 83.83984375 887.25390625 82.6904296875 926.530273438 c 0,68,69
 79.5458984375 1039.79296875 79.5458984375 1039.79296875 88.9501953125 1064.62988281 c 0,70,71
 99.2763671875 1088.51855469 99.2763671875 1088.51855469 127.009765625 1106.25 c 0,0,1
541.25 512.759765625 m 128,-1,73
 576.575195312 515.803710938 576.575195312 515.803710938 642.080078125 517.360351562 c 0,74,75
 707.659179688 518.666992188 707.659179688 518.666992188 760.4296875 505.110351562 c 0,76,77
 813.272460938 491.034179688 813.272460938 491.034179688 882.73046875 454.650390625 c 0,78,79
 951.807617188 417.690429688 951.807617188 417.690429688 997.66015625 374.110351562 c 0,80,81
 1042.69726562 330.04296875 1042.69726562 330.04296875 1072.62011719 277.759765625 c 0,82,83
 1102.19335938 225.10546875 1102.19335938 225.10546875 1120.83984375 163.770507812 c 0,84,85
 1138.90625 102.877929688 1138.90625 102.877929688 1134.83007812 75.9697265625 c 0,86,87
 1129.98144531 49.8173828125 1129.98144531 49.8173828125 1116.33984375 28.7802734375 c 0,88,89
 1101.86425781 8.23046875 1101.86425781 8.23046875 1078.24023438 -4.099609375 c 0,90,91
 1054.05175781 -15.712890625 1054.05175781 -15.712890625 1027.83007812 -16.08984375 c 0,92,93
 1000.90722656 -15.1083984375 1000.90722656 -15.1083984375 970.5 12.400390625 c 0,94,95
 939.49609375 41.9814453125 939.49609375 41.9814453125 930.919921875 84.740234375 c 0,96,97
 921.99609375 128.67578125 921.99609375 128.67578125 894 176 c 0,98,99
 864.864257812 223.568359375 864.864257812 223.568359375 817.419921875 256.540039062 c 0,100,101
 769.091796875 289.374023438 769.091796875 289.374023438 716.599609375 303.240234375 c 0,102,103
 667.002929688 316.043945312 667.002929688 316.043945312 586.3203125 310.389648438 c 0,104,105
 573.515625 309.48046875 573.515625 309.48046875 558.790039062 308.290039062 c 0,106,107
 454.296875 299.72265625 454.296875 299.72265625 414.129882812 287.83984375 c 0,108,109
 374.9609375 275.796875 374.9609375 275.796875 348.379882812 259.860351562 c 0,110,111
 322.701171875 243.883789062 322.701171875 243.883789062 310.969726562 230.040039062 c 0,112,113
 300.245117188 215.5859375 300.245117188 215.5859375 300.009765625 183.389648438 c 0,114,115
 299.874023438 150.16796875 299.874023438 150.16796875 286.040039062 100.08984375 c 0,116,117
 271.703125 50.208984375 271.703125 50.208984375 248.780273438 25.3701171875 c 0,118,119
 228.053710938 3.59765625 228.053710938 3.59765625 200.866210938 1.7001953125 c 0,120,121
 193.14453125 1.2431640625 193.14453125 1.2431640625 183.990234375 1.259765625 c 0,122,123
 145.00390625 1.4345703125 145.00390625 1.4345703125 121.387695312 20.5751953125 c 0,124,125
 117.30078125 23.9736328125 117.30078125 23.9736328125 113.860351562 27.0302734375 c 0,126,127
 89.7080078125 48.7236328125 89.7080078125 48.7236328125 87.076171875 68.548828125 c 0,128,129
 85.9365234375 78.5546875 85.9365234375 78.5546875 86.240234375 94.990234375 c 0,130,131
 87.2275390625 137.90234375 87.2275390625 137.90234375 98.26953125 238.190429688 c 0,132,133
 109.513671875 338.34765625 109.513671875 338.34765625 123.690429688 359.770507812 c 0,134,135
 138.748046875 380.477539062 138.748046875 380.477539062 177.419921875 399.879882812 c 0,136,137
 216.6796875 419.173828125 216.6796875 419.173828125 260.709960938 442.0703125 c 0,138,139
 304.4609375 464.719726562 304.4609375 464.719726562 343.990234375 478.280273438 c 0,140,141
 383.8671875 491.611328125 383.8671875 491.611328125 444.8203125 500.669921875 c 128,-1,72
 505.743164062 509.587890625 505.743164062 509.587890625 541.25 512.759765625 c 128,-1,73
EndSplineSet
Validated: 33
EndChar

StartChar: b
Encoding: 98 98 51
Width: 1215
Flags: W
LayerCount: 2
Fore
SplineSet
610.012695312 1070.31054688 m 132,-1,1
 666.701171875 1081.42382812 666.701171875 1081.42382812 706.453125 1082.62988281 c 4,2,3
 746.171875 1083.39257812 746.171875 1083.39257812 798.512695312 1070.27050781 c 4,4,5
 851.147460938 1056.67675781 851.147460938 1056.67675781 908.103515625 1028.90039062 c 4,6,7
 964.640625 1000.81542969 964.640625 1000.81542969 998.983398438 965.520507812 c 4,8,9
 1032.62011719 929.9609375 1032.62011719 929.9609375 1053.7734375 888.469726562 c 4,10,11
 1074.17089844 847.23046875 1074.17089844 847.23046875 1074.64355469 822.700195312 c 4,12,13
 1074.06054688 798.407226562 1074.06054688 798.407226562 1057.10351562 770.08984375 c 4,14,15
 1039.31738281 742.293945312 1039.31738281 742.293945312 1015.49316406 732.080078125 c 4,16,17
 991.056640625 722.963867188 991.056640625 722.963867188 956.323242188 727.5703125 c 4,18,19
 921.806640625 732.931640625 921.806640625 732.931640625 905.143554688 748.049804688 c 4,20,21
 888.934570312 764.129882812 888.934570312 764.129882812 870.073242188 797.75 c 4,22,23
 851.517578125 831.254882812 851.517578125 831.254882812 808.19140625 851.153320312 c 4,24,25
 806.146484375 852.081054688 806.146484375 852.081054688 805.083007812 852.560546875 c 4,26,27
 758.262695312 872.955078125 758.262695312 872.955078125 704.262695312 872.969726562 c 4,28,29
 649.33984375 872.59375 649.33984375 872.59375 588.103515625 856.41015625 c 4,30,31
 527.24609375 840.015625 527.24609375 840.015625 496.04296875 825.270507812 c 4,32,33
 465.522460938 810.5625 465.522460938 810.5625 443.443359375 798.620117188 c 4,34,35
 420.91796875 785.99609375 420.91796875 785.99609375 373.302734375 743.849609375 c 132,-1,36
 325.541015625 701.771484375 325.541015625 701.771484375 298.783203125 694.379882812 c 4,37,38
 271.840820312 688.3515625 271.840820312 688.3515625 239.603515625 701.530273438 c 4,39,40
 207.549804688 716.298828125 207.549804688 716.298828125 188.733398438 743.780273438 c 4,41,42
 171.094726562 773.19140625 171.094726562 773.19140625 175.342773438 807.360351562 c 4,43,44
 181.034179688 843.25390625 181.034179688 843.25390625 217.443359375 880.33984375 c 4,45,46
 255.50390625 918.37890625 255.50390625 918.37890625 329.473632812 964.389648438 c 4,47,48
 403.447265625 1010.05859375 403.447265625 1010.05859375 443.443359375 1024.78027344 c 4,49,50
 482.904296875 1038.95996094 482.904296875 1038.95996094 517.962890625 1049.02050781 c 4,51,0
 553.423828125 1059.04296875 553.423828125 1059.04296875 610.012695312 1070.31054688 c 132,-1,1
549.2734375 615.709960938 m 4,52,53
 578.629882812 626.500976562 578.629882812 626.500976562 590.29296875 627.259765625 c 4,54,55
 601.842773438 627.151367188 601.842773438 627.151367188 623.163085938 618.830078125 c 4,56,57
 645.110351562 609.483398438 645.110351562 609.483398438 667.033203125 585.950195312 c 4,58,59
 688.728515625 560.780273438 688.728515625 560.780273438 688.953125 524.5703125 c 4,60,61
 688.421875 487.30078125 688.421875 487.30078125 671.3828125 461 c 4,62,63
 653.10546875 434.993164062 653.10546875 434.993164062 620.973632812 425.129882812 c 4,64,65
 588.40234375 416 588.40234375 416 566.18359375 420.700195312 c 4,66,67
 544.060546875 426.58203125 544.060546875 426.58203125 517.962890625 452.759765625 c 4,68,69
 494.588867188 476.690429688 494.588867188 476.690429688 492.3125 503.28125 c 4,70,71
 491.692382812 511.639648438 491.692382812 511.639648438 491.663085938 522.030273438 c 4,72,73
 492.0390625 563.938476562 492.0390625 563.938476562 505.43359375 584.440429688 c 4,74,75
 519.840820312 604.205078125 519.840820312 604.205078125 549.2734375 615.709960938 c 4,52,53
121.983398438 536.9296875 m 4,76,77
 147.287109375 556.99609375 147.287109375 556.99609375 176.783203125 557.450195312 c 4,78,79
 206.450195312 557.139648438 206.450195312 557.139648438 226.453125 548.080078125 c 4,80,81
 246.078125 538.063476562 246.078125 538.063476562 262.922851562 515.200195312 c 4,82,83
 279.470703125 491.07421875 279.470703125 491.07421875 286.783203125 439.080078125 c 4,84,85
 294.116210938 386.483398438 294.116210938 386.483398438 313.212890625 338.240234375 c 4,86,87
 332.668945312 290.306640625 332.668945312 290.306640625 359.493164062 256.0703125 c 4,88,89
 386.471679688 222.659179688 386.471679688 222.659179688 412.752929688 206.389648438 c 4,90,91
 439.779296875 190.684570312 439.779296875 190.684570312 504.813476562 177.4296875 c 4,92,93
 570.912109375 164.455078125 570.912109375 164.455078125 614.403320312 171.849609375 c 4,94,95
 657.856445312 179.497070312 657.856445312 179.497070312 684.533203125 187.360351562 c 4,96,97
 711.170898438 195.651367188 711.170898438 195.651367188 750.29296875 219.8203125 c 4,98,99
 788.4765625 243.721679688 788.4765625 243.721679688 794.123046875 250.129882812 c 132,-1,100
 799.751953125 256.708984375 799.751953125 256.708984375 832.502929688 281.709960938 c 4,101,102
 866.130859375 307.813476562 866.130859375 307.813476562 886.462890625 342.620117188 c 4,103,104
 906.35546875 378.001953125 906.35546875 378.001953125 922.252929688 430.310546875 c 4,105,106
 937.962890625 482.143554688 937.962890625 482.143554688 948.5234375 500.459960938 c 4,107,108
 959.860351562 517.973632812 959.860351562 517.973632812 992.712890625 534.41015625 c 4,109,110
 1023.984375 549.622070312 1023.984375 549.622070312 1047.90332031 544.078125 c 4,111,112
 1053.49609375 542.7109375 1053.49609375 542.7109375 1059.33300781 540.990234375 c 4,113,114
 1091.9375 530.624023438 1091.9375 530.624023438 1114.12304688 504.83984375 c 4,115,116
 1135.32519531 478.655273438 1135.32519531 478.655273438 1136.04296875 456.610351562 c 4,117,118
 1135.74023438 434.032226562 1135.74023438 434.032226562 1122.73339844 384.270507812 c 4,119,120
 1109.17675781 333.70703125 1109.17675781 333.70703125 1079.05273438 272.469726562 c 4,121,122
 1048.6171875 211.502929688 1048.6171875 211.502929688 1015.65332031 175.310546875 c 4,123,124
 982.388671875 139.548828125 982.388671875 139.548828125 938.783203125 104.58984375 c 4,125,126
 894.9140625 69.779296875 894.9140625 69.779296875 848.922851562 41.7197265625 c 4,127,128
 802.493164062 13.841796875 802.493164062 13.841796875 734.953125 -8.7294921875 c 4,129,130
 667.060546875 -31.0439453125 667.060546875 -31.0439453125 605.6328125 -36.189453125 c 4,131,132
 543.293945312 -40.8125 543.293945312 -40.8125 460.973632812 -22.3896484375 c 4,133,134
 378.389648438 -3.6767578125 378.389648438 -3.6767578125 347.002929688 12.0498046875 c 4,135,136
 316.084960938 27.9853515625 316.084960938 27.9853515625 281.252929688 50.060546875 c 4,137,138
 246.161132812 72.85546875 246.161132812 72.85546875 210.573242188 115.419921875 c 4,139,140
 175.298828125 158.309570312 175.298828125 158.309570312 157.3828125 189.169921875 c 4,141,142
 139.688476562 220.403320312 139.688476562 220.403320312 116.643554688 281.240234375 c 4,143,144
 93.6611328125 342.658203125 93.6611328125 342.658203125 83.603515625 404 c 4,145,146
 73.890625 464.266601562 73.890625 464.266601562 84.4853515625 488.787109375 c 4,147,148
 85.17578125 490.334960938 85.17578125 490.334960938 85.4228515625 490.889648438 c 4,149,150
 97.6396484375 516.267578125 97.6396484375 516.267578125 121.983398438 536.9296875 c 4,76,77
EndSplineSet
Validated: 33
EndChar

StartChar: c
Encoding: 99 99 52
Width: 1052
Flags: W
LayerCount: 2
Fore
SplineSet
147.90625 1058.609375 m 0,0,1
 170.080078125 1058.03808594 170.080078125 1058.03808594 198.31640625 1041.109375 c 0,2,3
 224.86328125 1024.79492188 224.86328125 1024.79492188 238.077148438 997.180664062 c 0,4,5
 238.774414062 995.643554688 238.774414062 995.643554688 239.016601562 995.109375 c 0,6,7
 250.192382812 969.024414062 250.192382812 969.024414062 247.973632812 748.193359375 c 0,8,9
 247.5 701.563476562 247.5 701.563476562 246.606445312 637.790039062 c 0,10,11
 242.403320312 338.46875 242.403320312 338.46875 234.14453125 304.708984375 c 0,12,13
 230.919921875 292.883789062 230.919921875 292.883789062 225.626953125 284.849609375 c 0,14,15
 208.625976562 261.126953125 208.625976562 261.126953125 176.396484375 251.1796875 c 0,16,17
 143.513671875 241.61328125 143.513671875 241.61328125 121.606445312 246.739257812 c 0,18,19
 99.546875 252.56640625 99.546875 252.56640625 75.1162109375 276.040039062 c 0,20,21
 53.951171875 296.83984375 53.951171875 296.83984375 47.7314453125 332.79296875 c 0,22,23
 45.296875 347.29296875 45.296875 347.29296875 42.7060546875 370.349609375 c 0,24,25
 34.9326171875 441.465820312 34.9326171875 441.465820312 39.99609375 707.939453125 c 0,26,27
 45.2138671875 974.928710938 45.2138671875 974.928710938 57.06640625 999.489257812 c 0,28,29
 69.6650390625 1023.37207031 69.6650390625 1023.37207031 97.49609375 1041.109375 c 0,30,31
 125.795898438 1058.06054688 125.795898438 1058.06054688 147.90625 1058.609375 c 0,0,1
910.646484375 593.359375 m 0,32,33
 935.526367188 593 935.526367188 593 961.056640625 576.379882812 c 0,34,35
 989.526367188 558 989.526367188 558 1003.60644531 530.370117188 c 0,36,37
 1016.89550781 503.200195312 1016.89550781 503.200195312 1013.19628906 436.506835938 c 0,38,39
 1008.52636719 350 1008.52636719 350 1008.30664062 339.66015625 c 0,40,41
 1008.52636719 320 1008.52636719 320 993.526367188 -90 c 0,42,43
 988.526367188 -223 988.526367188 -223 981.42578125 -263.249023438 c 0,44,45
 980.526367188 -268 980.526367188 -268 979.326171875 -271.975585938 c 0,46,47
 963.526367188 -333 963.526367188 -333 938.40625 -378.10546875 c 0,48,49
 919.526367188 -411 919.526367188 -411 867.729492188 -461.83984375 c 0,50,51
 865.526367188 -464 865.526367188 -464 864.936523438 -464.275390625 c 0,52,53
 816.526367188 -506 816.526367188 -506 753.15625 -535.706054688 c 0,54,55
 685.526367188 -567 685.526367188 -567 630.416015625 -575.635742188 c 0,56,57
 571.526367188 -585 571.526367188 -585 514.24609375 -581.3359375 c 0,58,59
 456.526367188 -577 456.526367188 -577 404.65625 -552.435546875 c 0,60,61
 351.526367188 -527 351.526367188 -527 281.146484375 -456.85546875 c 0,62,63
 218.526367188 -395 218.526367188 -395 183.979492188 -331.928710938 c 0,64,65
 178.526367188 -322 178.526367188 -322 173.486328125 -311.42578125 c 0,66,67
 136.526367188 -235 136.526367188 -235 136.99609375 -212.786132812 c 0,68,69
 137.526367188 -189 137.526367188 -189 152.606445312 -162.67578125 c 0,70,71
 169.526367188 -135 169.526367188 -135 194.24609375 -121.956054688 c 0,72,73
 223.526367188 -107 223.526367188 -107 255.616210938 -112.755859375 c 0,74,75
 292.526367188 -120 292.526367188 -120 303.8359375 -130.755859375 c 0,76,77
 317.526367188 -144 317.526367188 -144 349.255859375 -207.60546875 c 0,78,79
 381.526367188 -272 381.526367188 -272 428.15625 -318.366210938 c 0,80,81
 477.526367188 -366 477.526367188 -366 505.4765625 -374.345703125 c 0,82,83
 536.526367188 -384 536.526367188 -384 575.616210938 -379.286132812 c 0,84,85
 615.526367188 -374 615.526367188 -374 658.90625 -354.916015625 c 0,86,87
 702.526367188 -335 702.526367188 -335 726.965820312 -316.725585938 c 0,88,89
 751.526367188 -298 751.526367188 -298 770.3359375 -254.435546875 c 0,90,91
 792.526367188 -205 792.526367188 -205 789.526367188 -144 c 0,92,93
 788.526367188 -120 788.526367188 -120 789.49609375 -68.080078125 c 0,94,95
 796.526367188 221 796.526367188 221 803.116210938 376.189453125 c 0,96,97
 809.526367188 515 809.526367188 515 818.081054688 536.129882812 c 0,98,99
 822.526367188 546 822.526367188 546 830.456054688 555.049804688 c 0,100,101
 853.526367188 580 853.526367188 580 869.90625 585.919921875 c 0,102,103
 888.526367188 593 888.526367188 593 910.646484375 593.359375 c 0,32,33
527.086914062 523.450195312 m 0,104,105
 543.021484375 523.313476562 543.021484375 523.313476562 573.106445312 510.639648438 c 0,106,107
 603.461914062 496.74609375 603.461914062 496.74609375 618.026367188 468.989257812 c 0,108,109
 631.887695312 439.801757812 631.887695312 439.801757812 626.986328125 405.419921875 c 0,110,111
 621.078125 370.309570312 621.078125 370.309570312 597.416992188 346.049804688 c 0,112,113
 575.408203125 324.041015625 575.408203125 324.041015625 546.77734375 322.288085938 c 0,114,115
 539.569335938 321.91796875 539.569335938 321.91796875 531.466796875 321.9296875 c 0,116,117
 491.94921875 322.110351562 491.94921875 322.110351562 468.412109375 341.536132812 c 0,118,119
 465.264648438 344.202148438 465.264648438 344.202148438 462.9765625 346.229492188 c 0,120,121
 436.372070312 371.193359375 436.372070312 371.193359375 431.216796875 405.419921875 c 0,122,123
 426.807617188 440.844726562 426.807617188 440.844726562 440.526367188 468.989257812 c 0,124,125
 453.21875 494.422851562 453.21875 494.422851562 479.881835938 508.642578125 c 0,126,127
 482.076171875 509.743164062 482.076171875 509.743164062 483.24609375 510.299804688 c 0,128,129
 511.258789062 522.65625 511.258789062 522.65625 527.086914062 523.450195312 c 0,104,105
EndSplineSet
Validated: 33
EndChar

StartChar: d
Encoding: 100 100 53
Width: 1173
Flags: W
LayerCount: 2
Fore
SplineSet
257.685546875 1059.66992188 m 0,0,1
 374.107421875 1064.54492188 374.107421875 1064.54492188 692.975585938 1066.20996094 c 0,2,3
 982.375976562 1067.71386719 982.375976562 1067.71386719 1015.72558594 1060.75292969 c 0,4,5
 1029.72558594 1057.484375 1029.72558594 1057.484375 1041.46582031 1050.36035156 c 0,6,7
 1069.49121094 1032.44726562 1069.49121094 1032.44726562 1084.125 1004.36035156 c 0,8,9
 1097.98339844 974.666015625 1097.98339844 974.666015625 1091.83496094 927.639648438 c 0,10,11
 1084.59375 878.381835938 1084.59375 878.381835938 1041.56542969 809.259765625 c 0,12,13
 997.479492188 738.885742188 997.479492188 738.885742188 926.145507812 647.040039062 c 0,14,15
 855.4140625 556.075195312 855.4140625 556.075195312 841.6953125 536.259765625 c 0,16,17
 828.185546875 516.643554688 828.185546875 516.643554688 774.065429688 442 c 0,18,19
 719.6015625 366.649414062 719.6015625 366.649414062 689.60546875 302.879882812 c 0,20,21
 659.935546875 238.983398438 659.935546875 238.983398438 632.905273438 156 c 0,22,23
 606.115234375 73.341796875 606.115234375 73.341796875 596.815429688 35.4296875 c 0,24,25
 587.424804688 -1.5146484375 587.424804688 -1.5146484375 566.60546875 -25.9501953125 c 0,26,27
 548.477539062 -46.6103515625 548.477539062 -46.6103515625 524.65234375 -49.0556640625 c 0,28,29
 513.9140625 -50.033203125 513.9140625 -50.033203125 496.665039062 -50.0595703125 c 0,30,31
 452.913085938 -50.0595703125 452.913085938 -50.0595703125 435.442382812 -36.4619140625 c 0,32,33
 429.625 -31.7021484375 429.625 -31.7021484375 423.584960938 -25.7294921875 c 0,34,35
 402.71875 -4.8447265625 402.71875 -4.8447265625 400.393554688 20.224609375 c 0,36,37
 399.484375 31.2958984375 399.484375 31.2958984375 399.555664062 48.8095703125 c 0,38,39
 400.095703125 99.0654296875 400.095703125 99.0654296875 415.645507812 151.620117188 c 0,40,41
 431.65234375 204.740234375 431.65234375 204.740234375 457.765625 278.759765625 c 0,42,43
 484.28125 353.477539062 484.28125 353.477539062 508.865234375 401.520507812 c 1,44,-1
 454.065429688 401.599609375 l 2,45,46
 398.734375 401.826171875 398.734375 401.826171875 298.4453125 414.450195312 c 0,47,48
 208.426757812 425.854492188 208.426757812 425.854492188 188.610351562 438.703125 c 0,49,50
 180.946289062 444.020507812 180.946289062 444.020507812 173.215820312 451.639648438 c 0,51,52
 149.103515625 476.75390625 149.103515625 476.75390625 144.385742188 511.129882812 c 0,53,54
 140.40234375 545.971679688 140.40234375 545.971679688 151.255859375 567.740234375 c 0,55,56
 163.34375 589.291015625 163.34375 589.291015625 193.245117188 610.08984375 c 0,57,58
 221.693359375 629.39453125 221.693359375 629.39453125 248.048828125 626.391601562 c 0,59,60
 253.526367188 625.704101562 253.526367188 625.704101562 258.995117188 624.770507812 c 0,61,62
 295.237304688 618.58984375 295.237304688 618.58984375 460.645507812 608.0703125 c 0,63,64
 625.697265625 597.6328125 625.697265625 597.6328125 633.794921875 600.349609375 c 0,65,66
 641.40234375 604.754882812 641.40234375 604.754882812 701.6953125 688.690429688 c 0,67,68
 764.005859375 775.493164062 764.005859375 775.493164062 824.475585938 857.490234375 c 1,69,-1
 491.325195312 857.490234375 l 2,70,71
 186.55078125 857.490234375 186.55078125 857.490234375 151.301757812 865.502929688 c 0,72,73
 140.012695312 868.3515625 140.012695312 868.3515625 132.185546875 872.830078125 c 0,74,75
 106.669921875 888.563476562 106.669921875 888.563476562 92.7353515625 912.290039062 c 0,76,77
 79.783203125 936.157226562 79.783203125 936.157226562 79.275390625 953.940429688 c 0,78,79
 79.7578125 971.783203125 79.7578125 971.783203125 91.505859375 995.58984375 c 0,80,81
 104.0625 1019.50585938 104.0625 1019.50585938 123.075195312 1037.24023438 c 0,82,83
 139.599609375 1052.23730469 139.599609375 1052.23730469 194.010742188 1056.27441406 c 0,84,85
 216.883789062 1057.93164062 216.883789062 1057.93164062 257.685546875 1059.66992188 c 0,0,1
EndSplineSet
Validated: 33
EndChar

StartChar: e
Encoding: 101 101 54
Width: 1268
Flags: W
LayerCount: 2
Fore
SplineSet
816.995117188 1119.62988281 m 0,0,1
 879.3984375 1135.5625 879.3984375 1135.5625 970.415039062 1132.91015625 c 0,2,3
 1062.61230469 1129.82617188 1062.61230469 1129.82617188 1093.15527344 1113 c 0,4,5
 1123.60644531 1095.11621094 1123.60644531 1095.11621094 1140.40527344 1061.01953125 c 0,6,7
 1155.65820312 1028.93652344 1155.65820312 1028.93652344 1150.33398438 1005.65234375 c 0,8,9
 1148.89746094 999.720703125 1148.89746094 999.720703125 1146.97558594 993.309570312 c 0,10,11
 1135.71484375 959.903320312 1135.71484375 959.903320312 1096.79492188 929.739257812 c 1,12,-1
 1099.67578125 587.759765625 l 2,13,14
 1102.56933594 247.091796875 1102.56933594 247.091796875 1111.515625 206.330078125 c 0,15,16
 1120.76171875 167.022460938 1120.76171875 167.022460938 1141.88574219 133.989257812 c 0,17,18
 1162.94335938 100.657226562 1162.94335938 100.657226562 1163.29492188 66.029296875 c 0,19,20
 1162.796875 31.0185546875 1162.796875 31.0185546875 1145.75585938 4.6494140625 c 0,21,22
 1127.47265625 -21.3486328125 1127.47265625 -21.3486328125 1095.34570312 -31.2099609375 c 0,23,24
 1062.78417969 -40.34765625 1062.78417969 -40.34765625 1040.55566406 -35.91015625 c 0,25,26
 1018.39550781 -30.181640625 1018.39550781 -30.181640625 990.145507812 -0.0400390625 c 0,27,28
 961.7890625 31.2939453125 961.7890625 31.2939453125 940.015625 76.9892578125 c 0,29,30
 918.590820312 123.076171875 918.590820312 123.076171875 909.235351562 171.259765625 c 0,31,32
 900.166992188 220.391601562 900.166992188 220.391601562 900.1953125 412.389648438 c 0,33,34
 900.24609375 606.497070312 900.24609375 606.497070312 887.125 926.729492188 c 1,35,-1
 860.825195312 921.389648438 l 2,36,37
 834.306640625 915.743164062 834.306640625 915.743164062 803.845703125 900.969726562 c 0,38,39
 772.633789062 884.375 772.633789062 884.375 746.315429688 833.279296875 c 0,40,41
 719.39453125 780.3046875 719.39453125 780.3046875 683.485351562 688.599609375 c 0,42,43
 647.495117188 596.001953125 647.495117188 596.001953125 620.595703125 465 c 0,44,45
 593.672851562 333.65234375 593.672851562 333.65234375 565.155273438 228.25 c 0,46,47
 536.420898438 123.086914062 536.420898438 123.086914062 504.834960938 70.419921875 c 0,48,49
 474.731445312 20.6064453125 474.731445312 20.6064453125 430.536132812 -17.341796875 c 0,50,51
 428.77734375 -18.828125 428.77734375 -18.828125 428.025390625 -19.4599609375 c 0,52,53
 382.487304688 -56.4140625 382.487304688 -56.4140625 352.334960938 -56.73046875 c 0,54,55
 321.8203125 -56.3232421875 321.8203125 -56.3232421875 297.53515625 -43.16015625 c 0,56,57
 273.387695312 -28.7783203125 273.387695312 -28.7783203125 249.315429688 9.4501953125 c 0,58,59
 225.405273438 48.68359375 225.405273438 48.68359375 211.505859375 98.919921875 c 0,60,61
 197.734375 149.830078125 197.734375 149.830078125 180.955078125 232.639648438 c 0,62,63
 164.174804688 315.962890625 164.174804688 315.962890625 154.665039062 403.620117188 c 0,64,65
 145.318359375 490.193359375 145.318359375 490.193359375 141.315429688 508.849609375 c 128,-1,66
 137.2890625 527.383789062 137.2890625 527.383789062 123.965820312 627.219726562 c 0,67,68
 110.612304688 728.166992188 110.612304688 728.166992188 105.9453125 842.049804688 c 0,69,70
 101.525390625 955.997070312 101.525390625 955.997070312 112.865234375 999.580078125 c 0,71,72
 123.821289062 1040.94824219 123.821289062 1040.94824219 149.765625 1059.73242188 c 0,73,74
 152.83203125 1061.89257812 152.83203125 1061.89257812 155.075195312 1063.39941406 c 0,75,76
 185.598632812 1083.08789062 185.598632812 1083.08789062 209.865234375 1083.4296875 c 0,77,78
 234.067382812 1082.77246094 234.067382812 1082.77246094 260.275390625 1070.04003906 c 0,79,80
 285.939453125 1056.56054688 285.939453125 1056.56054688 297.28515625 1037.14941406 c 0,81,82
 307.911132812 1015.89648438 307.911132812 1015.89648438 309.10546875 885.899414062 c 0,83,84
 310.397460938 753.63671875 310.397460938 753.63671875 332.915039062 605.299804688 c 128,-1,85
 355.49609375 456.8515625 355.49609375 456.8515625 362.735351562 396.049804688 c 0,86,87
 369.852539062 337.301757812 369.852539062 337.301757812 376.4453125 332.479492188 c 0,88,89
 378.908203125 331.2109375 378.908203125 331.2109375 382.805664062 338.4375 c 0,90,91
 387.586914062 347.961914062 387.586914062 347.961914062 391.185546875 361.969726562 c 0,92,93
 399.432617188 395.506835938 399.432617188 395.506835938 413.67578125 473.76953125 c 0,94,95
 428.024414062 552.489257812 428.024414062 552.489257812 444.165039062 614.069335938 c 0,96,97
 460.115234375 674.514648438 460.115234375 674.514648438 466.495117188 692.989257812 c 0,98,99
 473.178710938 711.767578125 473.178710938 711.767578125 517.315429688 820.129882812 c 0,100,101
 561.787109375 929.038085938 561.787109375 929.038085938 590.845703125 975.76953125 c 0,102,103
 620.193359375 1021.1015625 620.193359375 1021.1015625 656.995117188 1049.16015625 c 0,104,105
 694.120117188 1076.19335938 694.120117188 1076.19335938 724.935546875 1090.04980469 c 0,106,107
 756.297851562 1103.67480469 756.297851562 1103.67480469 816.995117188 1119.62988281 c 0,0,1
EndSplineSet
Validated: 33
EndChar

StartChar: f
Encoding: 102 102 55
Width: 1214
Flags: W
LayerCount: 2
Fore
SplineSet
693.436523438 1546.62011719 m 0,0,1
 722.482421875 1546.30664062 722.482421875 1546.30664062 742.506835938 1537.25 c 0,2,3
 762.176757812 1527.24511719 762.176757812 1527.24511719 779.766601562 1504.37011719 c 0,4,5
 794.28515625 1484.89648438 794.28515625 1484.89648438 794.817382812 1447.94433594 c 0,6,7
 795.0546875 1426.31640625 795.0546875 1426.31640625 792.9765625 1375.62988281 c 0,8,9
 788.666992188 1269.28320312 788.666992188 1269.28320312 788.536132812 1051.19042969 c 1,10,-1
 810.456054688 1048.41015625 l 2,11,12
 833.250976562 1045.38183594 833.250976562 1045.38183594 920.046875 1024.33984375 c 128,-1,13
 1006.75097656 1003.12109375 1006.75097656 1003.12109375 1029.63671875 986.870117188 c 0,14,15
 1051.26367188 970.079101562 1051.26367188 970.079101562 1063.96679688 936.41015625 c 0,16,17
 1074.984375 905.978515625 1074.984375 905.978515625 1068.5 887.5703125 c 0,18,19
 1065.49804688 879.473632812 1065.49804688 879.473632812 1059.57617188 867.05078125 c 0,20,21
 1041.66601562 831.896484375 1041.66601562 831.896484375 1007.71679688 815.48046875 c 0,22,23
 979.205078125 802.072265625 979.205078125 802.072265625 959.705078125 804.575195312 c 0,24,25
 943.393554688 806.8828125 943.393554688 806.8828125 887.166015625 822.060546875 c 0,26,27
 802.87890625 844.752929688 802.87890625 844.752929688 788.536132812 845.129882812 c 0,28,29
 778.368164062 845.129882812 778.368164062 845.129882812 776.697265625 762.670898438 c 0,30,31
 775.64453125 709.21875 775.64453125 709.21875 775.896484375 571.110351562 c 0,32,33
 776.416015625 298.385742188 776.416015625 298.385742188 782.466796875 262.760742188 c 0,34,35
 788.666992188 229.713867188 788.666992188 229.713867188 797.306640625 225.169921875 c 0,36,37
 807.377929688 223.360351562 807.377929688 223.360351562 880.596679688 291 c 0,38,39
 954.182617188 359.076171875 954.182617188 359.076171875 974.836914062 370.240234375 c 0,40,41
 994.7109375 380.016601562 994.7109375 380.016601562 1016.48632812 380.400390625 c 0,42,43
 1038.58398438 379.952148438 1038.58398438 379.952148438 1064.70605469 367.240234375 c 0,44,45
 1088.89648438 355.145507812 1088.89648438 355.145507812 1102.9765625 330.00390625 c 0,46,47
 1103.83496094 328.389648438 1103.83496094 328.389648438 1104.15625 327.780273438 c 0,48,49
 1116.875 301.596679688 1116.875 301.596679688 1117.30664062 279.560546875 c 0,50,51
 1116.87695312 257.548828125 1116.87695312 257.548828125 1105.25683594 233.520507812 c 0,52,53
 1092.16601562 208.669921875 1092.16601562 208.669921875 1028.02636719 148.030273438 c 0,54,55
 963.07421875 87.044921875 963.07421875 87.044921875 915.146484375 55.220703125 c 0,56,57
 867.663085938 24.1259765625 867.663085938 24.1259765625 830.186523438 9.1806640625 c 0,58,59
 792.745117188 -5.1337890625 792.745117188 -5.1337890625 746.896484375 -5.609375 c 0,60,61
 700.79296875 -6.3759765625 700.79296875 -6.3759765625 683.336914062 -23.0400390625 c 0,62,63
 664.743164062 -40.2099609375 664.743164062 -40.2099609375 611.006835938 -49.16015625 c 0,64,65
 556.079101562 -57.7548828125 556.079101562 -57.7548828125 518.946289062 -49.8095703125 c 0,66,67
 481.3125 -41.37109375 481.3125 -41.37109375 424.706054688 -21.1396484375 c 0,68,69
 367.802734375 -0.3994140625 367.802734375 -0.3994140625 315.116210938 39.490234375 c 0,70,71
 262.819335938 79.814453125 262.819335938 79.814453125 226.846679688 127 c 0,72,73
 191.514648438 174.096679688 191.514648438 174.096679688 172.206054688 209.41015625 c 0,74,75
 153.166992188 244.794921875 153.166992188 244.794921875 134.796875 288.330078125 c 0,76,77
 116.4765625 332.411132812 116.4765625 332.411132812 103.956054688 395.740234375 c 0,78,79
 91.7548828125 458.250976562 91.7548828125 458.250976562 100.053710938 550.810546875 c 0,80,81
 100.416015625 554.821289062 100.416015625 554.821289062 100.706054688 557.959960938 c 0,82,83
 109.916015625 656.125976562 109.916015625 656.125976562 122.99609375 709.220703125 c 0,84,85
 136.279296875 761.767578125 136.279296875 761.767578125 158.436523438 810.060546875 c 0,86,87
 180.661132812 857.73046875 180.661132812 857.73046875 198.106445312 880.200195312 c 0,88,89
 215.950195312 902.518554688 215.950195312 902.518554688 252.13671875 940.490234375 c 0,90,91
 289.02734375 978.668945312 289.02734375 978.668945312 337.026367188 1007.06054688 c 0,92,93
 385.3671875 1035.0546875 385.3671875 1035.0546875 435.65625 1049.80078125 c 0,94,95
 485.665039062 1064.05859375 485.665039062 1064.05859375 514.56640625 1064.45996094 c 0,96,97
 542.731445312 1064.75097656 542.731445312 1064.75097656 560.596679688 1069.27050781 c 0,98,99
 572.176757812 1072.36621094 572.176757812 1072.36621094 575.6484375 1094.34082031 c 0,100,101
 579.80078125 1121.96679688 579.80078125 1121.96679688 584.706054688 1262.06054688 c 0,102,103
 591.34765625 1449.44726562 591.34765625 1449.44726562 602.875976562 1478.66015625 c 0,104,105
 614.953125 1506.91503906 614.953125 1506.91503906 639.286132812 1526.890625 c 0,106,107
 664.088867188 1546.62011719 664.088867188 1546.62011719 693.436523438 1546.62011719 c 0,0,1
443.88671875 833.169921875 m 0,108,109
 406.399414062 814.095703125 406.399414062 814.095703125 381.756835938 783.75 c 0,110,111
 357.779296875 753.290039062 357.779296875 753.290039062 345.956054688 731.140625 c 0,112,113
 334.467773438 708.708007812 334.467773438 708.708007812 322.426757812 669.760742188 c 0,114,115
 310.423828125 629.561523438 310.423828125 629.561523438 304.966796875 529.459960938 c 0,116,117
 300.221679688 440.751953125 300.221679688 440.751953125 308.338867188 410.913085938 c 0,118,119
 312.620117188 395.739257812 312.620117188 395.739257812 323.896484375 367.240234375 c 0,120,121
 348.276367188 306.250976562 348.276367188 306.250976562 376.596679688 266.400390625 c 0,122,123
 405.057617188 227.327148438 405.057617188 227.327148438 434.56640625 204.41015625 c 0,124,125
 464.341796875 182.055664062 464.341796875 182.055664062 501.416015625 167.140625 c 128,-1,126
 538.677734375 152.409179688 538.677734375 152.409179688 567.166015625 152.5 c 2,127,-1
 595.65625 152.58984375 l 1,128,129
 574.474609375 280.700195312 574.474609375 280.700195312 574.086914062 571.110351562 c 2,130,-1
 573.74609375 862.669921875 l 1,131,132
 508.387695312 861.192382812 508.387695312 861.192382812 494.836914062 856.58984375 c 0,133,134
 480.879882812 851.442382812 480.879882812 851.442382812 443.88671875 833.169921875 c 0,108,109
EndSplineSet
Validated: 33
EndChar

StartChar: g
Encoding: 103 103 56
Width: 1256
Flags: W
LayerCount: 2
Fore
SplineSet
721.26953125 1142.49023438 m 0,0,1
 766.393554688 1163.34082031 766.393554688 1163.34082031 780.439453125 1164.52050781 c 0,2,3
 794.7265625 1164.64257812 794.7265625 1164.64257812 859.349609375 1142.77050781 c 0,4,5
 925.071289062 1120.20800781 925.071289062 1120.20800781 986.469726562 1082.15039062 c 0,6,7
 1047.53808594 1043.79589844 1047.53808594 1043.79589844 1087.98925781 1001.37011719 c 0,8,9
 1127.59863281 959.115234375 1127.59863281 959.115234375 1143.96972656 928.16015625 c 0,10,11
 1159.71777344 897.18359375 1159.71777344 897.18359375 1171.76953125 851.440429688 c 0,12,13
 1183.55859375 805.09375 1183.55859375 805.09375 1183.70996094 737.450195312 c 0,14,15
 1183.56445312 669.25390625 1183.56445312 669.25390625 1174.04980469 590.5703125 c 0,16,17
 1164.29492188 511.765625 1164.29492188 511.765625 1142.36914062 441.509765625 c 0,18,19
 1120.24707031 371.658203125 1120.24707031 371.658203125 1093.65917969 323.129882812 c 0,20,21
 1066.96386719 274.95703125 1066.96386719 274.95703125 1047.75976562 244.219726562 c 0,22,23
 1027.828125 213.139648438 1027.828125 213.139648438 976.6796875 165.299804688 c 0,24,25
 925.077148438 117.474609375 925.077148438 117.474609375 885.509765625 90.2001953125 c 0,26,27
 845.970703125 63.357421875 845.970703125 63.357421875 789.209960938 36.3603515625 c 0,28,29
 732.221679688 9.5810546875 732.221679688 9.5810546875 675.239257812 -4.6201171875 c 0,30,31
 617.8359375 -18.59375 617.8359375 -18.59375 521.809570312 -28.509765625 c 0,32,33
 425.518554688 -38.2275390625 425.518554688 -38.2275390625 355.239257812 -33.2001953125 c 0,34,35
 285.688476562 -27.9404296875 285.688476562 -27.9404296875 254.419921875 -18.349609375 c 0,36,37
 223.334960938 -8.3564453125 223.334960938 -8.3564453125 176.359375 14.740234375 c 0,38,39
 129.456054688 38.2900390625 129.456054688 38.2900390625 104.029296875 66.650390625 c 0,40,41
 79.6298828125 95.1787109375 79.6298828125 95.1787109375 74.2392578125 123.650390625 c 0,42,43
 69.451171875 153.548828125 69.451171875 153.548828125 76.4296875 596.240234375 c 0,44,45
 82.787109375 997.845703125 82.787109375 997.845703125 90.2216796875 1035.87207031 c 0,46,47
 93.7578125 1051.68554688 93.7578125 1051.68554688 100.989257812 1059.99023438 c 0,48,49
 118.955078125 1079.43847656 118.955078125 1079.43847656 146.209960938 1092.08984375 c 0,50,51
 173.84765625 1104.00878906 173.84765625 1104.00878906 198.809570312 1099.91015625 c 0,52,53
 239.575195312 1092.328125 239.575195312 1092.328125 255.67578125 1076.38085938 c 0,54,55
 275.448242188 1055.39648438 275.448242188 1055.39648438 276.369140625 1020.99023438 c 2,56,-1
 276.329101562 188.520507812 l 1,57,-1
 302.639648438 180.41015625 l 2,58,59
 329.926757812 172.419921875 329.926757812 172.419921875 429.759765625 172.73046875 c 0,60,61
 530.375976562 173.2890625 530.375976562 173.2890625 600.719726562 187.629882812 c 0,62,63
 670.216796875 202.142578125 670.216796875 202.142578125 701.540039062 218.870117188 c 0,64,65
 731.870117188 235.481445312 731.870117188 235.481445312 749.719726562 246.5 c 0,66,67
 767.86328125 257.904296875 767.86328125 257.904296875 802.329101562 283.540039062 c 128,-1,68
 836.6171875 309.271484375 836.6171875 309.271484375 848.83984375 323 c 0,69,70
 860.791015625 337.237304688 860.791015625 337.237304688 891.9296875 384.509765625 c 0,71,72
 923.4765625 433.002929688 923.4765625 433.002929688 944.359375 494.120117188 c 0,73,74
 964.966796875 555.763671875 964.966796875 555.763671875 974.239257812 643.190429688 c 0,75,76
 983.196289062 730.375 983.196289062 730.375 978.349609375 776.91015625 c 0,77,78
 973.745117188 819.07421875 973.745117188 819.07421875 950.912109375 846.877929688 c 0,79,80
 945.845703125 852.930664062 945.845703125 852.930664062 940.439453125 858.879882812 c 0,81,82
 907.265625 894.671875 907.265625 894.671875 860.939453125 922.450195312 c 0,83,84
 817.409179688 948.247070312 817.409179688 948.247070312 807.201171875 941.45703125 c 0,85,86
 805.07421875 939.676757812 805.07421875 939.676757812 803.94921875 938.580078125 c 0,87,88
 793.66015625 925.791992188 793.66015625 925.791992188 787.76953125 842.129882812 c 0,89,90
 782.776367188 769.209960938 782.776367188 769.209960938 773.806640625 753.922851562 c 0,91,92
 767.369140625 743.993164062 767.369140625 743.993164062 750.509765625 728.6796875 c 0,93,94
 714.568359375 701.385742188 714.568359375 701.385742188 684.009765625 700.1796875 c 0,95,96
 650.870117188 700.1796875 650.870117188 700.1796875 625.456054688 722.862304688 c 0,97,98
 621.92578125 726.07421875 621.92578125 726.07421875 619.1796875 728.6796875 c 0,99,100
 590.065429688 757.14453125 590.065429688 757.14453125 582.609375 783.48046875 c 0,101,102
 576.061523438 810.662109375 576.061523438 810.662109375 585.919921875 888.709960938 c 0,103,104
 596.107421875 967.088867188 596.107421875 967.088867188 611.649414062 1007.08007812 c 0,105,106
 627.4140625 1046.44824219 627.4140625 1046.44824219 651.25 1083.81054688 c 0,107,108
 676.333007812 1121.27539062 676.333007812 1121.27539062 721.26953125 1142.49023438 c 0,0,1
EndSplineSet
Validated: 33
EndChar

StartChar: h
Encoding: 104 104 57
Width: 1364
Flags: W
LayerCount: 2
Fore
SplineSet
791.458984375 1144.20019531 m 0,0,1
 922.595703125 1149.86035156 922.595703125 1149.86035156 1015.01953125 1147.20996094 c 0,2,3
 1106.01660156 1144.48828125 1106.01660156 1144.48828125 1124.609375 1141.13964844 c 0,4,5
 1142.265625 1137.20117188 1142.265625 1137.20117188 1161.06933594 1121.91992188 c 0,6,7
 1179.67675781 1105.625 1179.67675781 1105.625 1190.14941406 1079.75 c 0,8,9
 1199.859375 1053.43066406 1199.859375 1053.43066406 1195.61914062 1027.13964844 c 0,10,11
 1190.51855469 1001.08691406 1190.51855469 1001.08691406 1175.29882812 982.479492188 c 0,12,13
 1159.45800781 964.477539062 1159.45800781 964.477539062 1139.94921875 953.990234375 c 0,14,15
 1118.77441406 943.918945312 1118.77441406 943.918945312 990.909179688 943.870117188 c 0,16,17
 860.716796875 943.8359375 860.716796875 943.8359375 554.749023438 930.059570312 c 0,18,19
 249.188476562 916.319335938 249.188476562 916.319335938 217.208984375 922.26953125 c 0,20,21
 186.67578125 928.913085938 186.67578125 928.913085938 162.418945312 953.620117188 c 0,22,23
 140.439453125 976.669921875 140.439453125 976.669921875 138.686523438 1007.28710938 c 0,24,25
 138.331054688 1014.58691406 138.331054688 1014.58691406 138.309570312 1022.75976562 c 0,26,27
 138.309570312 1062.05761719 138.309570312 1062.05761719 153.365234375 1080.66015625 c 0,28,29
 158.389648438 1086.62109375 158.389648438 1086.62109375 164.609375 1092.91015625 c 0,30,31
 191.063476562 1118.61425781 191.063476562 1118.61425781 219.409179688 1123.20996094 c 0,32,33
 249.25390625 1127.23632812 249.25390625 1127.23632812 453.928710938 1132.83984375 c 0,34,35
 659.803710938 1138.48242188 659.803710938 1138.48242188 791.458984375 1144.20019531 c 0,0,1
492.088867188 672.759765625 m 0,36,37
 512.223632812 679.612304688 512.223632812 679.612304688 679.678710938 680.229492188 c 0,38,39
 848.205078125 680.47265625 848.205078125 680.47265625 879.12890625 667.629882812 c 0,40,41
 909.474609375 653.741210938 909.474609375 653.741210938 924.048828125 625.979492188 c 0,42,43
 937.904296875 596.801757812 937.904296875 596.801757812 933.119140625 562.41015625 c 0,44,45
 926.598632812 526.321289062 926.598632812 526.321289062 879.12890625 478.9296875 c 1,46,-1
 690.638671875 477.099609375 l 2,47,48
 516.65625 475.4140625 516.65625 475.4140625 490.62890625 484.322265625 c 0,49,50
 483.610351562 486.970703125 483.610351562 486.970703125 478.0390625 490.33984375 c 0,51,52
 454.268554688 505.940429688 454.268554688 505.940429688 439.729492188 533.91015625 c 0,53,54
 425.954101562 562.966796875 425.954101562 562.966796875 431.01953125 593.099609375 c 0,55,56
 436.924804688 623.513671875 436.924804688 623.513671875 454.888671875 644.819335938 c 0,57,58
 473.34375 665.27734375 473.34375 665.27734375 492.088867188 672.759765625 c 0,36,37
482.418945312 214.620117188 m 0,59,60
 704.166992188 221.920898438 704.166992188 221.920898438 925.159179688 219 c 0,61,62
 1142.06054688 216.107421875 1142.06054688 216.107421875 1170.4375 204.00390625 c 0,63,64
 1172.13574219 203.223632812 1172.13574219 203.223632812 1172.82910156 202.899414062 c 0,65,66
 1198.65234375 189.43359375 1198.65234375 189.43359375 1212.34863281 170.009765625 c 0,67,68
 1225.20996094 149.725585938 1225.20996094 149.725585938 1225.68945312 110.830078125 c 0,69,70
 1225.85742188 49.837890625 1225.85742188 49.837890625 1174.1640625 29.1474609375 c 0,71,72
 1159.24121094 23.5166015625 1159.24121094 23.5166015625 1142.17871094 21.7001953125 c 0,73,74
 1115.90332031 19.11328125 1115.90332031 19.11328125 1025.34375 16.9931640625 c 128,-1,75
 934.784179688 14.873046875 934.784179688 14.873046875 857.361328125 14.046875 c 2,76,-1
 779.939453125 13.2197265625 l 2,77,78
 389.38671875 7.6884765625 389.38671875 7.6884765625 322.418945312 1.0498046875 c 0,79,80
 256.120117188 -4.8427734375 256.120117188 -4.8427734375 230.359375 7.859375 c 0,81,82
 204.423828125 21.4609375 204.423828125 21.4609375 188.598632812 37.5693359375 c 0,83,84
 173.462890625 54.435546875 173.462890625 54.435546875 168.409179688 88.8994140625 c 0,85,86
 164.372070312 124.606445312 164.372070312 124.606445312 181.678710938 152.479492188 c 0,87,88
 198.50390625 179.110351562 198.50390625 179.110351562 228.255859375 193.180664062 c 0,89,90
 229.809570312 193.881835938 229.809570312 193.881835938 230.359375 194.129882812 c 0,91,92
 262.939453125 207.313476562 262.939453125 207.313476562 482.418945312 214.620117188 c 0,59,60
EndSplineSet
Validated: 33
EndChar

StartChar: i
Encoding: 105 105 58
Width: 794
Flags: W
LayerCount: 2
Fore
SplineSet
415.709960938 1152.71972656 m 0,0,1
 519.887695312 1193.97460938 519.887695312 1193.97460938 542.830078125 1195.33007812 c 0,2,3
 564.786132812 1195.57421875 564.786132812 1195.57421875 586.669921875 1181.18945312 c 0,4,5
 608.208984375 1166.05859375 608.208984375 1166.05859375 621.740234375 1148.23925781 c 0,6,7
 634.81640625 1129.82910156 634.81640625 1129.82910156 645.629882812 1099.58007812 c 0,8,9
 656.349609375 1068.25 656.349609375 1068.25 665.349609375 1005.30957031 c 0,10,11
 674.250976562 941.250976562 674.250976562 941.250976562 674.259765625 825.559570312 c 0,12,13
 674.127929688 709.509765625 674.127929688 709.509765625 665.629882812 591 c 0,14,15
 657.16796875 472.055664062 657.16796875 472.055664062 665.459960938 327.939453125 c 0,16,17
 667.313476562 295.953125 667.313476562 295.953125 668.396484375 260.622070312 c 0,18,19
 670.2421875 202.327148438 670.2421875 202.327148438 675.629882812 118.359375 c 0,20,21
 678.116210938 76.044921875 678.116210938 76.044921875 677.104492188 47.7744140625 c 128,-1,22
 676.091796875 19.5048828125 676.091796875 19.5048828125 672.654296875 3.2861328125 c 128,-1,23
 669.215820312 -12.9326171875 669.215820312 -12.9326171875 665.495117188 -21.087890625 c 128,-1,24
 661.774414062 -29.2421875 661.774414062 -29.2421875 658.841796875 -31.326171875 c 2,25,-1
 655.91015625 -33.41015625 l 1,26,27
 628.905273438 -62.9013671875 628.905273438 -62.9013671875 604.936523438 -65.634765625 c 0,28,29
 599.12890625 -66.1884765625 599.12890625 -66.1884765625 593.240234375 -66.2900390625 c 0,30,31
 560.543945312 -66.21484375 560.543945312 -66.21484375 534.370117188 -51.2998046875 c 0,32,33
 508.921875 -35.6416015625 508.921875 -35.6416015625 496.080078125 -14.0302734375 c 0,34,35
 483.767578125 9.2236328125 483.767578125 9.2236328125 472.8203125 143.799804688 c 0,36,37
 461.920898438 279.67578125 461.920898438 279.67578125 460.700195312 424.399414062 c 128,-1,38
 459.5859375 569.094726562 459.5859375 569.094726562 468.309570312 759.819335938 c 128,-1,39
 477.084960938 950.559570312 477.084960938 950.559570312 468.309570312 950.75 c 0,40,41
 458.581054688 950.420898438 458.581054688 950.420898438 424.469726562 937.059570312 c 0,42,43
 388.723632812 922.803710938 388.723632812 922.803710938 317.080078125 888.609375 c 0,44,45
 245.484375 854.623046875 245.484375 854.623046875 218.450195312 854.059570312 c 0,46,47
 192.102539062 854.538085938 192.102539062 854.538085938 165.690429688 869.399414062 c 0,48,49
 141.143554688 883.638671875 141.143554688 883.638671875 127.283203125 911.0703125 c 0,50,51
 126.51953125 912.657226562 126.51953125 912.657226562 126.240234375 913.239257812 c 0,52,53
 113.763671875 941.640625 113.763671875 941.640625 117.440429688 965.859375 c 0,54,55
 122.125 990.012695312 122.125 990.012695312 139.360351562 1014.08007812 c 0,56,57
 158.224609375 1038.51367188 158.224609375 1038.51367188 233.790039062 1074.56933594 c 0,58,59
 310.614257812 1110.93359375 310.614257812 1110.93359375 415.709960938 1152.71972656 c 0,0,1
EndSplineSet
Validated: 33
EndChar

